STARTFONT 2.1
COMMENT
COMMENT Converted from OpenType font "bsk.ttf" by "otf2bdf 3.0".
COMMENT
FONT -FreeType-Libre Baskerville-Medium-R-Normal--50-500-72-72-P-287-ISO10646-1
SIZE 50 72 72
FONTBOUNDINGBOX 94 63 -14 -14
STARTPROPERTIES 19
FOUNDRY "FreeType"
FAMILY_NAME "Libre Baskerville"
WEIGHT_NAME "Medium"
SLANT "R"
SETWIDTH_NAME "Normal"
ADD_STYLE_NAME ""
PIXEL_SIZE 50
POINT_SIZE 500
RESOLUTION_X 72
RESOLUTION_Y 72
SPACING "P"
AVERAGE_WIDTH 287
CHARSET_REGISTRY "ISO10646"
CHARSET_ENCODING "1"
FONT_ASCENT 48
FONT_DESCENT 13
COPYRIGHT "Copyright (c) 2012, Pablo Impallari (www.impallari.com|impallari@gmail.com), Copyright (c) 2012, Rodrigo Fuenzalida (www.rfuenzalida.com|hello@rfuenzalida.com), with Reserved Font Name Libre Baskerville."
_OTF_FONTFILE "bsk.ttf"
_OTF_PSNAME "LibreBaskerville-Regular"
ENDPROPERTIES
CHARS 442
STARTCHAR 0020
ENCODING 32
SWIDTH 280 0
DWIDTH 14 0
BBX 0 0 0 0
BITMAP
ENDCHAR
STARTCHAR 0021
ENCODING 33
SWIDTH 300 0
DWIDTH 15 0
BBX 7 40 4 -1
BITMAP
10
7C
7E
FE
FE
FE
7E
7E
7E
7C
7C
7C
3C
3C
3C
38
38
38
38
38
38
38
38
38
38
38
38
38
38
38
00
00
10
7C
7E
FE
FE
7E
7C
10
ENDCHAR
STARTCHAR 0022
ENCODING 34
SWIDTH 360 0
DWIDTH 18 0
BBX 12 13 3 28
BITMAP
70E0
F8F0
F8F0
F8F0
F0F0
F0F0
70F0
70F0
70E0
7060
6060
6060
2060
ENDCHAR
STARTCHAR 0023
ENCODING 35
SWIDTH 660 0
DWIDTH 33 0
BBX 29 38 2 0
BITMAP
001C0700
001C0700
00380700
00380700
00380700
00380F00
00380E00
00380E00
00780E00
00700E00
00700E00
3FFFFFF8
3FFFFFF8
40701C00
00F01C00
00E01C00
00E01C00
00E01C00
00E03C00
00E03800
00E03800
00E03800
01C03800
FFFFFFF0
FFFFFFF0
01C07000
01C07000
01C07000
03807000
03807000
03807000
03807000
0380E000
0380E000
0380E000
0700E000
0700E000
0700E000
ENDCHAR
STARTCHAR 0024
ENCODING 36
SWIDTH 620 0
DWIDTH 31 0
BBX 27 54 2 -9
BITMAP
000E0000
000E0000
000E0000
000E0000
000E0000
000E0000
000E0000
00FFE000
03FFFC00
07CE7E00
0F8E1F00
1F0E1F80
1E0E0F80
1E0E0F80
3E0E0FC0
3E0E0780
3E0E0300
3F0E0000
3F0E0000
3F8E0000
1FEE0000
1FFE0000
0FFE0000
07FF8000
03FFE000
01FFF800
007FFC00
001FFF00
000FFF80
000FFFC0
000E7FC0
000E1FC0
000E0FE0
000E07E0
700E07E0
F80E03E0
F80E03E0
F80E03C0
FC0E07C0
FC0E07C0
7C0E0F80
3E0E1F00
1F8E7E00
07FFFC00
01FFF000
001E0000
000E0000
000E0000
000E0000
000E0000
000E0000
000E0000
000E0000
000E0000
ENDCHAR
STARTCHAR 0025
ENCODING 37
SWIDTH 680 0
DWIDTH 34 0
BBX 30 40 2 -1
BITMAP
01000000
07E0001C
0C300038
1C380030
18180060
381800E0
381C01C0
381C0180
381C0300
381C0700
381C0E00
18180C00
18181C00
0C303800
0C703000
03C06000
0000E000
0001C000
00018000
00038000
00070000
000E0000
000C0000
001C0000
00380F00
00303180
007060C0
00E060C0
01C0E0E0
0180E0E0
0380E060
0700E060
0E00E060
0E00E060
1C00E0E0
3800E0E0
300060C0
700031C0
E0001F00
00000400
ENDCHAR
STARTCHAR 0026
ENCODING 38
SWIDTH 880 0
DWIDTH 44 0
BBX 40 40 2 -1
BITMAP
0000800000
0007F80000
001FFC0000
003C3E0000
00381F0000
00781F0000
00780F0000
00F80F8000
00F80F8000
00F80F0000
00F80F0000
00F81F0000
00F81E0000
00FC3C0000
007C7C0000
007EF80000
003FE01FFE
003FC01FFE
001F8003E0
003FC003C0
00FFC00380
01F7E00380
07C3F00700
0F83F80600
1F01F80E00
3F00FC1C00
7E007E1800
7C007F3800
FC003FF000
FC001FE000
FC000FE000
FC000FE000
FC0007F000
FE000FF800
7E001DFC03
7F8078FF03
3FFFF07FFE
1FFFC01FFC
07FF000FF8
0020000080
ENDCHAR
STARTCHAR 0027
ENCODING 39
SWIDTH 220 0
DWIDTH 11 0
BBX 5 13 3 28
BITMAP
70
F8
F8
F8
F0
F0
70
70
70
70
60
60
20
ENDCHAR
STARTCHAR 0028
ENCODING 40
SWIDTH 340 0
DWIDTH 17 0
BBX 14 52 2 -10
BITMAP
0008
001C
0038
0070
00F0
00E0
01C0
03C0
0380
0780
0F00
0F00
1E00
1E00
3E00
3C00
3C00
7C00
7C00
7C00
7C00
7800
F800
F800
F800
F800
F800
F800
F800
7800
7C00
7C00
7C00
7C00
3C00
3C00
3E00
1E00
1E00
1E00
0F00
0F00
0780
0380
03C0
01C0
00E0
0070
0070
0038
001C
0008
ENDCHAR
STARTCHAR 0029
ENCODING 41
SWIDTH 340 0
DWIDTH 17 0
BBX 13 52 1 -10
BITMAP
4000
E000
E000
7000
3800
1C00
1E00
0E00
0F00
0780
0780
03C0
03C0
01E0
01E0
01E0
01F0
00F0
00F0
00F8
00F8
00F8
00F8
00F8
00F8
00F8
00F8
00F8
00F8
00F8
00F8
00F8
00F8
00F0
01F0
01F0
01E0
01E0
03E0
03C0
03C0
0780
0780
0F00
0E00
1E00
1C00
3800
7000
E000
C000
4000
ENDCHAR
STARTCHAR 002A
ENCODING 42
SWIDTH 520 0
DWIDTH 26 0
BBX 20 23 3 16
BITMAP
004000
00F000
00F000
00F000
00F000
70E0E0
F861E0
FC63F0
7E67E0
3F6F80
03F800
00E000
03F800
3F6FC0
FE67E0
FC63F0
F861F0
70E0E0
00F000
00F000
00F000
00F000
004000
ENDCHAR
STARTCHAR 002B
ENCODING 43
SWIDTH 560 0
DWIDTH 28 0
BBX 23 23 2 5
BITMAP
003800
003800
003800
003800
003800
003800
003800
003800
003800
003800
FFFFFE
FFFFFE
003800
003800
003800
003800
003800
003800
003800
003800
003800
003800
003800
ENDCHAR
STARTCHAR 002C
ENCODING 44
SWIDTH 280 0
DWIDTH 14 0
BBX 8 15 2 -9
BITMAP
1E
3F
7F
7F
3F
3F
07
07
07
0E
0C
1C
70
E0
40
ENDCHAR
STARTCHAR 002D
ENCODING 45
SWIDTH 460 0
DWIDTH 23 0
BBX 15 4 4 12
BITMAP
FFFE
FFFE
FFFE
FFFE
ENDCHAR
STARTCHAR 002E
ENCODING 46
SWIDTH 260 0
DWIDTH 13 0
BBX 7 8 3 -1
BITMAP
10
7C
7E
FE
FE
7E
7C
10
ENDCHAR
STARTCHAR 002F
ENCODING 47
SWIDTH 460 0
DWIDTH 23 0
BBX 21 38 1 0
BITMAP
000038
000070
000060
0000E0
0000E0
0000C0
0001C0
000180
000380
000300
000700
000600
000E00
000C00
001C00
001C00
003800
003800
007000
007000
006000
00E000
00C000
01C000
018000
038000
038000
070000
070000
0E0000
0E0000
1C0000
1C0000
180000
380000
300000
700000
F00000
ENDCHAR
STARTCHAR 0030
ENCODING 48
SWIDTH 720 0
DWIDTH 36 0
BBX 30 40 3 -1
BITMAP
00020000
003FF000
00FFF800
01F03E00
03C01F00
07800F80
0F800780
0F0007C0
1F0003E0
3F0003E0
3E0003F0
3E0003F0
7E0001F0
7E0001F8
7E0001F8
FE0001F8
FE0001F8
FE0001FC
FE0001FC
FE0001FC
FE0001FC
FE0001FC
FE0001FC
FE0001F8
FE0001F8
7E0001F8
7E0001F8
7E0001F8
7E0001F0
3E0003F0
3F0003E0
1F0003E0
1F0007C0
0F8007C0
07800F80
03C01F00
01F03E00
00FFF800
003FF000
00020000
ENDCHAR
STARTCHAR 0031
ENCODING 49
SWIDTH 440 0
DWIDTH 22 0
BBX 16 39 3 0
BITMAP
0060
07E0
FFE0
FFE0
7FE0
07E0
03E0
03E0
03E0
03E0
03E0
03E0
03E0
03E0
03E0
03E0
03E0
03E0
03E0
03E0
03E0
03E0
03E0
03E0
03E0
03E0
03E0
03E0
03E0
03E0
03E0
03E0
03E0
03E0
07E0
07F0
7FFE
7FFF
7FFF
ENDCHAR
STARTCHAR 0032
ENCODING 50
SWIDTH 620 0
DWIDTH 31 0
BBX 26 39 2 0
BITMAP
00040000
00FFE000
03FFF800
0FC1FC00
1F007E00
1E003F00
3C003F00
3C001F80
7C001F80
7C001F80
7C001F80
7C001F80
7C001F80
7E001F80
3F001F80
3FE01F80
1FE03F00
07C03F00
00003E00
00007E00
00007C00
0000F800
0001F800
0003F000
0003E000
0007C000
000F8000
001F0000
003C00C0
00780180
00F00180
01E00180
03800380
07000780
0FFFFF80
1FFFFF00
7FFFFF00
FFFFFF00
FFFFFF00
ENDCHAR
STARTCHAR 0033
ENCODING 51
SWIDTH 620 0
DWIDTH 31 0
BBX 25 40 3 -1
BITMAP
00100000
03FFC000
0FFFF000
1F81F800
3E00FC00
7C007E00
7C007E00
7C007E00
7C003F00
3E003F00
3FC03F00
1F807E00
00007E00
00007C00
00007C00
0000F800
0001F000
01E3C000
03FF0000
01FFE000
0001F000
0000FC00
00007C00
00003E00
1F003F00
7F803F00
7E003F00
FC003F80
F8003F80
F8003F80
F8003F80
F8003F00
F8003F00
F8007E00
7C007E00
7E00FC00
3F03F800
0FFFE000
03FF8000
00100000
ENDCHAR
STARTCHAR 0034
ENCODING 52
SWIDTH 580 0
DWIDTH 29 0
BBX 25 39 1 0
BITMAP
00006000
00006000
0000E000
0001E000
0001E000
0003E000
0007E000
0007E000
000FE000
001FE000
001BE000
003BE000
0073E000
0063E000
00E3E000
00C3E000
0183E000
0383E000
0303E000
0703E000
0E03E000
0C03E000
1C03E000
3803E080
3003E080
7003E180
6003E180
C003EF80
FFFFFF80
FFFFFF80
0003E380
0003E180
0003E080
0003E080
0003E000
0007F000
0007F000
007FFE00
007FFE00
ENDCHAR
STARTCHAR 0035
ENCODING 53
SWIDTH 560 0
DWIDTH 28 0
BBX 24 40 1 -1
BITMAP
001002
003FFE
003FFE
003FFC
007FF8
007FE0
006000
006000
00E000
00C000
00C000
00C000
01C000
018000
01BFC0
01FFF0
03E1F8
03807C
03807E
03003E
07003F
06003F
00003F
00003F
00003F
00003F
00003F
00003F
00003F
00003F
70007E
F8007E
F8007C
FC00FC
FC01F8
7C03F0
3F07E0
1FFF80
07FE00
004000
ENDCHAR
STARTCHAR 0036
ENCODING 54
SWIDTH 640 0
DWIDTH 32 0
BBX 26 40 3 -1
BITMAP
00010000
001FF800
007FFE00
00F07F00
01E03F00
03C01F80
07801F00
0F800F00
0F000000
1F000000
1E000000
3E000000
3E000000
7E000000
7E3FE000
7E7FF800
7CE0FC00
FDC03E00
FF803F00
FF001F80
FE001F80
FE000FC0
FC000FC0
FC000FC0
FC000FC0
FC000FC0
FC000FC0
7C000FC0
7C000FC0
7E000FC0
7E000FC0
3E001F80
3E001F80
1F001F00
0F003E00
0F807E00
07E0F800
01FFF000
00FFC000
000C0000
ENDCHAR
STARTCHAR 0037
ENCODING 55
SWIDTH 500 0
DWIDTH 25 0
BBX 23 43 2 -1
BITMAP
180000
180000
180000
380000
3FFFFE
3FFFFE
3FFFFE
7FFFFC
7FFFFC
780018
600038
E00030
C00070
C000F0
C000E0
0001E0
0001C0
0003C0
000380
000780
000780
000F00
000F00
001E00
001E00
003C00
003C00
007C00
007800
00F800
00F000
01F000
03F000
03E000
07E000
07E000
07C000
0FC000
0F8000
1F8000
1F0000
0F0000
040000
ENDCHAR
STARTCHAR 0038
ENCODING 56
SWIDTH 600 0
DWIDTH 30 0
BBX 24 40 3 -1
BITMAP
001000
01FF80
07FFE0
0F81F0
1E00F8
1C007C
3C003C
3C003E
7C001E
7C001E
7C001E
7C003C
3E003C
3F007C
3FC078
1FF0F0
0FFDE0
07FF80
03FFC0
01FFE0
00FFF0
03DFF8
0F07FC
1E01FE
3C00FE
7C003F
78003F
F8001F
F8001F
F8000F
F8000F
F8000F
F8001F
78001E
7C003C
3E007C
1F80F8
0FFFE0
03FF80
001800
ENDCHAR
STARTCHAR 0039
ENCODING 57
SWIDTH 640 0
DWIDTH 32 0
BBX 26 40 3 -1
BITMAP
00040000
00FFC000
03FFF000
07C1F800
0F807C00
1F003E00
3E003E00
7E001F00
7E001F00
7C001F80
FC000F80
FC000F80
FC000FC0
FC000FC0
FC000FC0
FC000FC0
FC000FC0
FC000FC0
7E001FC0
7E001FC0
3E003FC0
3F007FC0
1F80EFC0
0FF7CFC0
03FF8F80
00FE0F80
00001F80
00001F00
00001F00
00001F00
00003E00
00003C00
3C003C00
3E007800
3F00F000
3F01E000
3F83C000
1FFF8000
07FE0000
00600000
ENDCHAR
STARTCHAR 003A
ENCODING 58
SWIDTH 280 0
DWIDTH 14 0
BBX 6 24 4 -1
BITMAP
78
FC
FC
FC
FC
FC
78
00
00
00
00
00
00
00
00
00
10
78
FC
FC
FC
FC
78
10
ENDCHAR
STARTCHAR 003B
ENCODING 59
SWIDTH 320 0
DWIDTH 16 0
BBX 7 32 4 -9
BITMAP
38
7C
7E
FE
7E
7C
38
00
00
00
00
00
00
00
00
00
00
3C
7E
FE
FE
7E
7E
0E
0E
0E
1C
1C
38
F0
C0
80
ENDCHAR
STARTCHAR 003C
ENCODING 60
SWIDTH 580 0
DWIDTH 29 0
BBX 23 26 2 4
BITMAP
000002
00000E
00003E
0000F8
0003E0
000FC0
003F00
00FC00
03F000
0FC000
3F0000
FC0000
F00000
E00000
F80000
7E0000
1F8000
07E000
01F800
007E00
001F80
0007E0
0001F0
00007C
00001E
000006
ENDCHAR
STARTCHAR 003D
ENCODING 61
SWIDTH 620 0
DWIDTH 31 0
BBX 23 11 4 13
BITMAP
FFFFFE
FFFFFE
000000
000000
000000
000000
000000
000000
000000
FFFFFE
FFFFFE
ENDCHAR
STARTCHAR 003E
ENCODING 62
SWIDTH 580 0
DWIDTH 29 0
BBX 23 26 4 4
BITMAP
800000
E00000
F80000
3E0000
0F8000
03E000
00F800
007E00
001F80
0003E0
0001F8
00007E
00001E
00000E
00003E
0000FC
0003F0
000FC0
003F00
00FC00
03F000
07C000
1F0000
7C0000
F00000
C00000
ENDCHAR
STARTCHAR 003F
ENCODING 63
SWIDTH 400 0
DWIDTH 20 0
BBX 14 40 3 -1
BITMAP
1000
7E00
7F80
FFC0
7FE0
7FF0
1070
0038
0018
001C
001C
001C
001C
001C
003C
00FC
1FF8
1FF8
1FF0
1FE0
1F80
1C00
1C00
1C00
1C00
1C00
1C00
0000
0000
0000
0000
0000
0800
3E00
7E00
7F00
7F00
7E00
3E00
0800
ENDCHAR
STARTCHAR 0040
ENCODING 64
SWIDTH 1020 0
DWIDTH 51 0
BBX 45 45 3 -6
BITMAP
000000400000
00003FFF8000
0001FFFFE000
0007F803F800
001F80007E00
007E00001F00
00FC00000780
01F0000003C0
03E0000001E0
07C0000000E0
0F8000000070
1F0000800070
1F000FF0F030
3E003FF9F038
3C007E1DF018
7C00F80DE018
7C01F00FE018
7803E007E018
F803E007E018
F807C007C018
F00FC007C018
F00F800FC018
F00F800FC038
F01F800F8038
F01F000F8030
F01F001F8070
F01F001F0070
F01F003F00E0
F81F007F00C0
F80F007F01C0
780F80DF0380
780783CF0700
7C07EF0FFE00
3C03FE07FC00
3E00F803F000
1F0000000000
0F0000000000
0F8000000000
07E000000080
03F000000380
00FC00000F00
007F00003C00
001FE003F000
0007FFFFC000
0000FFFE0000
ENDCHAR
STARTCHAR 0041
ENCODING 65
SWIDTH 780 0
DWIDTH 39 0
BBX 39 38 0 0
BITMAP
0000380000
0000380000
0000780000
00007C0000
0000FC0000
0000FE0000
0001FE0000
0001FE0000
0001BF0000
00039F0000
00039F8000
00070F8000
00070F8000
00060FC000
000E07C000
000E07E000
001C03E000
001C03F000
001803F000
003801F000
003001F800
007FFFF800
007FFFFC00
00FFFFFC00
00E0007C00
00C0007E00
01C0007E00
01C0003F00
0380003F00
0380001F80
0380001F80
0700001FC0
0700000FC0
0F00000FE0
1F00001FF0
FFE001FFFE
FFF001FFFE
FFF001FFFE
ENDCHAR
STARTCHAR 0042
ENCODING 66
SWIDTH 760 0
DWIDTH 38 0
BBX 34 38 2 0
BITMAP
7FFFF80000
7FFFFF8000
0FF07FE000
07E007F000
03E003F800
03E001F800
03E001FC00
03E000FC00
03E000FC00
03E000FC00
03E000FC00
03E000FC00
03E001F800
03E001F800
03E003F000
03E007C000
03E07F0000
03FFFC0000
03FFFFC000
03E007F000
03E001FC00
03E0007E00
03E0007F00
03E0003F80
03E0001F80
03E0001F80
03E0001FC0
03E0001FC0
03E0001FC0
03E0001FC0
03E0001FC0
03E0003F80
03F0003F80
03F0007F00
07F801FE00
1FFFFFFC00
FFFFFFF800
FFFFFFC000
ENDCHAR
STARTCHAR 0043
ENCODING 67
SWIDTH 800 0
DWIDTH 40 0
BBX 34 40 3 -1
BITMAP
0000100000
0007FF8180
003FFFF180
00FF01FD80
01FC003F80
03F0001F80
07E0000F80
0FC0000780
1FC0000380
1F80000380
3F00000180
3F00000180
7F00000180
7E00000000
7E00000000
FE00000000
FE00000000
FE00000000
FE00000000
FE00000000
FE00000000
FE00000000
FE00000000
FE00000000
FE00000000
FE00000000
7E00000000
7F000000C0
7F000000C0
3F000001C0
3F800001C0
1F800003C0
1FC00003C0
0FE00007C0
07F0000FC0
03F8003FC0
00FF00FCC0
007FFFF0C0
000FFF80C0
0000200000
ENDCHAR
STARTCHAR 0044
ENCODING 68
SWIDTH 880 0
DWIDTH 44 0
BBX 39 38 2 0
BITMAP
7FFFFE0000
7FFFFFE000
0FF01FF800
07E000FE00
03E0003F00
03E0001F80
03E0000FC0
03E00007E0
03E00003F0
03E00001F8
03E00001F8
03E00001FC
03E00000FC
03E00000FC
03E00000FE
03E00000FE
03E000007E
03E000007E
03E000007E
03E000007E
03E000007E
03E000007E
03E000007E
03E00000FE
03E00000FE
03E00000FC
03E00000FC
03E00001FC
03E00001F8
03E00001F8
03E00003F0
03E00007E0
03F0000FC0
03F0001F80
07FC007F00
0FFFDFFC00
FFFFFFF000
FFFFFF0000
ENDCHAR
STARTCHAR 0045
ENCODING 69
SWIDTH 720 0
DWIDTH 36 0
BBX 32 38 2 0
BITMAP
7FFFFFFC
7FFFFFFC
7FF01FFC
07E0007C
07E0001C
03E0001C
03E0000C
03E0000C
03E0000C
03E00000
03E00000
03E00C00
03E00C00
03E00C00
03E01C00
03E03C00
03EFFC00
03FFFC00
03FFFC00
03E0FC00
03E03C00
03E00C00
03E00C00
03E00C00
03E00C00
03E00000
03E00000
03E00000
03E00003
03E00003
03E00003
03E00007
03E00007
07F0000F
07F8003F
0FFE00FF
FFFFFFFE
FFFFFFFE
ENDCHAR
STARTCHAR 0046
ENCODING 70
SWIDTH 680 0
DWIDTH 34 0
BBX 30 38 2 0
BITMAP
7FFFFFFC
7FFFFFFC
0FF00FFC
07E0007C
03E0001C
03E0001C
03E0000C
03E0000C
03E0000C
03E00000
03E00000
03E00C00
03E00C00
03E00C00
03E00C00
03E01C00
03E07C00
03EFFC00
03FFFC00
03FFFC00
03E0FC00
03E03C00
03E01C00
03E00C00
03E00C00
03E00C00
03E00000
03E00000
03E00000
03E00000
03E00000
03E00000
03E00000
07E00000
07F00000
7FFF8000
FFFFC000
FFFFC000
ENDCHAR
STARTCHAR 0047
ENCODING 71
SWIDTH 880 0
DWIDTH 44 0
BBX 39 40 3 -1
BITMAP
0000100000
0007FF8180
003FFFF180
00FF01FD80
01FC003F80
03F0001F80
07E0000F80
0FC0000780
1FC0000780
1F80000380
3F00000380
3F00000380
7F00000380
7E00000000
7E00000000
FE00000000
FE00000000
FE00000000
FE00000000
FE00000000
FE00000000
FE00000000
FE00000000
FE00007FFE
FE00007FFE
FE00000FF0
7E000007F0
7F000003E0
7F000003E0
3F000003E0
3F800003E0
1F800003E0
1FC00007E0
0FE00007E0
07F0000FE0
03F8003F00
01FF00F800
007FFFE000
000FFF8000
0000600000
ENDCHAR
STARTCHAR 0048
ENCODING 72
SWIDTH 920 0
DWIDTH 46 0
BBX 42 38 2 0
BITMAP
7FFF003FFF80
7FFF003FFF80
7FFE001FFF80
07F00003F800
07E00001F800
03E00001F800
03E00001F800
03E00001F800
03E00001F800
03E00001F800
03E00001F800
03E00001F800
03E00001F800
03E00001F800
03E00001F800
03E00001F800
03E00001F800
03FFFFFFF800
03FFFFFFF800
03E00001F800
03E00001F800
03E00001F800
03E00001F800
03E00001F800
03E00001F800
03E00001F800
03E00001F800
03E00001F800
03E00001F800
03E00001F800
03E00001F800
03E00001F800
03E00001F800
07E00001F800
07F00003FC00
7FFF003FFF80
FFFF003FFFC0
FFFF003FFFC0
ENDCHAR
STARTCHAR 0049
ENCODING 73
SWIDTH 420 0
DWIDTH 21 0
BBX 16 38 2 0
BITMAP
7FFF
7FFF
7FFF
07F0
07F0
07E0
03E0
03E0
03E0
03E0
03E0
03E0
03E0
03E0
03E0
03E0
03E0
03E0
03E0
03E0
03E0
03E0
03E0
03E0
03E0
03E0
03E0
03E0
03E0
03E0
03E0
03E0
07E0
07F0
07F0
7FFF
FFFF
FFFF
ENDCHAR
STARTCHAR 004A
ENCODING 74
SWIDTH 400 0
DWIDTH 20 0
BBX 23 51 -6 -13
BITMAP
00FFFE
00FFFE
007FFE
000FE0
0007E0
0007E0
0007E0
0007E0
0007E0
0007E0
0007E0
0007E0
0007E0
0007E0
0007E0
0007E0
0007E0
0007E0
0007E0
0007E0
0007E0
0007E0
0007E0
0007E0
0007E0
0007E0
0007E0
0007E0
0007E0
0007E0
0007E0
0007E0
0007E0
0007E0
0007E0
0007E0
0007E0
0007E0
0007C0
0007C0
0007C0
0007C0
0007C0
3007C0
780780
FC0F80
7E0F00
7E1F00
3FFE00
1FF800
018000
ENDCHAR
STARTCHAR 004B
ENCODING 75
SWIDTH 780 0
DWIDTH 39 0
BBX 38 38 2 0
BITMAP
7FFF03FFC0
7FFF03FFC0
7FFE03FF80
07F000FC00
07E000F800
03E000F000
03E001E000
03E003C000
03E0078000
03E00F0000
03E01E0000
03E03C0000
03E0380000
03E0700000
03E0E00000
03E1C00000
03E3C00000
03E7E00000
03EFF00000
03FFF00000
03FDF80000
03F8FC0000
03F07E0000
03E07F0000
03E03F8000
03E01FC000
03E00FE000
03E007E000
03E003F000
03E001F800
03E001FC00
03E000FE00
03E0007F00
07E0003F80
07F0003FC0
7FFF01FFF8
FFFF03FFFC
FFFF03FFFC
ENDCHAR
STARTCHAR 004C
ENCODING 76
SWIDTH 720 0
DWIDTH 36 0
BBX 33 38 2 0
BITMAP
7FFF000000
7FFF000000
7FFE000000
07F0000000
07E0000000
03E0000000
03E0000000
03E0000000
03E0000000
03E0000000
03E0000000
03E0000000
03E0000000
03E0000000
03E0000000
03E0000000
03E0000000
03E0000000
03E0000000
03E0000000
03E0000000
03E0000000
03E0000000
03E0000000
03E0000000
03E0000000
03E0000000
03E0000000
03E0000180
03E0000180
03E0000180
03E0000380
03E0000380
07F0000780
07F8000F80
0FFF00FF80
FFFFFFFF80
FFFFFFFF80
ENDCHAR
STARTCHAR 004D
ENCODING 77
SWIDTH 1100 0
DWIDTH 55 0
BBX 50 39 2 -1
BITMAP
7FF8000003FFC0
7FF8000003FFC0
7FFC000007FF80
07FC000007FC00
07FE00000FF800
07FE00000FF800
03FF00000FF800
03FF00001FF800
03BF00001DF800
03BF80003DF800
039F800039F800
039FC00079F800
038FC00071F800
038FE000F1F800
0387E000E1F800
0387E001E1F800
0387F001C1F800
0383F001C1F800
0383F803C1F800
0381F80381F800
0381FC0781F800
0380FC0701F800
0380FE0F01F800
03807E0E01F800
03807E1E01F800
03807F1C01F800
03803F1C01F800
03803FB801F800
03801FB801F800
03801FF801F800
03800FF001F800
03800FF001F800
078007E001F800
078007E001F800
07C007C003FC00
7FFC03C03FFFC0
FFFC03803FFFC0
FFFC01803FFFC0
00000100000000
ENDCHAR
STARTCHAR 004E
ENCODING 78
SWIDTH 900 0
DWIDTH 45 0
BBX 41 39 2 -1
BITMAP
7FE0000FFF80
7FF0000FFF80
7FF8000FFF80
07F80000F800
07FC0000F000
07FE0000F000
03FF00007000
03FF00007000
03FF80007000
03BFC0007000
039FE0007000
038FF0007000
038FF0007000
0387F8007000
0383FC007000
0381FE007000
0380FE007000
0380FF007000
03807F807000
03803FC07000
03801FC07000
03801FE07000
03800FF07000
038007F87000
038003F87000
038001FC7000
038001FE7000
038000FF7000
0380007FF000
0380003FF000
0380003FF000
0380001FF000
0780000FF000
07800007F000
07C00003F000
7FF80003F000
FFFC0001F000
FFFC0000F000
000000007000
ENDCHAR
STARTCHAR 004F
ENCODING 79
SWIDTH 940 0
DWIDTH 47 0
BBX 41 40 3 -1
BITMAP
000008000000
0003FFE00000
001FFFFC0000
007F807F0000
00FC001F8000
01F80007E000
03E00003F000
07C00001F800
0FC00000F800
1F800000FC00
3F0000007E00
3F0000007E00
7F0000003F00
7E0000003F00
7E0000003F80
FE0000003F80
FE0000001F80
FE0000001F80
FC0000001F80
FC0000001F80
FC0000001F80
FC0000001F80
FC0000001F80
FE0000001F80
FE0000001F80
7E0000003F80
7E0000003F00
7E0000003F00
3F0000003E00
3F0000007E00
1F8000007C00
0F800000FC00
0FC00001F800
07E00003F000
01F00007E000
00FC001F8000
007F007F0000
001FFFFC0000
0003FFE00000
000008000000
ENDCHAR
STARTCHAR 0050
ENCODING 80
SWIDTH 680 0
DWIDTH 34 0
BBX 31 38 2 0
BITMAP
7FFFFC00
7FFFFF80
0FE03FE0
07E003F0
03E001F8
03E001FC
03E000FC
03E000FE
03E000FE
03E000FE
03E000FE
03E000FE
03E000FE
03E000FC
03E001FC
03E001F8
03E007F0
03E01FE0
03FFFFC0
03FFFE00
03E00000
03E00000
03E00000
03E00000
03E00000
03E00000
03E00000
03E00000
03E00000
03E00000
03E00000
03E00000
03E00000
07E00000
07F00000
7FFF8000
FFFFC000
FFFFC000
ENDCHAR
STARTCHAR 0051
ENCODING 81
SWIDTH 940 0
DWIDTH 47 0
BBX 44 52 3 -13
BITMAP
000008000000
0003FFE00000
001FFFFC0000
007F807F0000
00FC001F8000
01F00007E000
03E00003F000
07C00001F800
0FC00000FC00
1F800000FC00
3F0000007E00
3F0000007E00
7F0000003F00
7E0000003F00
7E0000003F80
FE0000001F80
FE0000001F80
FE0000001F80
FC0000001F80
FC0000001F80
FC0000001FC0
FE0000001F80
FE0000001F80
FE0000001F80
FE0000001F80
7E0000003F80
7E0000003F00
7E0000003F00
3F0000003F00
3F0000007E00
1F8000007C00
1F800000FC00
0FC00001F800
07E00001F000
03F00007E000
01F8000FC000
00FE003F8000
003FF7FE0000
000FFFF80000
0001FFC00000
00001F000000
000078000000
0001F0000030
0007FFC00030
000FFFF80070
003E07FE00F0
003C03FFFFE0
003000FFFFE0
0000003FFFC0
0000000FFF80
00000003FF00
000000002000
ENDCHAR
STARTCHAR 0052
ENCODING 82
SWIDTH 780 0
DWIDTH 39 0
BBX 39 38 2 0
BITMAP
7FFFFC0000
7FFFFF8000
0FE03FE000
07E003F000
03E001F800
03E000FC00
03E000FC00
03E000FE00
03E000FE00
03E000FE00
03E000FE00
03E000FE00
03E000FC00
03E000FC00
03E001F800
03E003F800
03E01FF000
03FFFFC000
03FFFE0000
03EFF80000
03E1FC0000
03E0FE0000
03E07F0000
03E03F8000
03E01F8000
03E01FC000
03E00FE000
03E007F000
03E003F800
03E001FC00
03E001FE00
03E000FE00
03E0007F00
07E0003F80
07F0003FE0
7FFF801FFE
FFFFC00FFE
FFFFC007FE
ENDCHAR
STARTCHAR 0053
ENCODING 83
SWIDTH 640 0
DWIDTH 32 0
BBX 27 40 3 -1
BITMAP
00080000
00FFC200
03FFE600
07C0FE00
0F003E00
1E001E00
3E000E00
3C000E00
3C000700
3C000700
7E000300
3E000000
3F000000
3F800000
3FE00000
3FF80000
1FFE0000
0FFF8000
07FFE000
01FFF800
00FFFC00
003FFF00
0007FF80
0001FF80
00007FC0
00003FC0
00001FC0
C0000FE0
C00007E0
C00007C0
E00007C0
E00007C0
F00007C0
F8000F80
FC000F80
FE001F00
6F807E00
47FFF800
01FFE000
000C0000
ENDCHAR
STARTCHAR 0054
ENCODING 84
SWIDTH 800 0
DWIDTH 40 0
BBX 38 38 1 0
BITMAP
FFFFFFFFFC
FFFFFFFFFC
FFC7FF0FFC
F800FC007C
E000FC001C
E000FC001C
C000FC000C
C000FC000C
C000FC000C
0000FC0000
0000FC0000
0000FC0000
0000FC0000
0000FC0000
0000FC0000
0000FC0000
0000FC0000
0000FC0000
0000FC0000
0000FC0000
0000FC0000
0000FC0000
0000FC0000
0000FC0000
0000FC0000
0000FC0000
0000FC0000
0000FC0000
0000FC0000
0000FC0000
0000FC0000
0000FC0000
0000FC0000
0001FE0000
0001FF0000
003FFFF000
003FFFF800
003FFFF800
ENDCHAR
STARTCHAR 0055
ENCODING 85
SWIDTH 860 0
DWIDTH 43 0
BBX 41 39 1 -1
BITMAP
FFFFC03FFF80
FFFFC03FFF80
7FFF801FFF00
07F80001F800
07F80001F000
03F00000F000
03F00000E000
03F00000E000
03F00000E000
03F00000E000
03F00000E000
03F00000E000
03F00000E000
03F00000E000
03F00000E000
03F00000E000
03F00000E000
03F00000E000
03F00000E000
03F00000E000
03F00000E000
03F00000E000
03F00000E000
03F00000E000
03F00000E000
03F00000E000
03F00000E000
03F00000E000
03F00000E000
03F80001C000
01F80001C000
01F80001C000
01FC00038000
00FE00078000
007F801F0000
003FFFFE0000
001FFFFC0000
0007FFE00000
00001C000000
ENDCHAR
STARTCHAR 0056
ENCODING 86
SWIDTH 780 0
DWIDTH 39 0
BBX 41 39 -1 -1
BITMAP
FFFF800FFF80
FFFF800FFF80
FFFF0007FF00
1FF00000F800
0FF00000F000
07F00000F000
03F00000E000
03F80000E000
01F80001C000
01FC0001C000
00FC0001C000
00FC00038000
007E00038000
007E00070000
007F00070000
003F00060000
003F000E0000
001F800E0000
001F801C0000
001F801C0000
000FC0180000
000FC0380000
0007E0380000
0007E0700000
0003E0700000
0003F0600000
0003F0E00000
0001F8E00000
0001F9C00000
0000F9C00000
0000FD800000
0000FF800000
00007F000000
00007F000000
00003F000000
00003E000000
00001E000000
00001C000000
00001C000000
ENDCHAR
STARTCHAR 0057
ENCODING 87
SWIDTH 1180 0
DWIDTH 59 0
BBX 60 39 -1 -1
BITMAP
FFFF80FFFF00FFF0
FFFF80FFFF00FFF0
7FFF00FFFE00FFF0
0FF0001FE0001F80
07F0001FE0000F00
03F0000FE0000E00
03F00007E0000E00
01F80007F0001C00
01F80007F0001C00
00F80007F0001C00
00FC000FF0003800
00FC000FF8003800
007C001DF8003000
007E001CF8007000
007E001CFC007000
003E0038FC00E000
003F00387C00E000
003F00387E00E000
001F00707E01C000
001F80703E01C000
000F80E03E018000
000F80E03F038000
000FC0E01F038000
0007C1C01F030000
0007C1C01F870000
0007E1C00F870000
0003E3800F8E0000
0003E3800F8E0000
0003F30007CC0000
0001F70007DC0000
0001F70007DC0000
0000FE0003F80000
0000FE0003F80000
0000FC0003F00000
00007C0001F00000
00007C0001F00000
0000780001E00000
0000380000E00000
0000380000E00000
ENDCHAR
STARTCHAR 0058
ENCODING 88
SWIDTH 820 0
DWIDTH 41 0
BBX 41 38 0 0
BITMAP
7FFFC07FFE00
7FFFC07FFE00
3FFFC03FFC00
03FE0007E000
01FE0007C000
00FE00078000
007F000F0000
007F000E0000
003F801C0000
001FC03C0000
000FC0780000
000FE0700000
0007F0E00000
0003F1C00000
0001FBC00000
0001FF800000
0000FF000000
00007E000000
00003F000000
00007F800000
00007FC00000
0000EFE00000
0001E7E00000
0003C7F00000
000783F80000
000701FC0000
000E00FC0000
001C00FE0000
003C007F0000
0078003F8000
00F0003F8000
00E0001FC000
01E0000FE000
03C0000FF000
0FC0000FF800
7FF800FFFF80
FFFC00FFFF80
FFFC00FFFF80
ENDCHAR
STARTCHAR 0059
ENCODING 89
SWIDTH 740 0
DWIDTH 37 0
BBX 37 38 0 0
BITMAP
FFFF007FF8
FFFF007FF8
FFFE003FF8
1FE00007C0
0FE0000780
07E0000F00
03F0000E00
03F0001C00
01F8001C00
01FC003800
00FC003800
007E007000
007E006000
003F00E000
003F81C000
001F81C000
000FC38000
000FC70000
0007E70000
0007FE0000
0003FE0000
0001FC0000
0001F80000
0000F80000
0000F80000
0000F80000
0000F80000
0000F80000
0000F80000
0000F80000
0000F80000
0000F80000
0000F80000
0001F80000
0001FC0000
0003FE0000
003FFFC000
003FFFC000
ENDCHAR
STARTCHAR 005A
ENCODING 90
SWIDTH 780 0
DWIDTH 39 0
BBX 35 38 1 0
BITMAP
1FFFFFFFC0
1FFFFFFF80
1FF0003F00
1F00007F00
1E00007E00
1C0000FC00
180001F800
180003F800
180003F000
000007E000
00000FC000
00001FC000
00001F8000
00003F0000
00007F0000
0000FE0000
0000FC0000
0001F80000
0003F80000
0007F00000
0007E00000
000FC00000
001FC00000
003F800000
003F000000
007E000000
00FE000060
01FC000060
01F8000060
03F80000E0
07F00000E0
0FE00000E0
0FC00001E0
1FC00001E0
3F800003E0
7F00003FE0
7FFFFFFFE0
FFFFFFFFE0
ENDCHAR
STARTCHAR 005B
ENCODING 91
SWIDTH 380 0
DWIDTH 19 0
BBX 12 48 5 -7
BITMAP
FFF0
FFF0
F800
F800
F800
F800
F800
F800
F800
F800
F800
F800
F800
F800
F800
F800
F800
F800
F800
F800
F800
F800
F800
F800
F800
F800
F800
F800
F800
F800
F800
F800
F800
F800
F800
F800
F800
F800
F800
F800
F800
F800
F800
F800
F800
F800
FFF0
FFF0
ENDCHAR
STARTCHAR 005C
ENCODING 92
SWIDTH 460 0
DWIDTH 23 0
BBX 21 38 1 0
BITMAP
E00000
700000
300000
380000
380000
180000
1C0000
0C0000
0E0000
060000
070000
030000
038000
018000
01C000
01C000
00E000
00E000
007000
007000
003000
003800
001800
001C00
000C00
000E00
000E00
000700
000700
000380
000380
0001C0
0001C0
0000C0
0000E0
000060
000070
000078
ENDCHAR
STARTCHAR 005D
ENCODING 93
SWIDTH 380 0
DWIDTH 19 0
BBX 12 48 1 -7
BITMAP
FFF0
FFF0
00F0
00F0
00F0
00F0
00F0
00F0
00F0
00F0
00F0
00F0
00F0
00F0
00F0
00F0
00F0
00F0
00F0
00F0
00F0
00F0
00F0
00F0
00F0
00F0
00F0
00F0
00F0
00F0
00F0
00F0
00F0
00F0
00F0
00F0
00F0
00F0
00F0
00F0
00F0
00F0
00F0
00F0
00F0
00F0
FFF0
FFF0
ENDCHAR
STARTCHAR 005E
ENCODING 94
SWIDTH 480 0
DWIDTH 24 0
BBX 16 9 4 12
BITMAP
07E0
07E0
0FF0
1FF8
1E78
3C3C
781E
700E
E007
ENDCHAR
STARTCHAR 005F
ENCODING 95
SWIDTH 720 0
DWIDTH 36 0
BBX 28 3 4 -7
BITMAP
FFFFFFF0
FFFFFFF0
FFFFFFF0
ENDCHAR
STARTCHAR 0060
ENCODING 96
SWIDTH 280 0
DWIDTH 14 0
BBX 12 8 1 33
BITMAP
4000
F000
FC00
7E00
3F00
0F80
03C0
00F0
ENDCHAR
STARTCHAR 0061
ENCODING 97
SWIDTH 560 0
DWIDTH 28 0
BBX 26 29 2 -1
BITMAP
00100000
07FF8000
1FFFC000
3F07E000
3E03F000
7E01F000
7C01F000
3C01F000
1801F000
0001F000
0001F000
0001F000
0007F000
001FF000
00F9F000
03E1F000
0F81F000
1F01F000
3E01F000
7C01F000
7C01F000
F801F000
F803F000
F803F800
FC06F800
7E1CF880
7FF8FFC0
1FF07F00
02000800
ENDCHAR
STARTCHAR 0062
ENCODING 98
SWIDTH 660 0
DWIDTH 33 0
BBX 30 43 0 -1
BITMAP
01800000
3F800000
FF800000
7F800000
0F800000
0F800000
0F800000
0F800000
0F800000
07800000
07800000
07800000
07800000
07800000
07804000
0787FC00
078FFF00
079C1FC0
07B007E0
07E003E0
07E001F0
07C001F8
07C000F8
07C000F8
07C000FC
078000FC
0780007C
0780007C
0780007C
0780007C
0780007C
078000FC
07C000FC
07C000F8
07C000F8
07C001F8
07E001F0
07E003E0
07F007E0
067C1FC0
063FFF00
040FFC00
00004000
ENDCHAR
STARTCHAR 0063
ENCODING 99
SWIDTH 540 0
DWIDTH 27 0
BBX 23 29 2 -1
BITMAP
000200
007FF0
01FFFC
07E0FE
0F807E
1F003E
1F001E
3E0000
3E0000
7E0000
7C0000
7C0000
7C0000
FC0000
FC0000
FC0000
7C0000
7C0000
7E0000
7E0000
7E0000
3E0000
3F0004
1F8006
0F801E
07E07C
03FFF0
00FFC0
000800
ENDCHAR
STARTCHAR 0064
ENCODING 100
SWIDTH 680 0
DWIDTH 34 0
BBX 31 42 2 -1
BITMAP
000007C0
0000FFC0
0000FFC0
00000FC0
000007C0
000007C0
000007C0
000007C0
000007C0
000007C0
000007C0
000007C0
000007C0
000407C0
00FFC7C0
03FFF7C0
07E0FFC0
0F803FC0
1F001FC0
1F000FC0
3E0007C0
7E0007C0
7E0007C0
7C0007C0
7C0007C0
FC0007C0
FC0007C0
FC0007C0
FC0007C0
7C0007C0
7C0007C0
7C0007C0
7E0007C0
3E0007C0
3E000FC0
1F000FC0
1F801FC0
0FC07BE0
07FBF3FC
03FFE3FE
00FFC3FE
00040000
ENDCHAR
STARTCHAR 0065
ENCODING 101
SWIDTH 580 0
DWIDTH 29 0
BBX 24 29 2 -1
BITMAP
000200
007FE0
01FFF8
07E0FC
0F807E
1F003E
1F001F
3E001F
3E001F
7E007F
7FFFFF
7FFFFF
7C0000
FC0000
FC0000
FC0000
7C0000
7C0000
7E0000
7E0000
7E0000
3F0000
3F0002
1F8007
0FC00E
07F03C
03FFF8
00FFE0
000C00
ENDCHAR
STARTCHAR 0066
ENCODING 102
SWIDTH 420 0
DWIDTH 21 0
BBX 24 41 1 0
BITMAP
000FFE
003FFF
00783F
00F01F
01E00F
01E000
03E000
03E000
03E000
03C000
03C000
03C000
03C000
03C000
03C000
FFFFE0
FFFFE0
03C000
03C000
03C000
03C000
03C000
03C000
03C000
03C000
03C000
03C000
03C000
03C000
03C000
03C000
03C000
03C000
03C000
03C000
03E000
03E000
07E000
07F000
7FFF00
7FFF00
ENDCHAR
STARTCHAR 0067
ENCODING 103
SWIDTH 600 0
DWIDTH 30 0
BBX 28 41 2 -13
BITMAP
00100080
01FF03F0
07FFCFF0
0FC3FFF0
1F01F8F0
1F01F820
3E00F800
3E00F800
3E00F800
3E00F800
3E00F800
3E00F800
3E00F800
1F00F800
1F01F000
0F81E000
07E7C000
01FF8000
0FFC0000
1E000000
3C000000
3C000000
3F000000
3FFF8000
3FFFF000
1FFFFC00
07FFFE00
001FFF00
00003F00
7E001F80
FC000F80
F8000780
F0000780
F0000780
F0000780
F0000F00
78001F00
3E003E00
1FFFF800
07FFE000
00180000
ENDCHAR
STARTCHAR 0068
ENCODING 104
SWIDTH 680 0
DWIDTH 34 0
BBX 32 42 1 0
BITMAP
00400000
0F800000
FF800000
FF800000
1F800000
0F800000
0F800000
0F800000
0F800000
0F800000
0F800000
0F800000
0F800000
0F800000
0F801000
0F83FF00
0F8FFFC0
0F9E0FC0
0FB807E0
0FF003E0
0FE003F0
0FC001F0
0FC001F0
0FC001F0
0F8001F0
0F8001F0
0F8001F0
0F8001F0
0F8001F0
0F8001F0
0F8001F0
0F8001F0
0F8001F0
0F8001F0
0F8001F0
0F8001F0
0F8001F0
0FC001F0
0FC001F0
1FC003F8
FFFC1FFF
FFFC1FFF
ENDCHAR
STARTCHAR 0069
ENCODING 105
SWIDTH 340 0
DWIDTH 17 0
BBX 14 40 2 0
BITMAP
0700
0F80
0FC0
0FC0
0F80
0700
0000
0000
0000
0000
0000
0000
0000
0180
3F80
FF80
FF80
0F80
0F80
0F80
0F80
0F80
0F80
0F80
0F80
0F80
0F80
0F80
0F80
0F80
0F80
0F80
0F80
0F80
0F80
0FC0
0FC0
1FE0
FFFC
FFFC
ENDCHAR
STARTCHAR 006A
ENCODING 106
SWIDTH 300 0
DWIDTH 15 0
BBX 18 54 -7 -13
BITMAP
000780
000FC0
000FC0
000FC0
000FC0
000780
000000
000000
000000
000000
000000
000000
000000
0000C0
003FC0
00FFC0
00FFC0
000FC0
000FC0
0007C0
0007C0
0007C0
0007C0
0007C0
0007C0
0007C0
0007C0
0007C0
0007C0
0007C0
0007C0
0007C0
0007C0
0007C0
0007C0
0007C0
0007C0
0007C0
0007C0
0007C0
0007C0
0007C0
0007C0
000780
000780
000780
700780
F80F80
F80F00
FC0F00
7E1E00
7FFC00
1FF000
010000
ENDCHAR
STARTCHAR 006B
ENCODING 107
SWIDTH 620 0
DWIDTH 31 0
BBX 30 42 1 0
BITMAP
00400000
0F800000
FF800000
FF800000
0F800000
0F800000
0F800000
07800000
07800000
07800000
07800000
07800000
07800000
07800000
07800000
0783FFE0
0783FFE0
07803F00
07803E00
07803C00
07807800
0780E000
0781C000
07838000
07870000
078E0000
079E0000
07BF0000
07FF0000
07FF8000
07CFC000
0787E000
0783F000
0781F800
0780FC00
0780FE00
07807E00
0FC03F00
0FC01F80
1FE01FC0
FFFCFFFC
FFFCFFFC
ENDCHAR
STARTCHAR 006C
ENCODING 108
SWIDTH 320 0
DWIDTH 16 0
BBX 14 42 1 0
BITMAP
0040
0F80
FF80
FF80
1F80
0F80
0780
0780
0780
0780
0780
0780
0780
0780
0780
0780
0780
0780
0780
0780
0780
0780
0780
0780
0780
0780
0780
0780
0780
0780
0780
0780
0780
0780
0780
0780
07C0
07C0
0FC0
1FE0
FFFC
FFFC
ENDCHAR
STARTCHAR 006D
ENCODING 109
SWIDTH 1080 0
DWIDTH 54 0
BBX 51 28 2 0
BITMAP
01002000040000
1F03FF007FC000
FF0FFF81FFF000
FF1C0FC783F800
1F3807EE00F800
0FE003FC00FC00
0FE003F8007C00
0FC003F8007C00
0FC001F0007C00
0F8001F0007C00
0F8001F0007C00
0F8001F0003C00
0F8001F0003E00
0F8001F0003E00
0F8001F0003E00
0F8001F0003E00
0F8001F0003E00
0F8001F0003E00
0F8001F0003E00
0F8001F0003E00
0F8001F0003E00
0F8001F0003E00
0F8001F0003E00
0F8001F0007E00
0F8003F0007E00
1FC003F8007E00
FFF81FFF07FFE0
FFF81FFF07FFE0
ENDCHAR
STARTCHAR 006E
ENCODING 110
SWIDTH 680 0
DWIDTH 34 0
BBX 31 28 2 0
BITMAP
01002000
1F03FE00
FF0FFF80
FF3C1FC0
1F7007C0
0FE007E0
0FC003E0
0FC003E0
0F8003E0
0F8003E0
0F8003E0
0F8003E0
0F8003E0
0F8003E0
0F8003E0
0F8003E0
0F8003E0
0F8003E0
0F8003E0
0F8003E0
0F8003E0
0F8003E0
0F8003E0
0F8003E0
0F8003F0
1FC007F0
FFF83FFE
FFF83FFE
ENDCHAR
STARTCHAR 006F
ENCODING 111
SWIDTH 660 0
DWIDTH 33 0
BBX 28 29 2 -1
BITMAP
00020000
007FF000
01FFFC00
07F07E00
0FC01F00
1F800F80
1F0007C0
3E0007E0
3E0003E0
7E0003E0
7C0003F0
7C0003F0
FC0001F0
FC0001F0
FC0001F0
FC0001F0
7C0001F0
7C0003F0
7C0003F0
7E0003E0
3E0003E0
3E0007C0
1F0007C0
0F800F80
0FC01F00
03E07E00
01FFF800
007FF000
00020000
ENDCHAR
STARTCHAR 0070
ENCODING 112
SWIDTH 680 0
DWIDTH 34 0
BBX 31 40 1 -12
BITMAP
00004000
03C7FE00
7FCFFF00
FFDC1FC0
7FF807E0
0FF003F0
0FE001F0
07C001F8
07C000F8
07C000FC
07C000FC
07C0007C
07C0007C
07C0007C
07C0007E
07C0007C
07C0007C
07C0007C
07C0007C
07C000FC
07C000F8
07C000F8
07E001F0
07F003F0
07F807E0
07FE0FC0
07DFFF80
07C7FE00
07C04000
07C00000
07C00000
07C00000
07C00000
07C00000
07C00000
07C00000
0FC00000
1FE00000
FFFE0000
FFFE0000
ENDCHAR
STARTCHAR 0071
ENCODING 113
SWIDTH 660 0
DWIDTH 33 0
BBX 31 40 2 -12
BITMAP
00040000
007FC040
01FFF0C0
07E0F9C0
0FC03FC0
1F801FC0
1F000FC0
3E000FC0
3E0007C0
7E0007C0
7C0007C0
7C0007C0
7C0007C0
FC0007C0
FC0007C0
FC0007C0
FC0007C0
7C0007C0
7C0007C0
7E0007C0
7E0007C0
3E000FC0
3F000FC0
1F801FC0
0FC03FC0
07E077C0
03FFE7C0
00FFC7C0
000C07C0
000007C0
000007C0
000007C0
000007C0
000007C0
000007C0
000007C0
000007E0
00000FE0
0000FFFE
0000FFFE
ENDCHAR
STARTCHAR 0072
ENCODING 114
SWIDTH 480 0
DWIDTH 24 0
BBX 22 28 2 0
BITMAP
000020
0383F8
7F87FC
FF8FFC
7F9DF8
0FB820
0FB000
0FE000
0FE000
0FC000
0FC000
0FC000
0FC000
0F8000
0F8000
0F8000
0F8000
0F8000
0F8000
0F8000
0F8000
0F8000
0F8000
0F8000
0F8000
1FC000
FFF800
FFF800
ENDCHAR
STARTCHAR 0073
ENCODING 115
SWIDTH 460 0
DWIDTH 23 0
BBX 17 29 3 -1
BITMAP
010000
0FF200
1FFE00
3C3E00
780E00
780600
F00600
F80200
F80000
FC0000
7E0000
7F8000
3FE000
1FF000
0FFC00
03FE00
01FF00
007F00
003F80
C00F80
C00F80
C00780
E00780
F00780
F00F80
FC1F00
DFFE00
C7F800
008000
ENDCHAR
STARTCHAR 0074
ENCODING 116
SWIDTH 380 0
DWIDTH 19 0
BBX 16 33 2 -1
BITMAP
0300
0300
0700
0F00
1F00
3F00
FFFE
FFFE
1F00
1F00
1F00
1F00
1F00
1F00
1F00
1F00
1F00
1F00
1F00
1F00
1F00
1F00
1F00
1F00
1F00
1F00
1F00
1F00
1F81
0F87
0FFE
07FC
0040
ENDCHAR
STARTCHAR 0075
ENCODING 117
SWIDTH 680 0
DWIDTH 34 0
BBX 31 28 1 -1
BITMAP
FF803FE0
FF803FE0
1F800FE0
0F8003E0
0F8003E0
0F8003E0
0F8003E0
0F8003E0
0F8003E0
0F8003E0
0F8003E0
0F8003E0
0F8003E0
0F8003E0
0F8003E0
0F8003E0
0F8003E0
0F8003E0
0F8003E0
0F8007E0
0FC007E0
07C00DE0
07C019E0
07E039E0
03F071F0
01FFE1F8
00FF81FE
00080100
ENDCHAR
STARTCHAR 0076
ENCODING 118
SWIDTH 620 0
DWIDTH 31 0
BBX 30 27 0 0
BITMAP
FFFC0FFC
FFFC0FFC
1FC003F0
0FC001E0
0FC001C0
07C001C0
07E00380
03E00380
03F00380
01F00700
01F00700
01F80E00
00F80E00
00F80C00
007C1C00
007C1C00
007C3800
003E3800
003E7000
001F7000
001F6000
001FE000
000FE000
000FC000
0007C000
00078000
00078000
ENDCHAR
STARTCHAR 0077
ENCODING 119
SWIDTH 860 0
DWIDTH 43 0
BBX 41 27 1 0
BITMAP
FFF80601FF80
FFF80E01FF80
3FC00E003E00
1F801F003C00
0F801F003C00
0FC01F003800
07C03F803800
07C03F807000
07C07F807000
03E077C07000
03E067C0E000
03E0E7C0E000
01F0E3E1C000
01F1C3E1C000
01F1C3F18000
01F181F38000
00FB81F38000
00FB81FB0000
00FF00FF0000
007F00FE0000
007E00FE0000
007E007E0000
003E007C0000
003C007C0000
003C00380000
001800380000
001800380000
ENDCHAR
STARTCHAR 0078
ENCODING 120
SWIDTH 600 0
DWIDTH 30 0
BBX 30 27 0 0
BITMAP
3FFC3FF8
3FFC3FF8
0FF00FC0
07F00780
03F00700
01F80E00
00F81C00
00FC1C00
007E3800
003E7000
003FE000
001FC000
000FC000
000FC000
0007E000
000FF000
001DF000
003DF800
0038FC00
00707E00
00E03E00
01C03F00
03C01F80
07800FC0
0FC00FE0
FFF07FFC
FFF07FFC
ENDCHAR
STARTCHAR 0079
ENCODING 121
SWIDTH 640 0
DWIDTH 32 0
BBX 31 40 0 -13
BITMAP
FFF80FFE
FFF80FFE
1FE001F8
0FC000F0
0FC000F0
07C000E0
07E001E0
03E001C0
03F001C0
01F00380
01F00380
00F80700
00F80700
00FC0600
007C0E00
007C0E00
003E1C00
003E1C00
001F3800
001F3800
000FB000
000FF000
0007E000
0007E000
0007E000
0003C000
0003C000
00018000
00038000
00030000
00070000
00060000
000E0000
001C0000
01FC0000
0FF80000
0FF80000
0FF00000
0FE00000
02000000
ENDCHAR
STARTCHAR 007A
ENCODING 122
SWIDTH 560 0
DWIDTH 28 0
BBX 25 27 1 0
BITMAP
1FFFFF80
1FFFFF00
1FE07E00
1C00FC00
1800FC00
3001F800
3003F000
0003F000
0007E000
000FC000
001F8000
001F8000
003F0000
007E0000
007E0000
00FC0000
01F80000
01F80000
03F00000
07E00180
0FC00180
0FC00380
1F800300
3F000700
3F003F00
7FFFFF00
FFFFFF00
ENDCHAR
STARTCHAR 007B
ENCODING 123
SWIDTH 340 0
DWIDTH 17 0
BBX 14 49 1 -7
BITMAP
007C
01F0
03E0
03C0
07C0
07C0
0780
0780
0780
0780
0780
0780
0780
0780
0780
0780
0780
0780
0780
0780
0780
0F80
1F00
7E00
F800
3E00
1F00
0F80
0F80
0780
0780
0780
0780
0780
0780
0780
0780
0780
0780
0780
0780
0780
0780
07C0
07C0
07C0
03E0
01F8
007C
ENDCHAR
STARTCHAR 007C
ENCODING 124
SWIDTH 300 0
DWIDTH 15 0
BBX 4 53 5 -12
BITMAP
F0
F0
F0
F0
F0
F0
F0
F0
F0
F0
F0
F0
F0
F0
F0
F0
F0
F0
F0
F0
F0
F0
F0
F0
F0
F0
F0
F0
F0
F0
F0
F0
F0
F0
F0
F0
F0
F0
F0
F0
F0
F0
F0
F0
F0
F0
F0
F0
F0
F0
F0
F0
F0
ENDCHAR
STARTCHAR 007D
ENCODING 125
SWIDTH 340 0
DWIDTH 17 0
BBX 13 49 2 -7
BITMAP
F800
7E00
1F00
0F00
0F00
0F80
0F80
0F80
0F80
0F80
0F80
0F80
0F80
0F80
0F80
0F80
0F80
0F80
0F80
0780
0780
07C0
03C0
01F0
0078
01F0
07C0
07C0
0780
0F80
0F80
0F80
0F80
0F80
0F80
0F80
0F80
0F80
0F80
0F80
0F80
0F80
0F80
0F80
0F80
0F00
1F00
7E00
F800
ENDCHAR
STARTCHAR 007E
ENCODING 126
SWIDTH 560 0
DWIDTH 28 0
BBX 20 6 4 12
BITMAP
0F8030
3FF060
7FFFE0
7FFFC0
E1FFC0
C01F00
ENDCHAR
STARTCHAR 00A0
ENCODING 160
SWIDTH 280 0
DWIDTH 14 0
BBX 0 0 0 0
BITMAP
ENDCHAR
STARTCHAR 00A1
ENCODING 161
SWIDTH 300 0
DWIDTH 15 0
BBX 7 40 4 -1
BITMAP
10
7C
7E
FE
FE
7E
7C
10
00
00
38
38
38
38
38
38
38
38
38
38
38
38
38
38
38
3C
3C
3C
7C
7C
7C
7E
7E
7E
FE
FE
FE
7E
7C
10
ENDCHAR
STARTCHAR 00A2
ENCODING 162
SWIDTH 560 0
DWIDTH 28 0
BBX 23 42 3 -8
BITMAP
001C00
001C00
001C00
001C00
001C00
001C00
001C00
00FFE0
03FFF8
0FDDFC
1F1CFC
3E1C7C
3E1C3C
7C1C00
7C1C00
FC1C00
FC1C00
F81C00
F81C00
F81C00
F81C00
F81C00
F81C00
FC1C00
FC1C00
FC1C00
7C1C00
7E1C00
7E1C08
3F1C0E
1F9C3C
0FFCF8
07FFE0
01FF80
001C00
001C00
001C00
001C00
001C00
001C00
001C00
001C00
ENDCHAR
STARTCHAR 00A3
ENCODING 163
SWIDTH 680 0
DWIDTH 34 0
BBX 30 40 2 -1
BITMAP
00002000
0007FF00
001FFFC0
003E07E0
007803F0
00F001F0
01F001F0
01F000F0
01F00000
01F00000
01F00000
01F00000
01F00000
01F80000
01F80000
01F80000
01F80000
00FC0000
3FFFFF80
3FFFFF80
007C0000
007E0000
003E0000
003E0000
003E0000
003E0000
003E0000
001E0000
001E0000
001E0000
001C0000
1F1C0004
7FFC000C
FBFC003C
E07FFFF8
E07FFFF8
F0FFFFF8
FFE1FFF0
7F807FE0
08000200
ENDCHAR
STARTCHAR 00A4
ENCODING 164
SWIDTH 620 0
DWIDTH 31 0
BBX 24 24 3 1
BITMAP
600002
F07F07
79FFCE
3FF7FC
1F00F8
0E0038
1C001C
38001C
38000E
30000E
300006
700006
700006
300006
30000E
38000E
38001C
1C001C
1E0038
1F00F8
3FF7FC
79FFCE
F07F07
600002
ENDCHAR
STARTCHAR 00A5
ENCODING 165
SWIDTH 800 0
DWIDTH 40 0
BBX 38 38 1 0
BITMAP
FFFF003FFC
FFFF003FFC
7FFE003FF8
0FF00007C0
07F0000780
03F0000780
03F8000700
01F8000E00
00FC000E00
00FC001C00
007E003800
007F003800
003F007000
001F806000
001F80E000
000FC1C000
0007E1C000
0007E38000
0003F70000
0003FF0000
00FFFFFC00
00FFFFFC00
0000FC0000
0000FC0000
0000FC0000
0000FC0000
0000FC0000
00FFFFFC00
00FFFFFC00
0000FC0000
0000FC0000
0000FC0000
0000FC0000
0000FC0000
0000FC0000
0001FF0000
001FFFE000
001FFFE000
ENDCHAR
STARTCHAR 00A6
ENCODING 166
SWIDTH 300 0
DWIDTH 15 0
BBX 4 46 5 -9
BITMAP
F0
F0
F0
F0
F0
F0
F0
F0
F0
F0
F0
F0
F0
F0
F0
F0
F0
F0
F0
00
00
00
00
00
00
00
00
F0
F0
F0
F0
F0
F0
F0
F0
F0
F0
F0
F0
F0
F0
F0
F0
F0
F0
F0
ENDCHAR
STARTCHAR 00A7
ENCODING 167
SWIDTH 560 0
DWIDTH 28 0
BBX 22 50 3 -9
BITMAP
03FF00
07FFC0
1F03E0
1C01F0
3C00F0
3801F0
3801F0
3803F0
3C01F0
3C01E0
3E0000
3F0000
3FC000
1FE000
0FF800
0FFE00
0FFF00
1FFFC0
3C7FE0
701FF0
7007F8
F003F8
F000FC
F0007C
F8003C
FC003C
7E003C
7F801C
3FE03C
1FF038
0FFC70
07FFF0
01FFC0
00FFE0
003FE0
000FF0
0007F8
0001F8
7800F8
FC007C
FC007C
FC003C
FC003C
F80038
700078
700070
3C01E0
1FDFC0
0FFF80
01FE00
ENDCHAR
STARTCHAR 00A8
ENCODING 168
SWIDTH 320 0
DWIDTH 16 0
BBX 14 6 1 32
BITMAP
7838
F87C
FCFC
FCFC
F87C
7838
ENDCHAR
STARTCHAR 00A9
ENCODING 169
SWIDTH 880 0
DWIDTH 44 0
BBX 39 40 3 -1
BITMAP
0000100000
0007FF8000
001FFFF000
007E01F800
01F0003E00
03C0000F00
0780000780
0F000001C0
0E000000E0
1C01FE2070
3807FFA070
300F83E038
701E00E038
703C007018
603C00301C
E07800300C
E07800000C
C07800000C
C0F800000C
C0F800000E
C0F800000E
C0F800000C
C0F800000C
E07800000C
E07800300C
607C00201C
603C006018
703E00C038
301F81C038
3807FF8070
1C03FE00E0
0E000000E0
0F000001C0
0780000780
03C0000F00
01F0003E00
007E01FC00
001FFFF000
0007FF8000
0000300000
ENDCHAR
STARTCHAR 00AA
ENCODING 170
SWIDTH 380 0
DWIDTH 19 0
BBX 13 13 3 26
BITMAP
0400
7FC0
60C0
60E0
00E0
01E0
0EE0
38E0
70E0
E0E0
E1E0
FFE8
7C78
ENDCHAR
STARTCHAR 00AB
ENCODING 171
SWIDTH 480 0
DWIDTH 24 0
BBX 19 16 2 5
BITMAP
008040
01C0E0
038180
070380
0E0700
1E0E00
3C3E00
F87C00
783C00
3C1E00
1E0E00
0F0700
070380
0381C0
00C0C0
008040
ENDCHAR
STARTCHAR 00AC
ENCODING 172
SWIDTH 620 0
DWIDTH 31 0
BBX 23 12 4 6
BITMAP
FFFFFE
FFFFFE
000006
000006
000006
000006
000006
000006
000006
000006
000006
000006
ENDCHAR
STARTCHAR 00AD
ENCODING 173
SWIDTH 460 0
DWIDTH 23 0
BBX 15 4 4 12
BITMAP
FFFE
FFFE
FFFE
FFFE
ENDCHAR
STARTCHAR 00AE
ENCODING 174
SWIDTH 880 0
DWIDTH 44 0
BBX 39 40 3 -1
BITMAP
0000100000
0007FF8000
001FFFF000
007E01F800
01F0003E00
03C0000F00
0780000780
0F000001C0
0E7FFC00E0
1C1F0F0070
380E03C070
300E03C038
700E03C038
700E03E018
600E03E01C
E00E03C00C
E00E03C00C
C00E07800C
C00FFF000C
C00FF8000E
C00E3C000E
C00E1E000C
C00E1F000C
E00E0F800C
E00E07800C
600E03C01C
600E03E018
700F01F038
301F00F838
387FE07E70
1C000000E0
0E000000E0
0F000001C0
0780000780
03C0000F00
01F0003E00
007E01FC00
001FFFF000
0007FF8000
0000300000
ENDCHAR
STARTCHAR 00AF
ENCODING 175
SWIDTH 320 0
DWIDTH 16 0
BBX 14 2 1 35
BITMAP
FFFC
FFFC
ENDCHAR
STARTCHAR 00B0
ENCODING 176
SWIDTH 340 0
DWIDTH 17 0
BBX 12 13 3 26
BITMAP
0400
3F80
7BC0
6060
C060
8030
8030
8030
C020
C060
60C0
3FC0
1F00
ENDCHAR
STARTCHAR 00B1
ENCODING 177
SWIDTH 640 0
DWIDTH 32 0
BBX 24 30 4 5
BITMAP
001800
001800
001800
001800
001800
001800
001800
001800
001800
001800
FFFFFF
FFFFFF
001800
001800
001800
001800
001800
001800
001800
001800
001800
001800
001800
000000
000000
000000
000000
000000
FFFFFF
FFFFFF
ENDCHAR
STARTCHAR 00B2
ENCODING 178
SWIDTH 280 0
DWIDTH 14 0
BBX 11 16 2 23
BITMAP
0800
7F00
6180
C1C0
C1C0
E1C0
F1C0
2180
0380
0700
0600
0C20
1840
2040
7FC0
FFC0
ENDCHAR
STARTCHAR 00B3
ENCODING 179
SWIDTH 280 0
DWIDTH 14 0
BBX 10 16 2 23
BITMAP
0800
7F00
E180
E1C0
71C0
0180
0300
3E00
1300
0180
71C0
E1C0
C1C0
C1C0
E380
3F00
ENDCHAR
STARTCHAR 00B4
ENCODING 180
SWIDTH 280 0
DWIDTH 14 0
BBX 12 8 1 33
BITMAP
0040
01F0
03F0
07E0
0FC0
1F00
3C00
E000
ENDCHAR
STARTCHAR 00B5
ENCODING 181
SWIDTH 720 0
DWIDTH 36 0
BBX 32 40 2 -13
BITMAP
FF803FE0
FF803FE0
1F8007E0
0F8003E0
0F8003E0
0F8003E0
0F8003E0
0F8003E0
0F8003E0
0F8003E0
0F8003E0
0F8003E0
0F8003E0
0F8003E0
0F8003E0
0F8003E0
0F8003E0
0FC003E0
0FC003E0
0FC007E0
0FC007E0
0FC00FE0
0FE00DF0
0F601DF0
0F7879F0
0FBFF1FF
0F9FC1FF
0F820180
0F800000
0F800000
0FC00000
0FC00000
0FC00000
0FC00000
0FC00000
0FC00000
0FC00000
07C00000
07C00000
01000000
ENDCHAR
STARTCHAR 00B6
ENCODING 182
SWIDTH 640 0
DWIDTH 32 0
BBX 27 47 2 -9
BITMAP
00FFFFE0
07FFFFE0
0FFFFFE0
3FFE3E00
7FFE3C00
7FFE3C00
FFFE3C00
FFFE3C00
FFFE3C00
FFFE3C00
FFFE3C00
FFFE3C00
FFFE3C00
FFFE3C00
FFFE3C00
7FFE3C00
7FFE3C00
3FFE3C00
1FFE3C00
07FE3C00
000E3C00
000E3C00
000E3C00
000E3C00
000E3C00
000E3C00
000E3C00
000E3C00
000E3C00
000E3C00
000E3C00
000E3C00
000E3C00
000E3C00
000E3C00
000E3C00
000E3C00
000E3C00
000E3C00
001E3C00
001E3C00
001E3C00
001E3C00
001E3C00
003E3F00
03FE3FE0
03FE3FE0
ENDCHAR
STARTCHAR 00B7
ENCODING 183
SWIDTH 280 0
DWIDTH 14 0
BBX 6 7 4 10
BITMAP
78
FC
FC
FC
FC
FC
78
ENDCHAR
STARTCHAR 00B8
ENCODING 184
SWIDTH 240 0
DWIDTH 12 0
BBX 12 14 0 -13
BITMAP
0700
0E00
0E00
1C00
1FC0
3FE0
01F0
00F0
E0F0
F0F0
F1F0
7FE0
3FC0
0600
ENDCHAR
STARTCHAR 00B9
ENCODING 185
SWIDTH 240 0
DWIDTH 12 0
BBX 6 16 3 23
BITMAP
10
F0
30
30
30
30
30
30
30
30
30
30
30
30
38
FC
ENDCHAR
STARTCHAR 00BA
ENCODING 186
SWIDTH 380 0
DWIDTH 19 0
BBX 14 13 3 26
BITMAP
0200
1FC0
7070
7070
E038
E038
E03C
E038
E038
E038
7070
38E0
1FC0
ENDCHAR
STARTCHAR 00BB
ENCODING 187
SWIDTH 480 0
DWIDTH 24 0
BBX 18 16 4 5
BITMAP
C04000
E0E000
703000
383800
3C1C00
1E0E00
0F0F80
0787C0
0F8780
0F0F00
1E0E00
3C1C00
383800
607000
C06000
804000
ENDCHAR
STARTCHAR 00BC
ENCODING 188
SWIDTH 660 0
DWIDTH 33 0
BBX 30 39 2 0
BITMAP
00800000
0780001C
01800038
01800070
01800060
018000C0
018001C0
01800380
01800300
01800700
01800E00
01800C00
01801800
03803800
07E07000
00006000
0000E000
0001C000
00038000
00030000
00070000
000E0000
000C0000
001C0300
00380300
00700700
00600F00
00E00F00
01C01700
03801700
03802700
07004700
0E004720
0C008760
1C00FFE0
38000760
70000720
60000700
E0001F80
ENDCHAR
STARTCHAR 00BD
ENCODING 189
SWIDTH 680 0
DWIDTH 34 0
BBX 30 39 2 0
BITMAP
00800000
0780001C
01800038
01800070
01800060
018000C0
018001C0
01800380
01800300
01800700
01800E00
01800C00
01801800
03803800
07E07000
00006000
0000E000
0001C000
00038000
00030000
00070000
000E0000
000C0000
001C1F00
003831C0
007060C0
006060E0
00E060E0
01C070E0
038078C0
038001C0
07000180
0E000300
0C000700
1C000C00
38001820
70003060
60007FE0
E000FFE0
ENDCHAR
STARTCHAR 00BE
ENCODING 190
SWIDTH 680 0
DWIDTH 34 0
BBX 30 39 2 0
BITMAP
01000000
0FE0001C
18700038
18300030
0E300060
007000E0
006000C0
07800180
02600380
00300700
1C380600
1E380C00
38381C00
18303800
1C703000
0FC07000
0000E000
0000C000
00018000
00038000
00070000
00060000
000E0000
001C0100
00380300
00300300
00700700
00E00B00
00C00B00
01C01300
03803300
07002300
06004320
0E00C320
1C00FFE0
38000320
38000320
70000700
E0000FC0
ENDCHAR
STARTCHAR 00BF
ENCODING 191
SWIDTH 400 0
DWIDTH 20 0
BBX 14 40 3 -1
BITMAP
0040
01F0
03F0
03F8
03F8
03F0
01F0
0040
0000
0000
0000
0000
00E0
00E0
00E0
00E0
00E0
00E0
00E0
07E0
1FE0
3FE0
7FE0
FFE0
FC00
F000
E000
E000
E000
E000
E000
6000
7000
3820
3FF8
1FF8
0FFC
07F8
03F8
0020
ENDCHAR
STARTCHAR 00C0
ENCODING 192
SWIDTH 780 0
DWIDTH 39 0
BBX 39 48 0 0
BITMAP
000F000000
000FC00000
000FE00000
0003F80000
00007E0000
0000070000
0000000000
0000000000
0000000000
0000000000
0000380000
0000380000
0000780000
00007C0000
0000FC0000
0000FE0000
0001FE0000
0001FE0000
0001BF0000
00039F0000
00039F8000
00070F8000
00070F8000
00060FC000
000E07C000
000E07E000
001C03E000
001C03F000
001803F000
003801F000
003001F800
007FFFF800
007FFFFC00
00FFFFFC00
00E0007C00
00C0007E00
01C0007E00
01C0003F00
0380003F00
0380001F80
0380001F80
0700001FC0
0700000FC0
0F00000FE0
1F00001FF0
FFE001FFFE
FFF001FFFE
FFF001FFFE
ENDCHAR
STARTCHAR 00C1
ENCODING 193
SWIDTH 780 0
DWIDTH 39 0
BBX 39 48 0 0
BITMAP
000001C000
000007E000
00001FE000
00003F8000
0000F80000
0003800000
0000000000
0000000000
0000000000
0000000000
0000380000
0000380000
0000780000
00007C0000
0000FC0000
0000FE0000
0000FE0000
0001FE0000
0001BF0000
00039F0000
00039F8000
00070F8000
00070F8000
00060FC000
000E07C000
000E07E000
001C03E000
001C03E000
001803F000
003801F000
003001F800
007FFFF800
007FFFF800
007FFFFC00
00E0007C00
00C0007E00
01C0007E00
01C0003F00
0180003F00
0380003F00
0380001F80
0700001F80
0700001FC0
0F00000FC0
0F00000FE0
3F80001FF0
FFF001FFFE
FFF001FFFE
ENDCHAR
STARTCHAR 00C2
ENCODING 194
SWIDTH 780 0
DWIDTH 39 0
BBX 39 48 0 0
BITMAP
0000FC0000
0001FE0000
0003FF0000
0007C78000
000E01C000
0018006000
0000000000
0000000000
0000000000
0000000000
0000380000
0000380000
0000780000
00007C0000
0000FC0000
0000FE0000
0001FE0000
0001FE0000
0001BF0000
00039F0000
00039F8000
00070F8000
00070F8000
00060FC000
000E07C000
000E07E000
001C03E000
001C03F000
001803F000
003801F000
003001F800
007FFFF800
007FFFFC00
00FFFFFC00
00E0007C00
00C0007E00
01C0007E00
01C0003F00
0380003F00
0380001F80
0380001F80
0700001FC0
0700000FC0
0F00000FE0
1F00001FF0
FFE001FFFE
FFF001FFFE
FFF001FFFE
ENDCHAR
STARTCHAR 00C3
ENCODING 195
SWIDTH 780 0
DWIDTH 39 0
BBX 39 48 0 0
BITMAP
0003C03000
0007F86000
000FFFE000
001FFFE000
00187FC000
00100F8000
0000000000
0000000000
0000000000
0000000000
0000380000
0000380000
0000780000
00007C0000
0000FC0000
0000FE0000
0000FE0000
0001FE0000
0001BF0000
00039F0000
00039F8000
00070F8000
00070F8000
00060FC000
000E07C000
000E07E000
001C03E000
001C03E000
001803F000
003801F000
003001F800
007FFFF800
007FFFF800
007FFFFC00
00E0007C00
00C0007E00
01C0007E00
01C0003F00
0180003F00
0380003F00
0380001F80
0700001F80
0700001FC0
0F00000FC0
0F00000FE0
3F80001FF0
FFF001FFFE
FFF001FFFE
ENDCHAR
STARTCHAR 00C4
ENCODING 196
SWIDTH 780 0
DWIDTH 39 0
BBX 39 48 0 0
BITMAP
0007038000
000F87C000
000F87C000
000F87C000
0007038000
0000000000
0000000000
0000000000
0000000000
0000000000
0000380000
0000380000
0000780000
00007C0000
0000FC0000
0000FE0000
0001FE0000
0001FE0000
0001BF0000
00039F0000
00039F8000
00070F8000
00070F8000
00060FC000
000E07C000
000E07E000
001C03E000
001C03F000
001803F000
003801F000
003001F800
007FFFF800
007FFFFC00
00FFFFFC00
00E0007C00
00C0007E00
01C0007E00
01C0003F00
0380003F00
0380001F80
0380001F80
0700001FC0
0700000FC0
0F00000FE0
1F00001FF0
FFE001FFFE
FFF001FFFE
FFF001FFFE
ENDCHAR
STARTCHAR 00C5
ENCODING 197
SWIDTH 780 0
DWIDTH 39 0
BBX 39 48 0 0
BITMAP
0000780000
0000FC0000
0000CC0000
0000C40000
0000CC0000
0000FC0000
0000380000
0000000000
0000000000
0000000000
0000380000
0000380000
0000780000
00007C0000
0000FC0000
0000FE0000
0001FE0000
0001FE0000
0001BF0000
00039F0000
00039F8000
00070F8000
00070F8000
00060FC000
000E07C000
000E07E000
001C03E000
001C03F000
001803F000
003801F000
003001F800
007FFFF800
007FFFFC00
00FFFFFC00
00E0007C00
00C0007E00
01C0007E00
01C0003F00
0380003F00
0380001F80
0380001F80
0700001FC0
0700000FC0
0F00000FE0
1F00001FF0
FFE001FFFE
FFF001FFFE
FFF001FFFE
ENDCHAR
STARTCHAR 00C6
ENCODING 198
SWIDTH 1060 0
DWIDTH 53 0
BBX 51 38 -1 0
BITMAP
00007FFFFFFF80
00007FFFFFFF80
000007FC003F80
0000077C000780
0000077C000380
00000E7C000180
00000E7C000180
00001C7C000180
00001C7C000000
0000387C000000
0000387C000000
0000707C008000
0000707C018000
0000E07C018000
0000E07C038000
0001C07C078000
0001807DFF8000
0003807FFF8000
0003007FFF8000
0007007C1F8000
000E007C038000
000E007C018000
001FFFFC018000
001FFFFC018000
0038007C008000
0038007C000000
0070007C000000
0070007C000000
00E0007C000060
00E0007C000060
01C0007C000060
03C0007C0000E0
0380007E0000E0
0780007E0001E0
0F8000FF0003E0
1FC001FFC01FE0
FFF81FFFFFFFE0
FFF81FFFFFFFE0
ENDCHAR
STARTCHAR 00C7
ENCODING 199
SWIDTH 800 0
DWIDTH 40 0
BBX 34 52 3 -13
BITMAP
0000100000
0007FF8180
003FFFF180
00FF01FD80
01FC003F80
03F0001F80
07E0000F80
0FC0000780
1FC0000380
1F80000380
3F00000180
3F00000180
7F00000180
7E00000000
7E00000000
7E00000000
FE00000000
FE00000000
FE00000000
FE00000000
FE00000000
FE00000000
FE00000000
FE00000000
FE00000000
FE00000000
7E00000000
7F000000C0
7F000000C0
3F000001C0
3F800001C0
1F800003C0
1FC00003C0
0FE00007C0
07F0000FC0
03F8003FC0
01FF00FCC0
007FFFF0C0
001FFFC0C0
0000F00000
0000E00000
0000E00000
0001FC0000
0001FF0000
00027F0000
00000F8000
00060F8000
00070F0000
00070F0000
0007FF0000
0003FC0000
0000200000
ENDCHAR
STARTCHAR 00C8
ENCODING 200
SWIDTH 720 0
DWIDTH 36 0
BBX 32 48 2 0
BITMAP
003C0000
007E0000
003F8000
001FE000
0001F800
00001C00
00000000
00000000
00000000
00000000
7FFFFFFC
7FFFFFFC
7FF01FFC
07E0007C
07E0001C
03E0001C
03E0000C
03E0000C
03E0000C
03E00000
03E00000
03E00C00
03E00C00
03E00C00
03E01C00
03E03C00
03EFFC00
03FFFC00
03FFFC00
03E0FC00
03E03C00
03E00C00
03E00C00
03E00C00
03E00C00
03E00000
03E00000
03E00000
03E00003
03E00003
03E00003
03E00007
03E00007
07F0000F
07F8003F
0FFE00FF
FFFFFFFE
FFFFFFFE
ENDCHAR
STARTCHAR 00C9
ENCODING 201
SWIDTH 720 0
DWIDTH 36 0
BBX 32 48 2 0
BITMAP
00000700
00001F80
00007F00
0001FE00
0003E000
000E0000
00000000
00000000
00000000
00000000
7FFFFFFC
7FFFFFFC
7FF01FFC
07E0007C
07E0001C
03E0001C
03E0000C
03E0000C
03E0000C
03E00000
03E00000
03E00C00
03E00C00
03E00C00
03E01C00
03E03C00
03EFFC00
03FFFC00
03FFFC00
03E0FC00
03E03C00
03E00C00
03E00C00
03E00C00
03E00C00
03E00000
03E00000
03E00000
03E00003
03E00003
03E00003
03E00007
03E00007
07F0000F
07F8003F
0FFE00FF
FFFFFFFE
FFFFFFFE
ENDCHAR
STARTCHAR 00CA
ENCODING 202
SWIDTH 720 0
DWIDTH 36 0
BBX 32 48 2 0
BITMAP
0003F000
0007F800
000FFC00
001E3E00
00380700
00600180
00000000
00000000
00000000
00000000
7FFFFFFC
7FFFFFFC
7FF01FFC
07E0007C
07E0001C
03E0001C
03E0000C
03E0000C
03E0000C
03E00000
03E00000
03E00C00
03E00C00
03E00C00
03E01C00
03E03C00
03EFFC00
03FFFC00
03FFFC00
03E0FC00
03E03C00
03E00C00
03E00C00
03E00C00
03E00C00
03E00000
03E00000
03E00000
03E00003
03E00003
03E00003
03E00007
03E00007
07F0000F
07F8003F
0FFE00FF
FFFFFFFE
FFFFFFFE
ENDCHAR
STARTCHAR 00CB
ENCODING 203
SWIDTH 720 0
DWIDTH 36 0
BBX 32 48 2 0
BITMAP
00381C00
007C3E00
007C3E00
007C3E00
00381C00
00000000
00000000
00000000
00000000
00000000
7FFFFFFC
7FFFFFFC
7FF01FFC
07E0007C
07E0001C
03E0001C
03E0000C
03E0000C
03E0000C
03E00000
03E00000
03E00C00
03E00C00
03E00C00
03E01C00
03E03C00
03EFFC00
03FFFC00
03FFFC00
03E0FC00
03E03C00
03E00C00
03E00C00
03E00C00
03E00C00
03E00000
03E00000
03E00000
03E00003
03E00003
03E00003
03E00007
03E00007
07F0000F
07F8003F
0FFE00FF
FFFFFFFE
FFFFFFFE
ENDCHAR
STARTCHAR 00CC
ENCODING 204
SWIDTH 420 0
DWIDTH 21 0
BBX 16 48 2 0
BITMAP
7800
7E00
7F80
1FC0
03F0
001C
0000
0000
0000
0000
7FFF
7FFF
7FFF
07F0
07F0
07E0
03E0
03E0
03E0
03E0
03E0
03E0
03E0
03E0
03E0
03E0
03E0
03E0
03E0
03E0
03E0
03E0
03E0
03E0
03E0
03E0
03E0
03E0
03E0
03E0
03E0
03E0
07E0
07F0
07F0
7FFF
FFFF
FFFF
ENDCHAR
STARTCHAR 00CD
ENCODING 205
SWIDTH 420 0
DWIDTH 21 0
BBX 16 48 2 0
BITMAP
000F
003F
00FF
01FC
07E0
1C00
0000
0000
0000
0000
7FFF
7FFF
7FFF
07F0
07F0
07E0
03E0
03E0
03E0
03E0
03E0
03E0
03E0
03E0
03E0
03E0
03E0
03E0
03E0
03E0
03E0
03E0
03E0
03E0
03E0
03E0
03E0
03E0
03E0
03E0
03E0
03E0
07E0
07F0
07F0
7FFF
FFFF
FFFF
ENDCHAR
STARTCHAR 00CE
ENCODING 206
SWIDTH 420 0
DWIDTH 21 0
BBX 17 48 2 0
BITMAP
07F000
0FF800
1FFC00
3E3E00
780F00
C00380
000000
000000
000000
000000
7FFF00
7FFF00
7FFF00
07F000
07F000
07E000
03E000
03E000
03E000
03E000
03E000
03E000
03E000
03E000
03E000
03E000
03E000
03E000
03E000
03E000
03E000
03E000
03E000
03E000
03E000
03E000
03E000
03E000
03E000
03E000
03E000
03E000
03E000
07E000
07F000
0FF800
FFFF00
FFFF00
ENDCHAR
STARTCHAR 00CF
ENCODING 207
SWIDTH 420 0
DWIDTH 21 0
BBX 16 48 2 0
BITMAP
381E
3C1E
7C3F
3C1E
381E
0000
0000
0000
0000
0000
7FFF
7FFF
7FFF
07F0
07F0
07E0
03E0
03E0
03E0
03E0
03E0
03E0
03E0
03E0
03E0
03E0
03E0
03E0
03E0
03E0
03E0
03E0
03E0
03E0
03E0
03E0
03E0
03E0
03E0
03E0
03E0
03E0
07E0
07F0
07F0
7FFF
FFFF
FFFF
ENDCHAR
STARTCHAR 00D0
ENCODING 208
SWIDTH 880 0
DWIDTH 44 0
BBX 39 38 2 0
BITMAP
7FFFFE0000
7FFFFFE000
0FF01FF800
07E000FE00
03E0003F00
03E0001F80
03E0000FC0
03E00007E0
03E00003F0
03E00003F0
03E00001F8
03E00001F8
03E00000FC
03E00000FC
03E00000FE
03E00000FE
03E00000FE
3FFFE0007E
3FFFE0007E
03E000007E
03E000007E
03E000007E
03E000007E
03E00000FE
03E00000FE
03E00000FC
03E00000FC
03E00001FC
03E00001F8
03E00003F0
03E00003F0
03E00007E0
03F0000FC0
07F0001F80
07FC007F00
0FFFDFFC00
FFFFFFF000
FFFFFF0000
ENDCHAR
STARTCHAR 00D1
ENCODING 209
SWIDTH 900 0
DWIDTH 45 0
BBX 41 49 2 -1
BITMAP
0000F80C0000
0001FE180000
0003FFF80000
0007FFF80000
00061FF00000
000403E00000
000000000000
000000000000
000000000000
000000000000
7FE0000FFF80
7FF0000FFF80
7FF8000FFF80
07F80000F800
07FC0000F000
07FE0000F000
03FF00007000
03FF00007000
03FF80007000
03BFC0007000
039FE0007000
038FF0007000
038FF0007000
0387F8007000
0383FC007000
0381FE007000
0380FE007000
0380FF007000
03807F807000
03803FC07000
03801FC07000
03801FE07000
03800FF07000
038007F87000
038003F87000
038001FC7000
038001FE7000
038000FF7000
0380007FF000
0380003FF000
0380003FF000
0380001FF000
0780000FF000
07800007F000
07C00003F000
7FF80003F000
FFFC0001F000
FFFC0000F000
000000007000
ENDCHAR
STARTCHAR 00D2
ENCODING 210
SWIDTH 940 0
DWIDTH 47 0
BBX 41 49 3 -1
BITMAP
000380000000
0007E0000000
0007F8000000
0001FE000000
00001F000000
000001C00000
000000000000
000000000000
000000000000
000008000000
0003FFE00000
001FFFFC0000
007F807F0000
00FC001F8000
01F80007E000
03E00003F000
07C00001F800
0FC00000F800
1F800000FC00
3F0000007E00
3F0000007E00
7F0000003F00
7E0000003F00
7E0000003F80
FE0000003F80
FE0000001F80
FE0000001F80
FC0000001F80
FC0000001F80
FC0000001F80
FC0000001F80
FC0000001F80
FE0000001F80
FE0000001F80
7E0000003F80
7E0000003F00
7E0000003F00
3F0000003E00
3F0000007E00
1F8000007C00
0F800000FC00
0FC00001F800
07E00003F000
01F00007E000
00FC001F8000
007F007F0000
001FFFFC0000
0003FFE00000
000008000000
ENDCHAR
STARTCHAR 00D3
ENCODING 211
SWIDTH 940 0
DWIDTH 47 0
BBX 41 49 3 -1
BITMAP
000000F00000
000003F00000
000007F00000
00001FE00000
00007E000000
0000E0000000
000000000000
000000000000
000000000000
000008000000
0003FFE00000
001FFFFC0000
007F807F0000
00FC001F8000
01F80007E000
03E00003F000
07C00001F800
0FC00000F800
1F800000FC00
3F0000007E00
3F0000007E00
7F0000003F00
7E0000003F00
7E0000003F80
FE0000003F80
FE0000001F80
FE0000001F80
FC0000001F80
FC0000001F80
FC0000001F80
FC0000001F80
FC0000001F80
FE0000001F80
FE0000001F80
7E0000003F80
7E0000003F00
7E0000003F00
3F0000003E00
3F0000007E00
1F8000007C00
0F800000FC00
0FC00001F800
07E00003F000
01F00007E000
00FC001F8000
007F007F0000
001FFFFC0000
0003FFE00000
000008000000
ENDCHAR
STARTCHAR 00D4
ENCODING 212
SWIDTH 940 0
DWIDTH 47 0
BBX 41 49 3 -1
BITMAP
00007F000000
0000FF800000
0001FFC00000
0003E3E00000
000780F00000
000E00180000
000000000000
000000000000
000000000000
000008000000
0003FFE00000
001FFFFC0000
007F807F0000
00FC001F8000
01F80007E000
03E00003F000
07C00001F800
0FC00000F800
1F800000FC00
3F0000007E00
3F0000007E00
7F0000003F00
7E0000003F00
7E0000003F80
FE0000003F80
FE0000001F80
FE0000001F80
FC0000001F80
FC0000001F80
FC0000001F80
FC0000001F80
FC0000001F80
FE0000001F80
FE0000001F80
7E0000003F80
7E0000003F00
7E0000003F00
3F0000003E00
3F0000007E00
1F8000007C00
0F800000FC00
0FC00001F800
07E00003F000
01F00007E000
00FC001F8000
007F007F0000
001FFFFC0000
0003FFE00000
000008000000
ENDCHAR
STARTCHAR 00D5
ENCODING 213
SWIDTH 940 0
DWIDTH 47 0
BBX 41 49 3 -1
BITMAP
0001F0180000
0003FE180000
0007FFF80000
0007FFF00000
000E1FE00000
000C03C00000
000000000000
000000000000
000000000000
000008000000
0003FFE00000
001FFFFC0000
007F807F0000
00FC001F8000
01F80007E000
03E00003F000
07C00001F800
0FC00000F800
1F800000FC00
3F0000007E00
3F0000007E00
7F0000003F00
7E0000003F00
7E0000003F80
FE0000003F80
FE0000001F80
FE0000001F80
FC0000001F80
FC0000001F80
FC0000001F80
FC0000001F80
FC0000001F80
FE0000001F80
FE0000001F80
7E0000003F80
7E0000003F00
7E0000003F00
3F0000003E00
3F0000007E00
1F8000007C00
0F800000FC00
0FC00001F800
07E00003F000
01F00007E000
00FC001F8000
007F007F0000
001FFFFC0000
0003FFE00000
000008000000
ENDCHAR
STARTCHAR 00D6
ENCODING 214
SWIDTH 940 0
DWIDTH 47 0
BBX 41 49 3 -1
BITMAP
0001C0E00000
0003E1F00000
0003E1F00000
0003E1F00000
0001C0E00000
000000000000
000000000000
000000000000
000000000000
000008000000
0003FFE00000
001FFFFC0000
007F807F0000
00FC001F8000
01F80007E000
03E00003F000
07C00001F800
0FC00000F800
1F800000FC00
3F0000007E00
3F0000007E00
7F0000003F00
7E0000003F00
7E0000003F80
FE0000003F80
FE0000001F80
FE0000001F80
FC0000001F80
FC0000001F80
FC0000001F80
FC0000001F80
FC0000001F80
FE0000001F80
FE0000001F80
7E0000003F80
7E0000003F00
7E0000003F00
3F0000003E00
3F0000007E00
1F8000007C00
0F800000FC00
0FC00001F800
07E00003F000
01F00007E000
00FC001F8000
007F007F0000
001FFFFC0000
0003FFE00000
000008000000
ENDCHAR
STARTCHAR 00D7
ENCODING 215
SWIDTH 520 0
DWIDTH 26 0
BBX 20 19 3 7
BITMAP
600060
F000F0
3801C0
1C0380
0E0700
070E00
039C00
01F800
00F000
00F000
01F800
039C00
070E00
0E0700
1C0380
3801C0
F000E0
600060
200040
ENDCHAR
STARTCHAR 00D8
ENCODING 216
SWIDTH 940 0
DWIDTH 47 0
BBX 41 46 3 -4
BITMAP
000000000F00
000000001E00
000000001C00
000008003800
0003FFF07800
001FFFFCF000
003F807FE000
00FC001FC000
01F80007E000
03E00007F000
07C0000FF800
0FC0000EFC00
1F80001CFC00
3F00003C7E00
3F0000787E00
7F0000F03F00
7E0000E03F00
7E0001C03F80
FE0003C01F80
FE0007801F80
FE0007001F80
FC000E001F80
FC001C001F80
FC003C001F80
FC0078001F80
FC0070001F80
FE00E0001F80
FE01C0001F80
FE03C0003F80
7E0780003F00
7E0700003F00
3F0E00003E00
3F1E00007E00
1FBC00007C00
1FF80000FC00
0FF00001F800
07E00003F000
03F00007E000
03FC001F8000
07FF007F0000
071FFFFC0000
0E03FFE00000
1C0018000000
3C0000000000
780000000000
F00000000000
ENDCHAR
STARTCHAR 00D9
ENCODING 217
SWIDTH 860 0
DWIDTH 43 0
BBX 41 49 1 -1
BITMAP
0001E0000000
0003F0000000
0001FC000000
0000FF000000
00000FC00000
000000E00000
000000000000
000000000000
000000000000
000000000000
FFFFC03FFF80
FFFFC03FFF80
7FFF801FFF00
07F80001F800
07F80001F000
03F00000F000
03F00000E000
03F00000E000
03F00000E000
03F00000E000
03F00000E000
03F00000E000
03F00000E000
03F00000E000
03F00000E000
03F00000E000
03F00000E000
03F00000E000
03F00000E000
03F00000E000
03F00000E000
03F00000E000
03F00000E000
03F00000E000
03F00000E000
03F00000E000
03F00000E000
03F00000E000
03F00000E000
03F80001C000
01F80001C000
01F80001C000
01FC00038000
00FE00078000
007F801F0000
003FFFFE0000
001FFFFC0000
0007FFE00000
00001C000000
ENDCHAR
STARTCHAR 00DA
ENCODING 218
SWIDTH 860 0
DWIDTH 43 0
BBX 41 49 1 -1
BITMAP
000000380000
000000FC0000
000003F80000
00000FF00000
00001F000000
000070000000
000000000000
000000000000
000000000000
000000000000
FFFFC03FFF80
FFFFC03FFF80
7FFF801FFF00
07F80001F800
07F80001F000
03F00000F000
03F00000E000
03F00000E000
03F00000E000
03F00000E000
03F00000E000
03F00000E000
03F00000E000
03F00000E000
03F00000E000
03F00000E000
03F00000E000
03F00000E000
03F00000E000
03F00000E000
03F00000E000
03F00000E000
03F00000E000
03F00000E000
03F00000E000
03F00000E000
03F00000E000
03F00000E000
03F00000E000
03F80001C000
01F80001C000
01F80001C000
01FC00038000
00FE00078000
007F801F0000
003FFFFE0000
001FFFFC0000
0007FFE00000
00001C000000
ENDCHAR
STARTCHAR 00DB
ENCODING 219
SWIDTH 860 0
DWIDTH 43 0
BBX 41 49 1 -1
BITMAP
00001F800000
00003FC00000
00007FE00000
0000F1F00000
0001C0380000
0003000C0000
000000000000
000000000000
000000000000
000000000000
FFFFC03FFF80
FFFFC03FFF80
7FFF801FFF00
07F80001F800
07F80001F000
03F00000F000
03F00000E000
03F00000E000
03F00000E000
03F00000E000
03F00000E000
03F00000E000
03F00000E000
03F00000E000
03F00000E000
03F00000E000
03F00000E000
03F00000E000
03F00000E000
03F00000E000
03F00000E000
03F00000E000
03F00000E000
03F00000E000
03F00000E000
03F00000E000
03F00000E000
03F00000E000
03F00000E000
03F80001C000
01F80001C000
01F80001C000
01FC00038000
00FE00078000
007F801F0000
003FFFFE0000
001FFFFC0000
0007FFE00000
00001C000000
ENDCHAR
STARTCHAR 00DC
ENCODING 220
SWIDTH 860 0
DWIDTH 43 0
BBX 41 49 1 -1
BITMAP
0000E0700000
0001F0F80000
0001F0F80000
0001F0F80000
0000E0700000
000000000000
000000000000
000000000000
000000000000
000000000000
FFFFC03FFF80
FFFFC03FFF80
7FFF801FFF00
07F80001F800
07F80001F000
03F00000F000
03F00000E000
03F00000E000
03F00000E000
03F00000E000
03F00000E000
03F00000E000
03F00000E000
03F00000E000
03F00000E000
03F00000E000
03F00000E000
03F00000E000
03F00000E000
03F00000E000
03F00000E000
03F00000E000
03F00000E000
03F00000E000
03F00000E000
03F00000E000
03F00000E000
03F00000E000
03F00000E000
03F80001C000
01F80001C000
01F80001C000
01FC00038000
00FE00078000
007F801F0000
003FFFFE0000
001FFFFC0000
0007FFE00000
00001C000000
ENDCHAR
STARTCHAR 00DD
ENCODING 221
SWIDTH 740 0
DWIDTH 37 0
BBX 37 48 0 0
BITMAP
000001C000
000007E000
00001FC000
00007F8000
0000F80000
0003800000
0000000000
0000000000
0000000000
0000000000
FFFF007FF8
FFFF007FF8
FFFE003FF8
1FE00007C0
0FE0000780
07E0000F00
03F0000E00
03F0001C00
01F8001C00
01FC003800
00FC003800
007E007000
007E006000
003F00E000
003F81C000
001F81C000
000FC38000
000FC70000
0007E70000
0007FE0000
0003FE0000
0001FC0000
0001F80000
0000F80000
0000F80000
0000F80000
0000F80000
0000F80000
0000F80000
0000F80000
0000F80000
0000F80000
0000F80000
0001F80000
0001FC0000
0003FE0000
003FFFC000
003FFFC000
ENDCHAR
STARTCHAR 00DE
ENCODING 222
SWIDTH 700 0
DWIDTH 35 0
BBX 31 38 2 0
BITMAP
FFFFC000
FFFFC000
7FFF8000
07F00000
07E00000
03E00000
03E00000
03E00000
03FFFC00
03FFFF80
03F07FE0
03E007F0
03E001F8
03E001FC
03E000FC
03E000FE
03E000FE
03E000FE
03E000FE
03E000FE
03E000FE
03E000FE
03E000FC
03E001FC
03E003F8
03E007F0
03E1FFE0
03FFFF80
03FFFC00
03E00000
03E00000
03E00000
03E00000
07F00000
07F00000
7FFF8000
FFFFC000
FFFFC000
ENDCHAR
STARTCHAR 00DF
ENCODING 223
SWIDTH 660 0
DWIDTH 33 0
BBX 30 42 1 -1
BITMAP
001FF800
007FFE00
00F83F00
01E01F80
03C00F80
03C00FC0
07C00FC0
07800FC0
07800FC0
07800FC0
07800FC0
0F800FC0
0F800FC0
0F800F80
0F801F80
0F803F00
0F81FC00
0F83E000
0F83FE00
0F807F80
0F801FC0
0F8007E0
0F8007E0
0F8003F0
0F8001F0
0F8001F8
0F8001F8
0F8001F8
0F8001F8
0F8001F8
0F8001FC
0F8001F8
0F8001F8
0F8001F8
0F8001F8
0F8301F0
0F8383F0
0FC7C3E0
1FC3C7C0
FFF3FF80
FFF1FE00
00003000
ENDCHAR
STARTCHAR 00E0
ENCODING 224
SWIDTH 560 0
DWIDTH 28 0
BBX 26 41 2 -1
BITMAP
07000000
0FC00000
07E00000
03F00000
01F80000
003C0000
000E0000
00030000
00000000
00000000
00000000
00000000
00100000
07FF8000
1FFFC000
3F07E000
3E03F000
7E01F000
7C01F000
3C01F000
1801F000
0001F000
0001F000
0001F000
0007F000
001FF000
00F9F000
03E1F000
0F81F000
1F01F000
3E01F000
7C01F000
7C01F000
F801F000
F803F000
F803F800
FC06F800
7E1CF880
7FF8FFC0
1FF07F00
02000800
ENDCHAR
STARTCHAR 00E1
ENCODING 225
SWIDTH 560 0
DWIDTH 28 0
BBX 26 41 2 -1
BITMAP
0001C000
0007E000
000FC000
001F8000
003F0000
00780000
00E00000
01800000
00000000
00000000
00000000
00000000
00100000
07FF8000
1FFFC000
3F07E000
3E03F000
7E01F000
7C01F000
3C01F000
1801F000
0001F000
0001F000
0001F000
0007F000
001FF000
00F9F000
03E1F000
0F81F000
1F01F000
3E01F000
7C01F000
7C01F000
F801F000
F803F000
F803F800
FC06F800
7E1CF880
7FF8FFC0
1FF07F00
02000800
ENDCHAR
STARTCHAR 00E2
ENCODING 226
SWIDTH 560 0
DWIDTH 28 0
BBX 26 40 2 -1
BITMAP
007C0000
00FE0000
01FF0000
03EF8000
0783C000
0E01E000
18006000
00000000
00000000
00000000
00000000
00100000
07FF8000
1FFFC000
3F07E000
3E03F000
7E01F000
7C01F000
3C01F000
1801F000
0001F000
0001F000
0001F000
0007F000
001FF000
00F9F000
03E1F000
0F81F000
1F01F000
3E01F000
7C01F000
7C01F000
F801F000
F803F000
F803F800
FC06F800
7E1CF880
7FF8FFC0
1FF07F00
02000800
ENDCHAR
STARTCHAR 00E3
ENCODING 227
SWIDTH 560 0
DWIDTH 28 0
BBX 26 39 2 -1
BITMAP
03E03000
07F87000
0FFFE000
1FFFE000
187FC000
180F8000
00000000
00000000
00000000
00000000
00100000
07FF8000
1FFFC000
3F07E000
3E03F000
7E01F000
7C01F000
3C01F000
1801F000
0001F000
0001F000
0001F000
0007F000
001FF000
00F9F000
03E1F000
0F81F000
1F01F000
3E01F000
7C01F000
7C01F000
F801F000
F803F800
F803F800
FC06F800
7E1CFCC0
7FF8FF80
1FF07F00
02000800
ENDCHAR
STARTCHAR 00E4
ENCODING 228
SWIDTH 560 0
DWIDTH 28 0
BBX 26 39 2 -1
BITMAP
07838000
07C7C000
0FC7C000
0FC7C000
07C7C000
07838000
00000000
00000000
00000000
00000000
00100000
07FF8000
1FFFC000
3F07E000
3E03F000
7E01F000
7C01F000
3C01F000
1801F000
0001F000
0001F000
0001F000
0007F000
001FF000
00F9F000
03E1F000
0F81F000
1F01F000
3E01F000
7C01F000
7C01F000
F801F000
F803F000
F803F800
FC06F800
7E1CF880
7FF8FFC0
1FF07F00
02000800
ENDCHAR
STARTCHAR 00E5
ENCODING 229
SWIDTH 560 0
DWIDTH 28 0
BBX 26 42 2 -1
BITMAP
007C0000
00FE0000
00C70000
01830000
01830000
01C70000
00FE0000
007C0000
00000000
00000000
00000000
00000000
00000000
00100000
07FF8000
1FFFC000
3F07E000
3E03F000
7E01F000
7C01F000
3C01F000
1801F000
0001F000
0001F000
0001F000
0007F000
001FF000
00F9F000
03E1F000
0F81F000
1F01F000
3E01F000
7C01F000
7C01F000
F801F000
F803F000
F803F800
FC06F800
7E1CF880
7FF8FFC0
1FF07F00
02000800
ENDCHAR
STARTCHAR 00E6
ENCODING 230
SWIDTH 860 0
DWIDTH 43 0
BBX 38 29 2 -1
BITMAP
0010000800
07FF81FF80
1FFFC7FFE0
3F07EF83F0
7E03FF01F8
7E01FE00F8
7C01FE007C
3C01FC007C
0001FC007C
0001FC01FC
0001FFFFFC
0001FFFFFC
000FF80000
003FF80000
01FDF80000
07E1F80000
1FC1F80000
3F01F80000
7E01F80000
7C01FC0000
FC01FC0000
F801FC0000
F803FE0008
F8033F001C
FC073F8038
7E1E1FC0F0
3FFC07FFE0
1FF003FF80
0300001000
ENDCHAR
STARTCHAR 00E7
ENCODING 231
SWIDTH 540 0
DWIDTH 27 0
BBX 23 41 2 -13
BITMAP
000200
007FF0
01FFFC
07E0FE
0F807E
1F003E
1F001E
3E0000
3E0000
7E0000
7C0000
7C0000
7C0000
FC0000
FC0000
FC0000
7C0000
7C0000
7E0000
7E0000
7E0000
3E0000
3F0004
1F8006
0F801E
0FE07C
03FFF8
01FFE0
003C00
003800
003800
007F00
007FC0
009FC0
0003E0
0183E0
01C3C0
01C3C0
01FFC0
00FF00
000800
ENDCHAR
STARTCHAR 00E8
ENCODING 232
SWIDTH 580 0
DWIDTH 29 0
BBX 24 41 2 -1
BITMAP
007000
007C00
007E00
003F00
000F80
0003C0
0000E0
000030
000000
000000
000000
000000
000200
007FE0
01FFF8
07E0FC
0F807E
1F003E
1F001F
3E001F
3E001F
7E007F
7FFFFF
7FFFFF
7C0000
FC0000
FC0000
FC0000
7C0000
7C0000
7E0000
7E0000
7E0000
3F0000
3F0002
1F8007
0FC00E
07F03C
03FFF8
00FFE0
000C00
ENDCHAR
STARTCHAR 00E9
ENCODING 233
SWIDTH 580 0
DWIDTH 29 0
BBX 24 41 2 -1
BITMAP
000038
00007C
0000FC
0003F8
0007E0
000F80
001C00
003000
000000
000000
000000
000000
000200
007FE0
01FFF8
07E0FC
0F807E
1F003E
1F001F
3E001F
3E001F
7E001F
7FFFFF
7FFFFF
7C0000
FC0000
FC0000
FC0000
7C0000
7C0000
7E0000
7E0000
7E0000
3F0000
3F0002
1F8007
0FC00E
07F03C
03FFF8
00FFE0
000C00
ENDCHAR
STARTCHAR 00EA
ENCODING 234
SWIDTH 580 0
DWIDTH 29 0
BBX 24 40 2 -1
BITMAP
001F00
003F80
007FC0
00FBE0
01E0F0
038038
07000C
000000
000000
000000
000000
000200
007FE0
01FFF8
07E0FC
0F807E
1F003E
1F001F
3E001F
3E001F
7E007F
7FFFFF
7FFFFF
7C0000
FC0000
FC0000
FC0000
7C0000
7C0000
7E0000
7E0000
7E0000
3F0000
3F0002
1F8007
0FC00E
07F03C
03FFF8
00FFE0
000C00
ENDCHAR
STARTCHAR 00EB
ENCODING 235
SWIDTH 580 0
DWIDTH 29 0
BBX 24 39 2 -1
BITMAP
00E0F0
01F1F0
01F1F8
01F1F8
01F1F0
00E0F0
000000
000000
000000
000000
000200
007FE0
01FFF8
07E0FC
0F807E
1F003E
1F001F
3E001F
3E001F
7E007F
7FFFFF
7FFFFF
7C0000
FC0000
FC0000
FC0000
7C0000
7C0000
7E0000
7E0000
7E0000
3F0000
3F0002
1F8007
0FC00E
07F03C
03FFF8
00FFE0
000C00
ENDCHAR
STARTCHAR 00EC
ENCODING 236
SWIDTH 340 0
DWIDTH 17 0
BBX 15 40 1 0
BITMAP
F000
F800
FC00
7E00
1F00
0780
01C0
0070
0000
0000
0000
0000
0000
0040
0FC0
7FC0
7FC0
0FC0
07C0
07C0
07C0
07C0
07C0
07C0
07C0
07C0
07C0
07C0
07C0
07C0
07C0
07C0
07C0
07C0
07E0
07E0
07E0
7FFE
7FFE
7FFE
ENDCHAR
STARTCHAR 00ED
ENCODING 237
SWIDTH 340 0
DWIDTH 17 0
BBX 14 40 2 0
BITMAP
001C
007C
00FC
01F8
03E0
0780
0E00
3800
0000
0000
0000
0000
0000
0380
7F80
FF80
FF80
0F80
0F80
0F80
0F80
0F80
0F80
0F80
0F80
0F80
0F80
0F80
0F80
0F80
0F80
0F80
0F80
0F80
0F80
0FC0
0FC0
1FE0
FFFC
FFFC
ENDCHAR
STARTCHAR 00EE
ENCODING 238
SWIDTH 340 0
DWIDTH 17 0
BBX 16 39 1 0
BITMAP
07E0
0FF0
1FF8
1E78
3C3C
700E
C003
0000
0000
0000
0000
0000
01C0
3FC0
7FC0
7FC0
07C0
07C0
07C0
07C0
07C0
07C0
07C0
07C0
07C0
07C0
07C0
07C0
07C0
07C0
07C0
07C0
07C0
07C0
07E0
07E0
0FF0
7FFE
7FFE
ENDCHAR
STARTCHAR 00EF
ENCODING 239
SWIDTH 340 0
DWIDTH 17 0
BBX 14 38 2 0
BITMAP
7838
F87C
FCFC
FCFC
F87C
7838
0000
0000
0000
0000
0000
0040
1F80
FF80
FF80
1F80
0F80
0F80
0F80
0F80
0F80
0F80
0F80
0F80
0F80
0F80
0F80
0F80
0F80
0F80
0F80
0F80
0FC0
0FC0
0FC0
FFFC
FFFC
FFFC
ENDCHAR
STARTCHAR 00F0
ENCODING 240
SWIDTH 640 0
DWIDTH 32 0
BBX 27 40 2 -1
BITMAP
01800E00
03F01E00
00FC7800
003FE000
000FC000
000FE000
003DF000
00F0F800
01E0FC00
00807C00
00003E00
00003F00
00001F00
00001F80
007F0F80
01FFCF80
07FBEFC0
0FC077C0
1F803FC0
1F001FC0
3F001FE0
3E000FE0
7E000FE0
7E000FE0
7E000FE0
7E000FE0
FE000FE0
7E000FC0
7E000FC0
7E000FC0
7E000FC0
7E000F80
3F001F80
3F001F00
1F803E00
0F807E00
07E0FC00
03FFF000
00FFC000
000C0000
ENDCHAR
STARTCHAR 00F1
ENCODING 241
SWIDTH 680 0
DWIDTH 34 0
BBX 31 38 2 0
BITMAP
003E0300
007F8700
00FFFE00
01FFFE00
0187FC00
0180F800
00000000
00000000
00000000
00000000
01002000
1F03FE00
FF0FFF80
FF3C1FC0
1F7007C0
0FE007E0
0FC003E0
0FC003E0
0F8003E0
0F8003E0
0F8003E0
0F8003E0
0F8003E0
0F8003E0
0F8003E0
0F8003E0
0F8003E0
0F8003E0
0F8003E0
0F8003E0
0F8003E0
0F8003E0
0F8003E0
0F8003E0
0F8003F0
1FC007F0
FFF83FFE
FFF83FFE
ENDCHAR
STARTCHAR 00F2
ENCODING 242
SWIDTH 660 0
DWIDTH 33 0
BBX 28 41 2 -1
BITMAP
00700000
00FC0000
007E0000
003F0000
001F8000
0003C000
0000E000
00003000
00000000
00000000
00000000
00000000
00020000
007FF000
01FFFC00
07E07E00
0FC01F00
1F800F80
1F0007C0
3E0007E0
3E0003E0
7E0003E0
7C0003F0
7C0003F0
FC0001F0
FC0001F0
FC0001F0
FC0001F0
7C0001F0
7C0003F0
7C0003F0
7E0003E0
3E0003E0
3E0007C0
1F0007C0
0F800F80
0FC01F00
03F07E00
01FFF800
007FF000
00020000
ENDCHAR
STARTCHAR 00F3
ENCODING 243
SWIDTH 660 0
DWIDTH 33 0
BBX 28 41 2 -1
BITMAP
00003800
0000FC00
0001F800
0003F000
0007E000
000F0000
001C0000
00300000
00000000
00000000
00000000
00000000
00020000
007FF000
01FFFC00
07F07E00
0FC01F00
1F800F80
1F0007C0
3E0007E0
3E0003E0
7E0003E0
7C0003F0
7C0003F0
FC0001F0
FC0001F0
FC0001F0
FC0001F0
7C0001F0
7C0003F0
7C0003F0
7E0003E0
3E0003E0
3E0007C0
1F0007C0
0F800F80
0FC01F00
03E07E00
01FFF800
007FF000
00020000
ENDCHAR
STARTCHAR 00F4
ENCODING 244
SWIDTH 660 0
DWIDTH 33 0
BBX 28 40 2 -1
BITMAP
000F8000
001FC000
003FE000
007DF000
00F07800
01C03C00
03000C00
00000000
00000000
00000000
00000000
00020000
007FF000
01FFFC00
07F07E00
0FC01F00
1F800F80
1F0007C0
3E0007E0
3E0003E0
7E0003E0
7C0003F0
7C0003F0
FC0001F0
FC0001F0
FC0001F0
FC0001F0
7C0001F0
7C0003F0
7C0003F0
7E0003E0
3E0003E0
3E0007C0
1F0007C0
0F800F80
0FC01F00
03E07E00
01FFF800
007FF000
00020000
ENDCHAR
STARTCHAR 00F5
ENCODING 245
SWIDTH 660 0
DWIDTH 33 0
BBX 28 39 2 -1
BITMAP
00780400
01FF0C00
03FFFC00
03FFF800
030FF800
0601E000
00000000
00000000
00000000
00000000
00020000
007FF000
01FFFC00
07F07E00
0FC01F00
1F800F80
1F0007C0
3E0007E0
3E0003E0
7E0003E0
7C0003F0
7C0003F0
FC0001F0
FC0001F0
FC0001F0
FC0001F0
7C0001F0
7C0003F0
7C0003F0
7E0003E0
3E0003E0
3E0007C0
1F0007C0
0F800F80
0FC01F00
03E07E00
01FFF800
007FF000
00020000
ENDCHAR
STARTCHAR 00F6
ENCODING 246
SWIDTH 660 0
DWIDTH 33 0
BBX 28 39 2 -1
BITMAP
00F07000
00F8F800
01F8F800
01F8F800
00F8F800
00F07000
00000000
00000000
00000000
00000000
00020000
007FF000
01FFFC00
07F07E00
0FC01F00
1F800F80
1F0007C0
3E0007E0
3E0003E0
7E0003E0
7C0003F0
7C0003F0
FC0001F0
FC0001F0
FC0001F0
FC0001F0
7C0001F0
7C0003F0
7C0003F0
7E0003E0
3E0003E0
3E0007C0
1F0007C0
0F800F80
0FC01F00
03E07E00
01FFF800
007FF000
00020000
ENDCHAR
STARTCHAR 00F7
ENCODING 247
SWIDTH 600 0
DWIDTH 30 0
BBX 24 24 3 5
BITMAP
003C00
007E00
007E00
007E00
007E00
007E00
003C00
000000
000000
000000
000000
FFFFFF
FFFFFF
000000
000000
000000
000000
003C00
007E00
007E00
007E00
007E00
007E00
003C00
ENDCHAR
STARTCHAR 00F8
ENCODING 248
SWIDTH 660 0
DWIDTH 33 0
BBX 29 33 2 -3
BITMAP
00000038
00000070
000200F0
007FE1E0
01FFFBC0
07E07F80
0FC01F00
1F800F80
1F001FC0
3E003FC0
3E003FE0
7E0073E0
7C00F3F0
7C01E3F0
FC01C3F0
FC0381F0
FC0701F0
FC0F01F0
FC1E03F0
7C1C03F0
7C3803F0
7E7803E0
3EF003E0
3EE007C0
1FC007C0
1F800F80
0FC01F00
0FE07E00
0FFFFC00
1C7FE000
38060000
78000000
F0000000
ENDCHAR
STARTCHAR 00F9
ENCODING 249
SWIDTH 680 0
DWIDTH 34 0
BBX 31 41 1 -1
BITMAP
00F00000
00F80000
00FC0000
007E0000
001F0000
00078000
0001E000
00007000
00000000
00000000
00000000
00000000
00000000
FF803FE0
FF803FE0
1F800FE0
0F8003E0
0F8003E0
0F8003E0
0F8003E0
0F8003E0
0F8003E0
0F8003E0
0F8003E0
0F8003E0
0F8003E0
0F8003E0
0F8003E0
0F8003E0
0F8003E0
0F8003E0
0F8003E0
0F8007E0
0FC007E0
07C00DE0
07C019E0
07E039E0
03F071F0
01FFE1F8
00FF81FE
00080100
ENDCHAR
STARTCHAR 00FA
ENCODING 250
SWIDTH 680 0
DWIDTH 34 0
BBX 31 41 1 -1
BITMAP
00003800
00007C00
0000FC00
0001F800
0007E000
000F8000
001E0000
00380000
00000000
00000000
00000000
00000000
00000000
FF803FE0
FF803FE0
1F800FE0
0F8003E0
0F8003E0
0F8003E0
0F8003E0
0F8003E0
0F8003E0
0F8003E0
0F8003E0
0F8003E0
0F8003E0
0F8003E0
0F8003E0
0F8003E0
0F8003E0
0F8003E0
0F8003E0
0F8007E0
0FC007E0
07C00DE0
07C019E0
07E039E0
03F071F0
01FFE1F8
00FF81FE
00080100
ENDCHAR
STARTCHAR 00FB
ENCODING 251
SWIDTH 680 0
DWIDTH 34 0
BBX 31 40 1 -1
BITMAP
000F8000
001FC000
003FE000
007DF000
00F07800
01C01C00
03800600
00000000
00000000
00000000
00000000
00000000
FF803FE0
FF803FE0
1F800FE0
0F8003E0
0F8003E0
0F8003E0
0F8003E0
0F8003E0
0F8003E0
0F8003E0
0F8003E0
0F8003E0
0F8003E0
0F8003E0
0F8003E0
0F8003E0
0F8003E0
0F8003E0
0F8003E0
0F8007E0
0FC007E0
07C00DE0
07C019E0
07E039E0
03F071F0
01FFE1F8
00FF81FE
00080100
ENDCHAR
STARTCHAR 00FC
ENCODING 252
SWIDTH 680 0
DWIDTH 34 0
BBX 31 39 1 -1
BITMAP
00707800
00F8F800
00F8FC00
00F8FC00
00F8F800
00707800
00000000
00000000
00000000
00000000
00000000
FF803FE0
FF803FE0
1F800FE0
0F8003E0
0F8003E0
0F8003E0
0F8003E0
0F8003E0
0F8003E0
0F8003E0
0F8003E0
0F8003E0
0F8003E0
0F8003E0
0F8003E0
0F8003E0
0F8003E0
0F8003E0
0F8003E0
0F8007E0
0FC007E0
07C00DE0
07C019E0
07E039E0
03F071F0
01FFE1F8
00FF81FE
00080100
ENDCHAR
STARTCHAR 00FD
ENCODING 253
SWIDTH 640 0
DWIDTH 32 0
BBX 31 54 0 -13
BITMAP
00000200
00000F80
00001F80
00003F00
00007E00
0000F800
0001E000
00070000
00000000
00000000
00000000
00000000
00000000
00000000
FFF80FFE
FFF80FFE
1FE001F8
0FC000F0
0FC000F0
07C000E0
07E001E0
03E001C0
03F001C0
01F00380
01F00380
00F80700
00F80700
00FC0600
007C0E00
007C0E00
003E1C00
003E1C00
001F3800
001F3800
000FB000
000FF000
0007E000
0007E000
0007E000
0003C000
0003C000
00018000
00038000
00030000
00070000
00060000
000E0000
001C0000
01FC0000
0FF80000
0FF80000
0FF00000
0FE00000
02000000
ENDCHAR
STARTCHAR 00FE
ENCODING 254
SWIDTH 660 0
DWIDTH 33 0
BBX 30 54 0 -12
BITMAP
01800000
3F800000
FF800000
7F800000
0F800000
0F800000
0F800000
0F800000
0F800000
07800000
07800000
07800000
07800000
07800000
07804000
0787FC00
078FFF00
079C1FC0
07B007E0
07E003E0
07E001F0
07C001F8
07C000F8
07C000F8
07C000FC
078000FC
0780007C
0780007C
0780007C
0780007C
0780007C
078000FC
07C000FC
07C000F8
07C000F8
07C001F8
07E001F0
07E003E0
07F007E0
07FC1FC0
07DFFF00
07C7FC00
07C04000
07C00000
07C00000
07C00000
07C00000
07C00000
0FC00000
0FC00000
0FC00000
1FE00000
FFFE0000
FFFE0000
ENDCHAR
STARTCHAR 00FF
ENCODING 255
SWIDTH 640 0
DWIDTH 32 0
BBX 31 51 0 -13
BITMAP
000E0E00
001F1F00
003F1F80
003F1F80
001F1F00
000E0E00
00000000
00000000
00000000
00000000
00000000
FFF80FFE
FFF80FFE
1FE001F8
0FC000F0
0FC000F0
07C000E0
07E001E0
03E001C0
03F001C0
01F00380
01F00380
00F80700
00F80700
00FC0600
007C0E00
007C0E00
003E1C00
003E1C00
001F3800
001F3800
000FB000
000FF000
0007E000
0007E000
0007E000
0003C000
0003C000
00018000
00038000
00030000
00070000
00060000
000E0000
001C0000
01FC0000
0FF80000
0FF80000
0FF00000
0FE00000
02000000
ENDCHAR
STARTCHAR 0100
ENCODING 256
SWIDTH 780 0
DWIDTH 39 0
BBX 39 46 0 0
BITMAP
000FFFC000
000FFFC000
0000000000
0000000000
0000000000
0000000000
0000000000
0000000000
0000380000
0000380000
0000780000
00007C0000
0000FC0000
0000FE0000
0001FE0000
0001FE0000
0001BF0000
00039F0000
00039F8000
00070F8000
00070F8000
00060FC000
000E07C000
000E07E000
001C03E000
001C03F000
001803F000
003801F000
003001F800
007FFFF800
007FFFFC00
00FFFFFC00
00E0007C00
00C0007E00
01C0007E00
01C0003F00
0380003F00
0380001F80
0380001F80
0700001FC0
0700000FC0
0F00000FE0
1F00001FF0
FFE001FFFE
FFF001FFFE
FFF001FFFE
ENDCHAR
STARTCHAR 0101
ENCODING 257
SWIDTH 560 0
DWIDTH 28 0
BBX 26 38 2 -1
BITMAP
0FFFC000
0FFFC000
00000000
00000000
00000000
00000000
00000000
00000000
00000000
00100000
07FF8000
1FFFC000
3F07E000
3E03F000
7E01F000
7C01F000
3C01F000
1801F000
0001F000
0001F000
0001F000
0007F000
001FF000
00F9F000
03E1F000
0F81F000
1F01F000
3E01F000
7C01F000
7C01F000
F801F000
F803F000
F803F800
FC06F800
7E1CF880
7FF8FFC0
1FF07F00
02000800
ENDCHAR
STARTCHAR 0102
ENCODING 258
SWIDTH 780 0
DWIDTH 39 0
BBX 39 48 0 0
BITMAP
000C00C000
000E01C000
0007038000
0003FF8000
0001FF0000
0000FC0000
0000000000
0000000000
0000000000
0000000000
0000380000
0000380000
0000780000
00007C0000
0000FC0000
0000FE0000
0001FE0000
0001FE0000
0001BF0000
00039F0000
00039F8000
00070F8000
00070F8000
00060FC000
000E07C000
000E07E000
001C03E000
001C03F000
001803F000
003801F000
003001F800
007FFFF800
007FFFFC00
00FFFFFC00
00E0007C00
00C0007E00
01C0007E00
01C0003F00
0380003F00
0380001F80
0380001F80
0700001FC0
0700000FC0
0F00000FE0
1F00001FF0
FFE001FFFE
FFF001FFFE
FFF001FFFE
ENDCHAR
STARTCHAR 0103
ENCODING 259
SWIDTH 560 0
DWIDTH 28 0
BBX 26 39 2 -1
BITMAP
0E00C000
0703C000
07FF8000
03FF0000
00FC0000
00000000
00000000
00000000
00000000
00000000
00100000
07FF8000
1FFFC000
3F07E000
3E03F000
7E01F000
7C01F000
3C01F000
3801F000
0001F000
0001F000
0001F000
0007F000
001FF000
007DF000
03E1F000
07C1F000
1F01F000
3E01F000
7C01F000
7C01F000
F801F000
F803F800
F803F800
FC06F800
7E1CFCC0
7FF8FF80
1FF07F00
02000800
ENDCHAR
STARTCHAR 0104
ENCODING 260
SWIDTH 780 0
DWIDTH 39 0
BBX 39 49 0 -11
BITMAP
0000380000
0000380000
0000780000
00007C0000
0000FC0000
0000FE0000
0001FE0000
0001FE0000
0001BF0000
00039F0000
00039F8000
00070F8000
00070F8000
00060FC000
000E07C000
000E07E000
001C03E000
001C03F000
001803F000
003801F000
003001F800
007FFFF800
007FFFFC00
007FFFFC00
00E0007C00
00C0007E00
01C0007E00
01C0003F00
0380003F00
0380001F80
0380001F80
0700001FC0
0700000FC0
0F00000FE0
1F00001FF0
FFE001FFFE
FFF001FFFE
FFF001FFFE
0000000780
0000000E00
0000003C00
0000003800
0000007800
000000F000
000000F010
000000F038
000000F8F0
0000007FE0
0000003FC0
ENDCHAR
STARTCHAR 0105
ENCODING 261
SWIDTH 560 0
DWIDTH 28 0
BBX 26 39 2 -11
BITMAP
00100000
07FF8000
1FFFC000
3F07E000
3E03F000
7E01F000
7C01F000
3C01F000
1801F000
0001F000
0001F000
0001F000
0007F000
001FF000
00F9F000
03E1F000
0F81F000
1F01F000
3E01F000
7C01F000
7C01F000
F801F000
F803F000
F803F800
FC06F800
7E1CF880
7FF8FFC0
1FF07F00
02007800
0000E000
0003C000
00078000
00078000
000F0000
000F0100
000F0380
000F8F00
0007FE00
0007F800
ENDCHAR
STARTCHAR 0106
ENCODING 262
SWIDTH 800 0
DWIDTH 40 0
BBX 34 49 3 -1
BITMAP
000001E000
000007E000
00001FE000
00003F8000
0000FC0000
0003800000
0000000000
0000000000
0000000000
0000100000
0007FF8180
003FFFF180
00FF01FD80
01FC003F80
03F0001F80
07E0000F80
0FC0000780
1F80000380
1F80000380
3F00000180
3F00000180
7F00000180
7E00000000
7E00000000
FE00000000
FE00000000
FE00000000
FE00000000
FE00000000
FE00000000
FE00000000
FE00000000
FE00000000
FE00000000
FE00000000
7E00000000
7F000000C0
7F000000C0
3F000001C0
3F800001C0
1F800003C0
1FC00007C0
0FE00007C0
07F0001FC0
03FC003FC0
00FF81F8C0
007FFFF0C0
000FFF80C0
0000200000
ENDCHAR
STARTCHAR 0107
ENCODING 263
SWIDTH 540 0
DWIDTH 27 0
BBX 23 41 2 -1
BITMAP
00001C
00007C
0000FC
0001F8
0003E0
000780
001E00
000000
000000
000000
000000
000000
000200
007FF0
01FFFC
07E0FC
0F807E
1F003E
1F003E
3E001C
3E0000
7E0000
7C0000
7C0000
7C0000
FC0000
FC0000
FC0000
7C0000
7C0000
7E0000
7E0000
7E0000
3E0000
3F0000
1F8006
0F801E
07E07C
03FFF0
00FFC0
000800
ENDCHAR
STARTCHAR 0108
ENCODING 264
SWIDTH 800 0
DWIDTH 40 0
BBX 34 49 3 -1
BITMAP
0000FE0000
0001FF0000
0003FF8000
0007C7C000
000F01E000
0018007000
0000000000
0000000000
0000000000
0000100000
0007FF8180
003FFFF180
00FF01FD80
01FC003F80
03F0001F80
07E0000F80
0FC0000780
1FC0000380
1F80000380
3F00000180
3F00000180
7F00000180
7E00000000
7E00000000
FE00000000
FE00000000
FE00000000
FE00000000
FE00000000
FE00000000
FE00000000
FE00000000
FE00000000
FE00000000
FE00000000
7E00000000
7F000000C0
7F000000C0
3F000001C0
3F800001C0
1F800003C0
1FC00003C0
0FE00007C0
07F0000FC0
03F8003FC0
00FF00FCC0
007FFFF0C0
000FFF80C0
0000200000
ENDCHAR
STARTCHAR 0109
ENCODING 265
SWIDTH 540 0
DWIDTH 27 0
BBX 23 40 2 -1
BITMAP
001F80
003F80
007FC0
00FBE0
01E0F0
03C038
03000C
000000
000000
000000
000000
000200
007FF0
01FFFC
07E0FE
0F807E
1F003E
1F001E
3E0000
3E0000
7E0000
7C0000
7C0000
7C0000
FC0000
FC0000
FC0000
7C0000
7C0000
7E0000
7E0000
7E0000
3E0000
3F0004
1F8006
0F801E
07E07C
03FFF0
00FFC0
000800
ENDCHAR
STARTCHAR 010A
ENCODING 266
SWIDTH 800 0
DWIDTH 40 0
BBX 34 49 3 -1
BITMAP
0000380000
00007C0000
00007C0000
00007C0000
0000380000
0000000000
0000000000
0000000000
0000000000
0000100000
0007FF8180
003FFFF180
00FF01FD80
01FC003F80
03F0001F80
07E0000F80
0FC0000780
1FC0000380
1F80000380
3F00000180
3F00000180
7F00000180
7E00000000
7E00000000
FE00000000
FE00000000
FE00000000
FE00000000
FE00000000
FE00000000
FE00000000
FE00000000
FE00000000
FE00000000
FE00000000
7E00000000
7F000000C0
7F000000C0
3F000001C0
3F800001C0
1F800003C0
1FC00003C0
0FE00007C0
07F0000FC0
03F8003FC0
00FF00FCC0
007FFFF0C0
000FFF80C0
0000200000
ENDCHAR
STARTCHAR 010B
ENCODING 267
SWIDTH 540 0
DWIDTH 27 0
BBX 23 41 2 -1
BITMAP
000F00
001F80
001F80
001F80
001F80
000F00
000000
000000
000000
000000
000000
000000
000200
007FF0
01FFFC
07E0FE
0F807E
1F003E
1F001E
3E0000
3E0000
7E0000
7C0000
7C0000
7C0000
FC0000
FC0000
FC0000
7C0000
7C0000
7E0000
7E0000
7E0000
3E0000
3F0004
1F8006
0F801E
07E07C
03FFF0
00FFC0
000800
ENDCHAR
STARTCHAR 010C
ENCODING 268
SWIDTH 800 0
DWIDTH 40 0
BBX 34 49 3 -1
BITMAP
001E00F000
000783C000
0003EF8000
0001FF0000
0000FE0000
00007C0000
0000000000
0000000000
0000000000
0000100000
0007FF8180
003FFFF180
00FF01FD80
01FC003F80
03F0001F80
07E0000F80
0FC0000780
1F80000380
1F80000380
3F00000180
3F00000180
7F00000180
7E00000000
7E00000000
FE00000000
FE00000000
FE00000000
FE00000000
FE00000000
FE00000000
FE00000000
FE00000000
FE00000000
FE00000000
FE00000000
7E00000000
7F000000C0
7F000000C0
3F000001C0
3F800001C0
1F800003C0
1FC00007C0
0FE00007C0
07F0001FC0
03FC003FC0
00FF81F8C0
007FFFF0C0
000FFF80C0
0000200000
ENDCHAR
STARTCHAR 010D
ENCODING 269
SWIDTH 540 0
DWIDTH 27 0
BBX 23 40 2 -1
BITMAP
03801C
01E078
00F1F0
007FE0
003FC0
001F80
000000
000000
000000
000000
000000
000200
007FF0
01FFFC
07E0FC
0F807E
1F003E
1F003E
3E001C
3E0000
7E0000
7C0000
7C0000
7C0000
FC0000
FC0000
FC0000
7C0000
7C0000
7E0000
7E0000
7E0000
3E0000
3F0000
1F8006
0F801E
07E07C
03FFF0
00FFC0
000800
ENDCHAR
STARTCHAR 010E
ENCODING 270
SWIDTH 880 0
DWIDTH 44 0
BBX 39 48 2 0
BITMAP
000E007000
000781E000
0003F7C000
0001FF8000
0000FF0000
00007E0000
0000000000
0000000000
0000000000
0000000000
7FFFFE0000
7FFFFFE000
0FF01FF800
07E000FE00
03E0003F00
03E0001F80
03E0000FC0
03E00007E0
03E00003F0
03E00001F8
03E00001F8
03E00001FC
03E00000FC
03E00000FC
03E00000FE
03E00000FE
03E000007E
03E000007E
03E000007E
03E000007E
03E000007E
03E000007E
03E000007E
03E00000FE
03E00000FE
03E00000FC
03E00000FC
03E00001FC
03E00001F8
03E00001F8
03E00003F0
03E00007E0
03F0000FC0
03F0001F80
07FC007F00
0FFFDFFC00
FFFFFFF000
FFFFFF0000
ENDCHAR
STARTCHAR 010F
ENCODING 271
SWIDTH 680 0
DWIDTH 34 0
BBX 36 42 2 -1
BITMAP
000001C000
00003FC000
0000FFC040
00007FC1E0
000007C3F0
000007C3F0
000007C3F0
000007C0B0
000007C060
000007C0E0
000007C380
000007C100
000007C000
000407C000
00FFC7C000
03FFF7C000
07E0FFC000
0F803FC000
1F001FC000
1F000FC000
3E0007C000
7E0007C000
7E0007C000
7C0007C000
7C0007C000
FC0007C000
FC0007C000
FC0007C000
FC0007C000
7C0007C000
7C0007C000
7C0007C000
7E0007C000
3E0007C000
3E000FC000
1F000FC000
1F801FC000
0FC07BE000
07FBF3FC00
03FFE3FE00
00FFC3FE00
0004000000
ENDCHAR
STARTCHAR 0110
ENCODING 272
SWIDTH 880 0
DWIDTH 44 0
BBX 39 38 2 0
BITMAP
7FFFFE0000
7FFFFFE000
0FF01FF800
07E000FE00
03E0003F00
03E0001F80
03E0000FC0
03E00007E0
03E00003F0
03E00003F0
03E00001F8
03E00001F8
03E00000FC
03E00000FC
03E00000FE
03E00000FE
03E00000FE
3FFFE0007E
3FFFE0007E
03E000007E
03E000007E
03E000007E
03E000007E
03E00000FE
03E00000FE
03E00000FC
03E00000FC
03E00001FC
03E00001F8
03E00003F0
03E00003F0
03E00007E0
03F0000FC0
07F0001F80
07FC007F00
0FFFDFFC00
FFFFFFF000
FFFFFF0000
ENDCHAR
STARTCHAR 0111
ENCODING 273
SWIDTH 680 0
DWIDTH 34 0
BBX 31 42 2 -1
BITMAP
000007C0
0000FFC0
0000FFC0
00000FC0
000007C0
000007C0
000007C0
000007C0
000007C0
0000FFFC
0000FFFC
000007C0
000007C0
000407C0
00FFC7C0
03FFF7C0
07E0FFC0
0F803FC0
1F001FC0
1F000FC0
3E0007C0
7E0007C0
7E0007C0
7C0007C0
7C0007C0
FC0007C0
FC0007C0
FC0007C0
FC0007C0
7C0007C0
7C0007C0
7C0007C0
7E0007C0
3E0007C0
3E000FC0
1F000FC0
1F801FC0
0FC07BE0
07FBF3FC
03FFE3FE
00FFC3FE
00040000
ENDCHAR
STARTCHAR 0112
ENCODING 274
SWIDTH 720 0
DWIDTH 36 0
BBX 32 46 2 0
BITMAP
003FFF00
003FFF00
00000000
00000000
00000000
00000000
00000000
00000000
7FFFFFFC
7FFFFFFC
7FF01FFC
07E0007C
07E0001C
03E0001C
03E0000C
03E0000C
03E0000C
03E00000
03E00000
03E00C00
03E00C00
03E00C00
03E01C00
03E03C00
03EFFC00
03FFFC00
03FFFC00
03E0FC00
03E03C00
03E00C00
03E00C00
03E00C00
03E00C00
03E00000
03E00000
03E00000
03E00003
03E00003
03E00003
03E00007
03E00007
07F0000F
07F8003F
0FFE00FF
FFFFFFFE
FFFFFFFE
ENDCHAR
STARTCHAR 0113
ENCODING 275
SWIDTH 580 0
DWIDTH 29 0
BBX 24 38 2 -1
BITMAP
01FFF0
01FFF0
000000
000000
000000
000000
000000
000000
000000
000200
007FE0
01FFF8
07E0FC
0F807E
1F003E
1F001F
3E001F
3E001F
7E007F
7FFFFF
7FFFFF
7C0000
FC0000
FC0000
FC0000
7C0000
7C0000
7E0000
7E0000
7E0000
3F0000
3F0002
1F8007
0FC00E
07F03C
03FFF8
00FFE0
000C00
ENDCHAR
STARTCHAR 0114
ENCODING 276
SWIDTH 720 0
DWIDTH 36 0
BBX 32 48 2 0
BITMAP
00300300
00380700
001C0E00
001FFE00
000FFC00
0003F000
00000000
00000000
00000000
00000000
7FFFFFFC
7FFFFFFC
7FF01FFC
07E0007C
07E0001C
03E0001C
03E0000C
03E0000C
03E0000C
03E00000
03E00000
03E00C00
03E00C00
03E00C00
03E01C00
03E03C00
03EFFC00
03FFFC00
03FFFC00
03E0FC00
03E03C00
03E00C00
03E00C00
03E00C00
03E00C00
03E00000
03E00000
03E00000
03E00003
03E00003
03E00003
03E00007
03E00007
07F0000F
07F8003F
0FFE00FF
FFFFFFFE
FFFFFFFE
ENDCHAR
STARTCHAR 0115
ENCODING 277
SWIDTH 580 0
DWIDTH 29 0
BBX 24 39 2 -1
BITMAP
018038
01C070
00FFF0
007FE0
001F80
000000
000000
000000
000000
000000
000200
007FE0
01FFF8
07E0FC
0F807E
1F003E
1F001F
3E001F
3E001F
7E007F
7FFFFF
7FFFFF
7C0000
FC0000
FC0000
FC0000
7C0000
7C0000
7E0000
7E0000
7E0000
3F0000
3F0002
1F8007
0FC00E
07F03C
03FFF8
00FFE0
000C00
ENDCHAR
STARTCHAR 0116
ENCODING 278
SWIDTH 720 0
DWIDTH 36 0
BBX 32 48 2 0
BITMAP
0003C000
0003C000
0007E000
0007C000
0003C000
00000000
00000000
00000000
00000000
00000000
7FFFFFFC
7FFFFFFC
7FF01FFC
07E0007C
07E0001C
03E0001C
03E0000C
03E0000C
03E0000C
03E00000
03E00000
03E00C00
03E00C00
03E00C00
03E01C00
03E03C00
03EFFC00
03FFFC00
03FFFC00
03E0FC00
03E03C00
03E00C00
03E00C00
03E00C00
03E00C00
03E00000
03E00000
03E00000
03E00003
03E00003
03E00003
03E00007
03E00007
07F0000F
07F8003F
0FFE00FF
FFFFFFFE
FFFFFFFE
ENDCHAR
STARTCHAR 0117
ENCODING 279
SWIDTH 580 0
DWIDTH 29 0
BBX 24 41 2 -1
BITMAP
000E00
001F00
001F80
001F80
001F00
000E00
000000
000000
000000
000000
000000
000000
000200
007FE0
01FFF8
07E0FC
0F807E
1F003E
1F001F
3E001F
3E001F
7E007F
7FFFFF
7FFFFF
7C0000
FC0000
FC0000
FC0000
7C0000
7C0000
7E0000
7E0000
7E0000
3F0000
3F0002
1F8007
0FC00E
07F03C
03FFF8
00FFE0
000C00
ENDCHAR
STARTCHAR 0118
ENCODING 280
SWIDTH 720 0
DWIDTH 36 0
BBX 32 49 2 -11
BITMAP
7FFFFFFC
7FFFFFFC
7FF01FFC
07E0007C
07E0001C
03E0001C
03E0000C
03E0000C
03E0000C
03E00000
03E00000
03E00C00
03E00C00
03E00C00
03E01C00
03E03C00
03EFFC00
03FFFC00
03FFFC00
03E0FC00
03E03C00
03E00C00
03E00C00
03E00C00
03E00C00
03E00000
03E00000
03E00000
03E00003
03E00003
03E00003
03E00007
03E00007
07F0000F
07F8003F
7FFE00FF
FFFFFFFE
FFFFFFFE
0001C000
00078000
000F0000
001E0000
003C0000
003C0000
00780800
007C1C00
003C3C00
003FF000
001FE000
ENDCHAR
STARTCHAR 0119
ENCODING 281
SWIDTH 580 0
DWIDTH 29 0
BBX 24 39 2 -11
BITMAP
000200
007FE0
01FFF8
07E0FC
0F807E
1F003E
1F001F
3E001F
3E001F
7E001F
7FFFFF
7FFFFF
7C0000
FC0000
FC0000
FC0000
7C0000
7C0000
7C0000
7E0000
7E0000
3F0000
3F0002
1F8007
0FC00E
07F03C
03FFF8
00FFE0
001C00
007000
00E000
01E000
03C000
038000
078080
0781C0
07C380
03FF00
01FE00
ENDCHAR
STARTCHAR 011A
ENCODING 282
SWIDTH 720 0
DWIDTH 36 0
BBX 32 48 2 0
BITMAP
00700380
003C0F00
001F7E00
000FFC00
0007F800
0003F000
00000000
00000000
00000000
00000000
7FFFFFFC
7FFFFFFC
7FF01FFC
07E0007C
07E0001C
03E0001C
03E0000C
03E0000C
03E0000C
03E00000
03E00000
03E00C00
03E00C00
03E00C00
03E01C00
03E03C00
03EFFC00
03FFFC00
03FFFC00
03E0FC00
03E03C00
03E00C00
03E00C00
03E00C00
03E00C00
03E00000
03E00000
03E00000
03E00003
03E00003
03E00003
03E00007
03E00007
07F0000F
07F8003F
0FFE00FF
FFFFFFFE
FFFFFFFE
ENDCHAR
STARTCHAR 011B
ENCODING 283
SWIDTH 580 0
DWIDTH 29 0
BBX 24 40 2 -1
BITMAP
07801C
01C070
00F1F0
007FE0
003FC0
003F80
001F00
000000
000000
000000
000000
000200
007FE0
01FFF8
07E0FC
0F807E
1F003E
1F001F
3E001F
3E001F
7E001F
7FFFFF
7FFFFF
7C0000
FC0000
FC0000
FC0000
7C0000
7C0000
7E0000
7E0000
7E0000
3F0000
3F0002
1F8007
0FC00E
07F03C
03FFF8
00FFE0
000C00
ENDCHAR
STARTCHAR 011C
ENCODING 284
SWIDTH 880 0
DWIDTH 44 0
BBX 39 49 3 -1
BITMAP
0000FE0000
0001FF0000
0003FF8000
0007C7C000
000F01E000
0018007000
0000000000
0000000000
0000000000
0000100000
0007FF8180
003FFFF180
00FF01FD80
01FC003F80
03F0001F80
07E0000F80
0FC0000780
1FC0000780
1F80000380
3F00000380
3F00000380
7F00000380
7E00000000
7E00000000
FE00000000
FE00000000
FE00000000
FE00000000
FE00000000
FE00000000
FE00000000
FE00000000
FE00007FFE
FE00007FFE
FE00000FF0
7E000007F0
7F000003E0
7F000003E0
3F000003E0
3F800003E0
1F800003E0
1FC00007E0
0FE00007E0
07F0000FE0
03F8003F00
01FF00F800
007FFFE000
000FFF8000
0000600000
ENDCHAR
STARTCHAR 011D
ENCODING 285
SWIDTH 600 0
DWIDTH 30 0
BBX 28 53 2 -13
BITMAP
003E0000
007F0000
00FF8000
00FFC000
01E3C000
0380E000
0E003800
00000000
00000000
00000000
00000000
00000000
00100080
01FF03F0
07FFCFF0
0FC3FFF0
1F01F8F0
1F01F820
3E00F800
3E00F800
3E00F800
3E00F800
3E00F800
3E00F800
3E00F800
1F00F800
1F01F000
0F81E000
07E7C000
01FF8000
0FFC0000
1E000000
3C000000
3C000000
3F000000
3FFF8000
3FFFF000
1FFFFC00
07FFFE00
001FFF00
00003F00
7E001F80
FC000F80
F8000780
F0000780
F0000780
F0000780
F0000F00
78001F00
3E003E00
1FFFF800
07FFE000
00180000
ENDCHAR
STARTCHAR 011E
ENCODING 286
SWIDTH 880 0
DWIDTH 44 0
BBX 39 49 3 -1
BITMAP
000C00C000
000601C000
000783C000
0003FF8000
0001FF0000
0000FC0000
0000000000
0000000000
0000000000
0000100000
0007FF8180
003FFFF180
00FF01FD80
01FC003F80
03F0001F80
07E0000F80
0FC0000780
1FC0000780
1F80000380
3F00000380
3F00000380
7F00000380
7E00000000
7E00000000
FE00000000
FE00000000
FE00000000
FE00000000
FE00000000
FE00000000
FE00000000
FE00000000
FE00007FFE
FE00007FFE
FE00000FF0
7E000007E0
7F000003E0
7F000003E0
3F000003E0
3F800003E0
1F800003E0
1FC00007E0
0FE00007E0
07F0000FE0
03F8003F00
01FF00F800
007FFFE000
000FFF8000
0000600000
ENDCHAR
STARTCHAR 011F
ENCODING 287
SWIDTH 600 0
DWIDTH 30 0
BBX 28 51 2 -13
BITMAP
06006000
0381E000
03FFC000
01FF8000
007E0000
00000000
00000000
00000000
00000000
00000000
00100080
01FF03F0
07FFCFF0
0FC3FFF0
1F01F8F0
1F01F820
3E00F800
3E00F800
3E00F800
3E00F800
3E00F800
3E00F800
3E00F800
1F00F800
1F01F000
0F81E000
07E7C000
01FF8000
0FFC0000
1E000000
3C000000
3C000000
3F000000
3FFF8000
3FFFF000
1FFFFC00
07FFFE00
001FFF00
00003F00
7E001F80
FC000F80
F8000780
F0000780
F0000780
F0000780
F0000F00
78001F00
3E003E00
1FFFF800
07FFE000
00180000
ENDCHAR
STARTCHAR 0120
ENCODING 288
SWIDTH 880 0
DWIDTH 44 0
BBX 39 49 3 -1
BITMAP
0000380000
00007C0000
00007C0000
00007C0000
0000380000
0000000000
0000000000
0000000000
0000000000
0000100000
0007FF8180
003FFFF180
00FF01FD80
01FC003F80
03F0001F80
07E0000F80
0FC0000780
1FC0000780
1F80000380
3F00000380
3F00000380
7F00000380
7E00000000
7E00000000
FE00000000
FE00000000
FE00000000
FE00000000
FE00000000
FE00000000
FE00000000
FE00000000
FE00007FFE
FE00007FFE
FE00000FF0
7E000007F0
7F000003E0
7F000003E0
3F000003E0
3F800003E0
1F800003E0
1FC00007E0
0FE00007E0
07F0000FE0
03F8003F00
01FF00F800
007FFFE000
000FFF8000
0000600000
ENDCHAR
STARTCHAR 0121
ENCODING 289
SWIDTH 600 0
DWIDTH 30 0
BBX 28 54 2 -13
BITMAP
001C0000
003E0000
007E0000
007E0000
003E0000
001C0000
00000000
00000000
00000000
00000000
00000000
00000000
00000000
00100080
01FF03F0
07FFCFF0
0FC3FFF0
1F01F8F0
1F01F820
3E00F800
3E00F800
3E00F800
3E00F800
3E00F800
3E00F800
3E00F800
1F00F800
1F01F000
0F81E000
07E7C000
01FF8000
0FFC0000
1E000000
3C000000
3C000000
3F000000
3FFF8000
3FFFF000
1FFFFC00
07FFFE00
001FFF00
00003F00
7E001F80
FC000F80
F8000780
F0000780
F0000780
F0000780
F0000F00
78001F00
3E003E00
1FFFF800
07FFE000
00180000
ENDCHAR
STARTCHAR 0122
ENCODING 290
SWIDTH 880 0
DWIDTH 44 0
BBX 39 52 3 -13
BITMAP
0000100000
0007FF8180
003FFFF180
00FF01FD80
01FC003F80
03F0001F80
07E0000F80
0FC0000780
1FC0000780
1F80000380
3F00000380
3F00000380
7F00000380
7E00000000
7E00000000
FE00000000
FE00000000
FE00000000
FE00000000
FE00000000
FE00000000
FE00000000
FE00000000
FE00007FFE
FE00007FFE
FE00000FF0
7E000007F0
7F000003E0
7F000003E0
3F000003E0
3F800003E0
1F800003E0
1FC00007E0
0FE00007E0
07F0000FE0
03F8003F00
01FF00F800
007FFFE000
000FFF8000
0000600000
0000000000
0000000000
0000700000
0000F80000
0001F80000
0000FC0000
0000FC0000
0000180000
0000380000
0000700000
0000E00000
0000800000
ENDCHAR
STARTCHAR 0123
ENCODING 291
SWIDTH 600 0
DWIDTH 30 0
BBX 28 56 2 -13
BITMAP
00040000
000E0000
001C0000
00380000
00300000
007E0000
007E0000
007E0000
003E0000
001C0000
00000000
00000000
00000000
00000000
00000000
00100080
01FF03F0
07FFCFF0
0FC3FFF0
1F01F8F0
1F01F820
3E00F800
3E00F800
3E00F800
3E00F800
3E00F800
3E00F800
3E00F800
1F00F800
1F01F000
0F81E000
07E7C000
01FF8000
0FFC0000
1E000000
3C000000
3C000000
3F000000
3FFF8000
3FFFF000
1FFFFC00
07FFFE00
001FFF00
00003F00
7E001F80
FC000F80
F8000780
F0000780
F0000780
F0000780
F0000F00
78001F00
3E003E00
1FFFF800
07FFE000
00180000
ENDCHAR
STARTCHAR 0124
ENCODING 292
SWIDTH 920 0
DWIDTH 46 0
BBX 42 48 2 0
BITMAP
00003F000000
00007F800000
0000FFC00000
0001F1E00000
000380700000
000600180000
000000000000
000000000000
000000000000
000000000000
7FFF003FFF80
7FFF003FFF80
7FFE001FFF80
07F00003F800
07E00001F800
03E00001F800
03E00001F800
03E00001F800
03E00001F800
03E00001F800
03E00001F800
03E00001F800
03E00001F800
03E00001F800
03E00001F800
03E00001F800
03E00001F800
03FFFFFFF800
03FFFFFFF800
03FFFFFFF800
03E00001F800
03E00001F800
03E00001F800
03E00001F800
03E00001F800
03E00001F800
03E00001F800
03E00001F800
03E00001F800
03E00001F800
03E00001F800
03E00001F800
03E00001F800
07E00001F800
07F00003FC00
7FFF003FFF80
FFFF003FFFC0
FFFF003FFFC0
ENDCHAR
STARTCHAR 0125
ENCODING 293
SWIDTH 680 0
DWIDTH 34 0
BBX 32 42 1 0
BITMAP
00400000
0F800000
FF800000
FF80F800
1F81FC00
0F83FE00
0F87DF00
0F8F0780
0F9C01C0
0FB000E0
0F800000
0F800000
0F800000
0F800000
0F801000
0F83FF00
0F8FFFC0
0F9E0FC0
0FB807E0
0FF003E0
0FE003F0
0FC001F0
0FC001F0
0FC001F0
0F8001F0
0F8001F0
0F8001F0
0F8001F0
0F8001F0
0F8001F0
0F8001F0
0F8001F0
0F8001F0
0F8001F0
0F8001F0
0F8001F0
0F8001F0
0FC001F0
0FC001F0
1FC003F8
FFFC1FFF
FFFC1FFF
ENDCHAR
STARTCHAR 0126
ENCODING 294
SWIDTH 920 0
DWIDTH 46 0
BBX 42 38 2 0
BITMAP
7FFF003FFFC0
7FFF003FFFC0
7FFE001FFF80
07F00001F800
03E00001F800
03E00001F800
03E00001F800
03E00001F800
03E00001F800
3FFFFFFFFF80
3FFFFFFFFF80
03E00001F800
03E00001F800
03E00001F800
03E00001F800
03E00001F800
03E00001F800
03FFFFFFF800
03FFFFFFF800
03E00001F800
03E00001F800
03E00001F800
03E00001F800
03E00001F800
03E00001F800
03E00001F800
03E00001F800
03E00001F800
03E00001F800
03E00001F800
03E00001F800
03E00001F800
03E00001F800
07E00001F800
07F00003FC00
7FFF003FFF80
FFFF803FFFC0
FFFF803FFFC0
ENDCHAR
STARTCHAR 0127
ENCODING 295
SWIDTH 680 0
DWIDTH 34 0
BBX 32 42 1 0
BITMAP
00400000
0F800000
FF800000
FF800000
1F800000
0F800000
0F800000
0F800000
0F800000
0F800000
FFFC0000
FFFC0000
0F800000
0F800000
0F801000
0F83FF00
0F8FFFC0
0F9E0FC0
0FB807E0
0FF003E0
0FE003F0
0FC001F0
0FC001F0
0FC001F0
0F8001F0
0F8001F0
0F8001F0
0F8001F0
0F8001F0
0F8001F0
0F8001F0
0F8001F0
0F8001F0
0F8001F0
0F8001F0
0F8001F0
0F8001F0
0FC001F0
0FC001F0
1FC003F8
FFFC1FFF
FFFC1FFF
ENDCHAR
STARTCHAR 0128
ENCODING 296
SWIDTH 420 0
DWIDTH 21 0
BBX 17 48 2 0
BITMAP
1F0180
3FC380
7FFF00
FFFF00
C3FE00
C07C00
000000
000000
000000
000000
7FFF00
7FFF00
7FFF00
07F000
07F000
07E000
03E000
03E000
03E000
03E000
03E000
03E000
03E000
03E000
03E000
03E000
03E000
03E000
03E000
03E000
03E000
03E000
03E000
03E000
03E000
03E000
03E000
03E000
03E000
03E000
03E000
03E000
07E000
07F000
07F000
7FFF00
FFFF00
FFFF00
ENDCHAR
STARTCHAR 0129
ENCODING 297
SWIDTH 340 0
DWIDTH 17 0
BBX 17 38 0 0
BITMAP
1F0180
3FE180
7FFF80
7FFF00
E1FE00
C03C00
000000
000000
000000
000000
000000
000000
03E000
3FE000
3FE000
0FE000
03E000
03E000
03E000
03E000
03E000
03E000
03E000
03E000
03E000
03E000
03E000
03E000
03E000
03E000
03E000
03E000
03E000
03F000
03F000
07F800
3FFF00
3FFF00
ENDCHAR
STARTCHAR 012A
ENCODING 298
SWIDTH 420 0
DWIDTH 21 0
BBX 16 46 2 0
BITMAP
3FFE
3FFE
0000
0000
0000
0000
0000
0000
7FFF
7FFF
7FFF
07F0
07F0
07E0
03E0
03E0
03E0
03E0
03E0
03E0
03E0
03E0
03E0
03E0
03E0
03E0
03E0
03E0
03E0
03E0
03E0
03E0
03E0
03E0
03E0
03E0
03E0
03E0
03E0
03E0
07E0
07F0
07F0
7FFF
FFFF
FFFF
ENDCHAR
STARTCHAR 012B
ENCODING 299
SWIDTH 340 0
DWIDTH 17 0
BBX 14 37 2 0
BITMAP
FFFC
FFFC
0000
0000
0000
0000
0000
0000
0000
0000
0180
7F80
FF80
FF80
0F80
0F80
0F80
0F80
0F80
0F80
0F80
0F80
0F80
0F80
0F80
0F80
0F80
0F80
0F80
0F80
0F80
0FC0
0FC0
0FC0
FFFC
FFFC
FFFC
ENDCHAR
STARTCHAR 012C
ENCODING 300
SWIDTH 420 0
DWIDTH 21 0
BBX 16 48 2 0
BITMAP
6006
300E
3C1E
1FFC
0FF8
07E0
0000
0000
0000
0000
7FFF
7FFF
7FFF
07F0
07F0
07E0
03E0
03E0
03E0
03E0
03E0
03E0
03E0
03E0
03E0
03E0
03E0
03E0
03E0
03E0
03E0
03E0
03E0
03E0
03E0
03E0
03E0
03E0
03E0
03E0
03E0
03E0
07E0
07F0
07F0
7FFF
FFFF
FFFF
ENDCHAR
STARTCHAR 012D
ENCODING 301
SWIDTH 340 0
DWIDTH 17 0
BBX 14 38 2 0
BITMAP
C00C
F03C
7FF8
3FF0
0FC0
0000
0000
0000
0000
0000
0000
0040
0780
7F80
FF80
FF80
1F80
0F80
0F80
0F80
0F80
0F80
0F80
0F80
0F80
0F80
0F80
0F80
0F80
0F80
0F80
0F80
0F80
0FC0
0FC0
1FE0
FFFC
FFFC
ENDCHAR
STARTCHAR 012E
ENCODING 302
SWIDTH 420 0
DWIDTH 21 0
BBX 16 49 2 -11
BITMAP
7FFF
7FFF
7FFF
07F0
07F0
07E0
03E0
03E0
03E0
03E0
03E0
03E0
03E0
03E0
03E0
03E0
03E0
03E0
03E0
03E0
03E0
03E0
03E0
03E0
03E0
03E0
03E0
03E0
03E0
03E0
03E0
03E0
07E0
07F0
07F0
7FFF
FFFF
FFFF
0380
0F00
1E00
3C00
3800
7800
7808
781C
7C78
7FF0
3FC0
ENDCHAR
STARTCHAR 012F
ENCODING 303
SWIDTH 340 0
DWIDTH 17 0
BBX 15 51 1 -11
BITMAP
0380
07C0
07E0
07E0
07C0
0380
0000
0000
0000
0000
0000
0000
0000
00C0
1FC0
7FC0
7FC0
07C0
07C0
07C0
07C0
07C0
07C0
07C0
07C0
07C0
07C0
07C0
07C0
07C0
07C0
07C0
07C0
07C0
07C0
07E0
07E0
0FF0
7FFE
7FFE
0700
1E00
3C00
7800
F000
F000
F020
F030
F8F0
FFE0
7F80
ENDCHAR
STARTCHAR 0130
ENCODING 304
SWIDTH 420 0
DWIDTH 21 0
BBX 16 48 2 0
BITMAP
01C0
03E0
03E0
03E0
01C0
0000
0000
0000
0000
0000
7FFF
7FFF
7FFF
07F0
07F0
07E0
03E0
03E0
03E0
03E0
03E0
03E0
03E0
03E0
03E0
03E0
03E0
03E0
03E0
03E0
03E0
03E0
03E0
03E0
03E0
03E0
03E0
03E0
03E0
03E0
03E0
03E0
07E0
07F0
07F0
7FFF
FFFF
FFFF
ENDCHAR
STARTCHAR 0131
ENCODING 305
SWIDTH 340 0
DWIDTH 17 0
BBX 14 27 2 0
BITMAP
0380
FF80
FF80
FF80
0F80
0F80
0F80
0F80
0F80
0F80
0F80
0F80
0F80
0F80
0F80
0F80
0F80
0F80
0F80
0F80
0F80
0FC0
0FC0
0FC0
FFFC
FFFC
FFFC
ENDCHAR
STARTCHAR 0132
ENCODING 306
SWIDTH 800 0
DWIDTH 40 0
BBX 36 51 2 -13
BITMAP
7FFF07FFF0
7FFF07FFF0
7FFF03FFF0
07F0007F00
07F0003F00
07E0003E00
03E0003E00
03E0003E00
03E0003E00
03E0003E00
03E0003E00
03E0003E00
03E0003E00
03E0003E00
03E0003E00
03E0003E00
03E0003E00
03E0003E00
03E0003E00
03E0003E00
03E0003E00
03E0003E00
03E0003E00
03E0003E00
03E0003E00
03E0003E00
03E0003E00
03E0003E00
03E0003E00
03E0003E00
03E0003E00
03E0003E00
07E0003E00
07F0003E00
07F0003E00
7FFF003E00
FFFF003E00
FFFF003E00
0000003E00
0000003E00
0000003E00
0000003E00
0000003E00
0003803E00
0007C07C00
0007E07C00
0007E07800
0003F0F000
0003FFE000
0000FFC000
0000080000
ENDCHAR
STARTCHAR 0133
ENCODING 307
SWIDTH 640 0
DWIDTH 32 0
BBX 26 54 2 -13
BITMAP
07000780
0F800FC0
0FC00FC0
0FC00FC0
0F800FC0
07000780
00000000
00000000
00000000
00000000
00000000
00000000
00000000
00800040
1F800FC0
FF80FFC0
FF80FFC0
1F801FC0
0F800FC0
0F8007C0
0F8007C0
0F8007C0
0F8007C0
0F8007C0
0F8007C0
0F8007C0
0F8007C0
0F8007C0
0F8007C0
0F8007C0
0F8007C0
0F8007C0
0F8007C0
0F8007C0
0F8007C0
0FC007C0
0FC007C0
0FC007C0
1FE007C0
FFFC07C0
FFFC07C0
000007C0
000007C0
000007C0
00000780
00000780
00000780
00780F80
00F80F00
00FC0F00
007E1E00
007FFC00
001FF000
00010000
ENDCHAR
STARTCHAR 0134
ENCODING 308
SWIDTH 400 0
DWIDTH 20 0
BBX 24 62 -6 -13
BITMAP
0007E0
000FF0
001FF8
003FFC
00781E
00E007
000000
000000
000000
000000
000000
00FFFE
00FFFE
007FFE
000FE0
0007E0
0007E0
0007E0
0007E0
0007E0
0007E0
0007E0
0007E0
0007E0
0007E0
0007E0
0007E0
0007E0
0007E0
0007E0
0007E0
0007E0
0007E0
0007E0
0007E0
0007E0
0007E0
0007E0
0007E0
0007E0
0007E0
0007E0
0007E0
0007E0
0007E0
0007E0
0007E0
0007E0
0007E0
0007C0
0007C0
0007C0
0007C0
0007C0
3007C0
780780
FC0F80
7E0F00
7E1F00
3FFE00
1FF800
018000
ENDCHAR
STARTCHAR 0135
ENCODING 309
SWIDTH 300 0
DWIDTH 15 0
BBX 23 53 -7 -13
BITMAP
000780
000FC0
001FE0
003FF0
007C78
00F03C
01C00E
000000
000000
000000
000000
000000
000040
000FC0
00FFC0
00FFC0
001FC0
000FC0
000FC0
0007C0
0007C0
0007C0
0007C0
0007C0
0007C0
0007C0
0007C0
0007C0
0007C0
0007C0
0007C0
0007C0
0007C0
0007C0
0007C0
0007C0
0007C0
0007C0
0007C0
0007C0
0007C0
0007C0
0007C0
000780
000780
200780
F80F80
F80F00
FC0F00
7E1E00
7FFC00
1FF000
010000
ENDCHAR
STARTCHAR 0136
ENCODING 310
SWIDTH 780 0
DWIDTH 39 0
BBX 38 51 2 -13
BITMAP
7FFF03FFC0
7FFF03FFC0
7FFE03FF80
07F000FC00
07E000F800
03E000F000
03E001E000
03E003C000
03E0078000
03E00F0000
03E01E0000
03E03C0000
03E0380000
03E0700000
03E0E00000
03E1C00000
03E3C00000
03E7E00000
03EFF00000
03FFF00000
03FDF80000
03F8FC0000
03F07E0000
03E07F0000
03E03F8000
03E01FC000
03E00FE000
03E007E000
03E003F000
03E001F800
03E001FC00
03E000FE00
03E0007F00
07E0003F80
07F0003FC0
7FFF01FFF8
FFFF03FFFC
FFFF03FFFC
0000000000
0000000000
0000000000
0000700000
0000F80000
0000F80000
0000FC0000
0000FC0000
0000180000
0000380000
0000700000
0000E00000
0000400000
ENDCHAR
STARTCHAR 0137
ENCODING 311
SWIDTH 620 0
DWIDTH 31 0
BBX 30 55 1 -13
BITMAP
00400000
0F800000
FF800000
FF800000
0F800000
0F800000
0F800000
07800000
07800000
07800000
07800000
07800000
07800000
07800000
07800000
0783FFE0
0783FFE0
07803F00
07803E00
07803C00
07807800
0780E000
0781C000
07838000
07870000
078E0000
079E0000
07BF0000
07FF0000
07FF8000
07CFC000
0787E000
0783F000
0781F800
0780FC00
0780FE00
07807E00
0FC03F00
0FC01F80
1FE01FC0
FFFCFFFC
FFFCFFFC
00000000
00000000
00000000
00078000
000FC000
000FC000
000FC000
0007C000
0000C000
0001C000
00038000
000F0000
00040000
ENDCHAR
STARTCHAR 0138
ENCODING 312
SWIDTH 640 0
DWIDTH 32 0
BBX 29 28 2 0
BITMAP
01800000
3F83FFE0
FF83FFE0
FF803F00
0F803E00
0F807C00
0F80F000
0F80E000
0F81C000
0F838000
0F870000
0F8E0000
0F9C0000
0FBE0000
0FFF0000
0FFF8000
0FCFC000
0F87E000
0F83F000
0F81F800
0F81FC00
0F80FC00
0F807E00
0F803F00
0FC01F80
1FE01FC0
FFFCFFF8
FFFCFFF8
ENDCHAR
STARTCHAR 0139
ENCODING 313
SWIDTH 720 0
DWIDTH 36 0
BBX 33 48 2 0
BITMAP
000F000000
003F000000
00FF000000
01FC000000
07E0000000
1C00000000
0000000000
0000000000
0000000000
0000000000
7FFF000000
7FFF000000
7FFE000000
07F0000000
07E0000000
03E0000000
03E0000000
03E0000000
03E0000000
03E0000000
03E0000000
03E0000000
03E0000000
03E0000000
03E0000000
03E0000000
03E0000000
03E0000000
03E0000000
03E0000000
03E0000000
03E0000000
03E0000000
03E0000000
03E0000000
03E0000000
03E0000000
03E0000000
03E0000180
03E0000180
03E0000180
03E0000380
03E0000380
07F0000780
07F8000F80
0FFF00FF80
FFFFFFFF80
FFFFFFFF80
ENDCHAR
STARTCHAR 013A
ENCODING 314
SWIDTH 320 0
DWIDTH 16 0
BBX 15 48 1 0
BITMAP
001C
007E
01FE
03F8
0F80
3800
0000
0000
0F80
FF80
FF80
1F80
0F80
0780
0780
0780
0780
0780
0780
0780
0780
0780
0780
0780
0780
0780
0780
0780
0780
0780
0780
0780
0780
0780
0780
0780
0780
0780
0780
0780
0780
0780
07C0
07C0
0FC0
1FE0
FFFC
FFFC
ENDCHAR
STARTCHAR 013B
ENCODING 315
SWIDTH 720 0
DWIDTH 36 0
BBX 33 51 2 -13
BITMAP
7FFF000000
7FFF000000
7FFE000000
07F0000000
07E0000000
03E0000000
03E0000000
03E0000000
03E0000000
03E0000000
03E0000000
03E0000000
03E0000000
03E0000000
03E0000000
03E0000000
03E0000000
03E0000000
03E0000000
03E0000000
03E0000000
03E0000000
03E0000000
03E0000000
03E0000000
03E0000000
03E0000000
03E0000000
03E0000180
03E0000180
03E0000180
03E0000380
03E0000380
07F0000780
07F8000F80
0FFF00FF80
FFFFFFFF80
FFFFFFFF80
0000000000
0000000000
0000000000
0001E00000
0003F00000
0003F00000
0003F00000
0001F00000
0000700000
0000600000
0000E00000
0003800000
0001000000
ENDCHAR
STARTCHAR 013C
ENCODING 316
SWIDTH 320 0
DWIDTH 16 0
BBX 14 55 1 -13
BITMAP
0040
0F80
FF80
FF80
1F80
0F80
0780
0780
0780
0780
0780
0780
0780
0780
0780
0780
0780
0780
0780
0780
0780
0780
0780
0780
0780
0780
0780
0780
0780
0780
0780
0780
0780
0780
0780
0780
07C0
07C0
0FC0
1FE0
FFFC
FFFC
0000
0000
0000
0780
0FC0
0FC0
0FC0
07C0
01C0
0180
0380
0F00
0400
ENDCHAR
STARTCHAR 013D
ENCODING 317
SWIDTH 720 0
DWIDTH 36 0
BBX 33 48 2 0
BITMAP
E007800000
3C1E000000
1F7C000000
0FF8000000
07F0000000
03E0000000
0000000000
0000000000
0000000000
0000000000
7FFF000000
7FFF000000
7FFE000000
07F0000000
07E0000000
03E0000000
03E0000000
03E0000000
03E0000000
03E0000000
03E0000000
03E0000000
03E0000000
03E0000000
03E0000000
03E0000000
03E0000000
03E0000000
03E0000000
03E0000000
03E0000000
03E0000000
03E0000000
03E0000000
03E0000000
03E0000000
03E0000000
03E0000000
03E0000180
03E0000180
03E0000180
03E0000380
03E0000380
07F0000780
07F8000F80
0FFF00FF80
FFFFFFFF80
FFFFFFFF80
ENDCHAR
STARTCHAR 013E
ENCODING 318
SWIDTH 320 0
DWIDTH 16 0
BBX 20 41 1 0
BITMAP
018000
3F8000
FF8080
FF83E0
0F83E0
0787E0
0783F0
078160
078060
0780E0
0781C0
078380
078200
078000
078000
078000
078000
078000
078000
078000
078000
078000
078000
078000
078000
078000
078000
078000
078000
078000
078000
078000
078000
078000
078000
07C000
07C000
0FC000
1FE000
FFFC00
FFFC00
ENDCHAR
STARTCHAR 013F
ENCODING 319
SWIDTH 720 0
DWIDTH 36 0
BBX 33 38 2 0
BITMAP
7FFF000000
7FFF000000
7FFE000000
07F0000000
07E0000000
03E0000000
03E0000000
03E0000000
03E0000000
03E0000000
03E0000000
03E0000000
03E0000000
03E0000000
03E01E0000
03E03F0000
03E03F0000
03E03F0000
03E03F0000
03E03F0000
03E01E0000
03E0000000
03E0000000
03E0000000
03E0000000
03E0000000
03E0000000
03E0000000
03E0000180
03E0000180
03E0000180
03E0000380
03E0000380
07F0000780
07F8000F80
0FFF00FF80
FFFFFFFF80
FFFFFFFF80
ENDCHAR
STARTCHAR 0140
ENCODING 320
SWIDTH 400 0
DWIDTH 20 0
BBX 20 42 1 0
BITMAP
004000
0F8000
FF8000
FF8000
1F8000
0F8000
078000
078000
078000
078000
078000
078000
078000
078000
078000
078000
078000
078000
0781E0
0783F0
0783F0
0783F0
0783F0
0783F0
0781E0
078000
078000
078000
078000
078000
078000
078000
078000
078000
078000
078000
07C000
07C000
0FC000
1FE000
FFFC00
FFFC00
ENDCHAR
STARTCHAR 0141
ENCODING 321
SWIDTH 720 0
DWIDTH 36 0
BBX 33 38 2 0
BITMAP
7FFF000000
7FFF000000
7FFF000000
07F0000000
07E0000000
03E0000000
03E0000000
03E0000000
03E0000000
03E0000000
03E0000000
03E0000000
03E0400000
03E1C00000
03E3C00000
03EF800000
03FE000000
03FC000000
03F0000000
03E0000000
0FE0000000
3FE0000000
7BE0000000
73E0000000
43E0000000
03E0000000
03E0000000
03E0000000
03E0000180
03E0000180
03E0000180
03E0000380
03E0000380
03F0000780
07F8000F80
0FFF00FF80
FFFFFFFF80
FFFFFFFF80
ENDCHAR
STARTCHAR 0142
ENCODING 322
SWIDTH 320 0
DWIDTH 16 0
BBX 14 42 1 0
BITMAP
0040
0FC0
FFC0
FFC0
0FC0
0FC0
07C0
07C0
07C0
07C0
07C0
07C0
07C0
07C0
07C0
07C0
07C0
07C8
07F8
07F8
07F0
07E0
0FC0
3FC0
7FC0
77C0
67C0
87C0
07C0
07C0
07C0
07C0
07C0
07C0
07C0
07C0
07C0
07C0
0FC0
1FE0
FFFC
FFFC
ENDCHAR
STARTCHAR 0143
ENCODING 323
SWIDTH 900 0
DWIDTH 45 0
BBX 41 49 2 -1
BITMAP
000000700000
000001F80000
000007F80000
00000FE00000
00003F000000
0000E0000000
000000000000
000000000000
000000000000
000000000000
7FE0000FFF80
7FF0000FFF80
7FF8000FFF80
07F80000F800
07FC0000F000
07FE0000F000
03FF00007000
03FF00007000
03FF80007000
03BFC0007000
039FE0007000
038FF0007000
038FF0007000
0387F8007000
0383FC007000
0381FE007000
0380FE007000
0380FF007000
03807F807000
03803FC07000
03801FC07000
03801FE07000
03800FF07000
038007F87000
038003F87000
038001FC7000
038001FE7000
038000FF7000
0380007FF000
0380003FF000
0380003FF000
0380001FF000
0780000FF000
07800007F000
07C00003F000
7FF80003F000
FFFC0001F000
FFFC0000F000
000000007000
ENDCHAR
STARTCHAR 0144
ENCODING 324
SWIDTH 680 0
DWIDTH 34 0
BBX 31 40 2 0
BITMAP
00001C00
00003E00
00007E00
0000FC00
0003F000
0007C000
000F0000
001C0000
00000000
00000000
00000000
00000000
01002000
1F03FE00
FF0FFF80
FF3C1FC0
1F7007C0
0FE007E0
0FC003E0
0FC003E0
0F8003E0
0F8003E0
0F8003E0
0F8003E0
0F8003E0
0F8003E0
0F8003E0
0F8003E0
0F8003E0
0F8003E0
0F8003E0
0F8003E0
0F8003E0
0F8003E0
0F8003E0
0F8003E0
0F8003F0
1FC007F0
FFF83FFE
FFF83FFE
ENDCHAR
STARTCHAR 0145
ENCODING 325
SWIDTH 900 0
DWIDTH 45 0
BBX 41 51 2 -13
BITMAP
7FE0000FFF80
7FF0000FFF80
7FF8000FFF80
07F80000F800
07FC0000F000
07FE0000F000
03FF00007000
03FF00007000
03FF80007000
03BFC0007000
039FE0007000
038FF0007000
038FF0007000
0387F8007000
0383FC007000
0381FE007000
0380FE007000
0380FF007000
03807F807000
03803FC07000
03801FC07000
03801FE07000
03800FF07000
038007F87000
038003F87000
038001FC7000
038001FE7000
038000FF7000
0380007FF000
0380003FF000
0380003FF000
0380001FF000
0780000FF000
07800007F000
07C00003F000
7FF80003F000
FFFC0001F000
FFFC0000F000
000000007000
000000000000
000000000000
00001E000000
00003E000000
00003F000000
00003F000000
00001F000000
000007000000
000006000000
00000C000000
000038000000
000010000000
ENDCHAR
STARTCHAR 0146
ENCODING 326
SWIDTH 680 0
DWIDTH 34 0
BBX 31 41 2 -13
BITMAP
01002000
1F03FE00
FF0FFF80
FF3C1FC0
1F7007C0
0FE007E0
0FC003E0
0FC003E0
0F8003E0
0F8003E0
0F8003E0
0F8003E0
0F8003E0
0F8003E0
0F8003E0
0F8003E0
0F8003E0
0F8003E0
0F8003E0
0F8003E0
0F8003E0
0F8003E0
0F8003E0
0F8003E0
0F8003F0
1FC007F0
FFF83FFE
FFF83FFE
00000000
00000000
00000000
00038000
0007C000
0007E000
0007E000
0007E000
0000C000
0001C000
00038000
00070000
00020000
ENDCHAR
STARTCHAR 0147
ENCODING 327
SWIDTH 900 0
DWIDTH 45 0
BBX 41 49 2 -1
BITMAP
000700380000
0003C0F00000
0001FBE00000
0000FFC00000
00007F800000
00003F000000
000000000000
000000000000
000000000000
000000000000
7FE0000FFF80
7FF0000FFF80
7FF8000FFF80
07F80000F800
07FC0000F000
07FE0000F000
03FF00007000
03FF00007000
03FF80007000
03BFC0007000
039FE0007000
038FE0007000
038FF0007000
0387F8007000
0383FC007000
0381FC007000
0380FE007000
0380FF007000
03807F807000
03803F807000
03801FC07000
03801FE07000
03800FF07000
038007F07000
038003F87000
038001FC7000
038001FE7000
038000FE7000
0380007F7000
0380003FF000
0380003FF000
0380001FF000
0380000FF000
07800007F000
07800003F000
0FC00003F000
FFFC0001F000
FFFC0000F000
000000007000
ENDCHAR
STARTCHAR 0148
ENCODING 328
SWIDTH 680 0
DWIDTH 34 0
BBX 31 39 2 0
BITMAP
01E00700
00701C00
003C7C00
001FF800
000FF000
000FE000
0007C000
00000000
00000000
00000000
00000000
01002000
1F03FE00
FF0FFF80
FF3C1FC0
1F7007C0
0FE007E0
0FC003E0
0FC003E0
0F8003E0
0F8003E0
0F8003E0
0F8003E0
0F8003E0
0F8003E0
0F8003E0
0F8003E0
0F8003E0
0F8003E0
0F8003E0
0F8003E0
0F8003E0
0F8003E0
0F8003E0
0F8003E0
0F8003F0
1FC007F0
FFF83FFE
FFF83FFE
ENDCHAR
STARTCHAR 0149
ENCODING 329
SWIDTH 760 0
DWIDTH 38 0
BBX 36 42 1 0
BITMAP
7000000000
7800000000
F800000000
F800000000
7800000000
7800000000
7000000000
7000000000
3000000000
3000000000
3000000000
0000000000
0000000000
0000000000
0008010000
00F03FF000
0FF0FFF800
0FF9C0FC00
00FB807E00
00FF003E00
00FE003E00
00FC003E00
00FC001F00
00FC001F00
0078001F00
0078001F00
0078001F00
0078001F00
0078001F00
0078001F00
0078001F00
0078001F00
0078001F00
0078001F00
0078001F00
0078001F00
00F8001F00
00F8001F00
00FC001F00
00FC003F80
0FFF81FFF0
0FFF81FFF0
ENDCHAR
STARTCHAR 014A
ENCODING 330
SWIDTH 900 0
DWIDTH 45 0
BBX 41 51 2 -13
BITMAP
7FE0000FFF80
7FF0000FFF80
7FF8000FFF80
07F80000F800
07FC0000F000
07FE0000F000
03FF00007000
03FF00007000
03FF80007000
03BFC0007000
039FE0007000
038FF0007000
038FF0007000
0387F8007000
0383FC007000
0381FE007000
0380FE007000
0380FF007000
03807F807000
03803FC07000
03801FC07000
03801FE07000
03800FF07000
038007F87000
038003F87000
038001FC7000
038001FE7000
038000FF7000
0380007FF000
0380003FF000
0380003FF000
0380001FF000
0780000FF000
07800007F000
07C00003F000
7FF80003F000
FFFC0001F000
FFFC0000F000
000000007000
000000007000
000000007000
000000006000
00000000E000
00001800E000
00003C00E000
00003E01C000
00003F03C000
00003F878000
00001FFF0000
00000FFC0000
000000C00000
ENDCHAR
STARTCHAR 014B
ENCODING 331
SWIDTH 660 0
DWIDTH 33 0
BBX 27 41 2 -13
BITMAP
01002000
1F03FE00
FF0FFF80
FF3C1FC0
1F7007C0
0FE007E0
0FC003E0
0FC003E0
0F8003E0
0F8003E0
0F8003E0
0F8003E0
0F8003E0
0F8003E0
0F8003E0
0F8003E0
0F8003E0
0F8003E0
0F8003E0
0F8003E0
0F8003E0
0F8003E0
0F8003E0
0F8003E0
0F8003E0
1FC003E0
FFF803E0
FFF803E0
000003E0
000003E0
000003E0
000003E0
000003E0
000003C0
003C03C0
003E03C0
003E0780
003F0F00
001FFE00
000FFC00
0000C000
ENDCHAR
STARTCHAR 014C
ENCODING 332
SWIDTH 940 0
DWIDTH 47 0
BBX 41 47 3 -1
BITMAP
0003FFE00000
0003FFE00000
000000000000
000000000000
000000000000
000000000000
000000000000
000008000000
0003FFE00000
001FFFFC0000
007F807F0000
00FC001F8000
01F80007E000
03E00003F000
07C00001F800
0FC00000F800
1F800000FC00
3F0000007E00
3F0000007E00
7F0000003F00
7E0000003F00
7E0000003F80
FE0000003F80
FE0000001F80
FE0000001F80
FC0000001F80
FC0000001F80
FC0000001F80
FC0000001F80
FC0000001F80
FE0000001F80
FE0000001F80
7E0000003F80
7E0000003F00
7E0000003F00
3F0000003E00
3F0000007E00
1F8000007C00
0F800000FC00
0FC00001F800
07E00003F000
01F00007E000
00FC001F8000
007F007F0000
001FFFFC0000
0003FFE00000
000008000000
ENDCHAR
STARTCHAR 014D
ENCODING 333
SWIDTH 660 0
DWIDTH 33 0
BBX 28 38 2 -1
BITMAP
01FFF800
01FFF800
00000000
00000000
00000000
00000000
00000000
00000000
00000000
00020000
007FF000
01FFFC00
07F07E00
0FC01F00
1F800F80
1F0007C0
3E0007E0
3E0003E0
7E0003E0
7C0003F0
7C0003F0
FC0001F0
FC0001F0
FC0001F0
FC0001F0
7C0001F0
7C0003F0
7C0003F0
7E0003E0
3E0003E0
3E0007C0
1F0007C0
0F800F80
0FC01F00
03E07E00
01FFF800
007FF000
00020000
ENDCHAR
STARTCHAR 014E
ENCODING 334
SWIDTH 940 0
DWIDTH 47 0
BBX 41 49 3 -1
BITMAP
000300300000
000300600000
0003C1E00000
0001FFC00000
0000FF800000
00003F000000
000000000000
000000000000
000000000000
000008000000
0003FFE00000
001FFFFC0000
007F807F0000
00FC001F8000
01F80007E000
03E00003F000
07C00001F800
0FC00000F800
1F800000FC00
3F0000007E00
3F0000007E00
7F0000003F00
7E0000003F00
7E0000003F80
FE0000003F80
FE0000001F80
FE0000001F80
FC0000001F80
FC0000001F80
FC0000001F80
FC0000001F80
FC0000001F80
FE0000001F80
FE0000001F80
7E0000003F80
7E0000003F00
7E0000003F00
3F0000003E00
3F0000007E00
1F8000007C00
0F800000FC00
0FC00001F800
07E00003F000
01F00007E000
00FC001F8000
007F007F0000
001FFFFC0000
0003FFE00000
000008000000
ENDCHAR
STARTCHAR 014F
ENCODING 335
SWIDTH 660 0
DWIDTH 33 0
BBX 28 39 2 -1
BITMAP
01C01800
00E07800
00FFF000
007FE000
001F8000
00000000
00000000
00000000
00000000
00000000
00020000
007FF000
01FFFC00
07F07E00
0FC01F00
1F800F80
1F0007C0
3E0007E0
3E0003E0
7E0003E0
7C0003F0
7C0003F0
FC0001F0
FC0001F0
FC0001F0
FC0001F0
7C0001F0
7C0003F0
7C0003F0
7E0003E0
3E0003E0
3E0007C0
1F0007C0
0F800F80
0FC01F00
03E07E00
01FFF800
007FF000
00020000
ENDCHAR
STARTCHAR 0150
ENCODING 336
SWIDTH 940 0
DWIDTH 47 0
BBX 41 49 3 -1
BITMAP
00000E078000
00003F1F8000
0000FF3F8000
0001FEFF0000
0003F1F80000
001F07C00000
000000000000
000000000000
000000000000
000008000000
0003FFE00000
001FFFFC0000
007F807F0000
00FC001F8000
01F80007E000
03E00003F000
07C00001F800
0FC00000F800
1F800000FC00
3F0000007E00
3F0000007E00
7F0000003F00
7E0000003F00
7E0000003F80
FE0000003F80
FE0000001F80
FE0000001F80
FC0000001F80
FC0000001F80
FC0000001F80
FC0000001F80
FC0000001F80
FE0000001F80
FE0000001F80
7E0000003F80
7E0000003F00
7E0000003F00
3F0000003E00
3F0000007E00
1F8000007C00
0F800000FC00
0FC00001F800
07E00003F000
01F00007E000
00FC001F8000
007F007F0000
001FFFFC0000
0003FFE00000
000008000000
ENDCHAR
STARTCHAR 0151
ENCODING 337
SWIDTH 660 0
DWIDTH 33 0
BBX 28 41 2 -1
BITMAP
0003C0E0
0007C1F0
000FC3F0
001F87E0
003F0FC0
007C1F00
00F03C00
03C0F000
00000000
00000000
00000000
00000000
00020000
007FF000
01FFFC00
07F07E00
0FC01F00
1F800F80
1F0007C0
3E0007E0
3E0003E0
7E0003E0
7C0003F0
7C0003F0
FC0001F0
FC0001F0
FC0001F0
FC0001F0
7C0001F0
7C0003F0
7C0003F0
7E0003E0
3E0003E0
3E0007C0
1F0007C0
0F800F80
0FC01F00
03E07E00
01FFF800
007FF000
00020000
ENDCHAR
STARTCHAR 0152
ENCODING 338
SWIDTH 1160 0
DWIDTH 58 0
BBX 52 38 3 0
BITMAP
0000FFFFFFFFC0
000FFFFFFFFFC0
003FF7FF01FFC0
007E007E0007C0
01F8003E0001C0
03F0003E0000C0
07E0003E0000C0
0FC0003E0000C0
1F80003E000000
1F80003E000000
3F00003E000000
3F00003E006000
7E00003E006000
7E00003E00E000
FE00003E00E000
FE00003E03E000
FE00003EFFE000
FC00003FFFE000
FC00003FFFE000
FC00003E07E000
FC00003E01E000
FC00003E00E000
FE00003E00E000
FE00003E006000
7E00003E006000
7E00003E000000
7E00003E000000
3F00003E000000
1F00003E000030
1F80003E000030
0F80003E000030
07C0003E000070
03E0003F000070
01F0003F0000F0
00FC007F8001F0
003F80FFE00FF0
000FFFFFFFFFF0
0001FFFFFFFFF0
ENDCHAR
STARTCHAR 0153
ENCODING 339
SWIDTH 1020 0
DWIDTH 51 0
BBX 47 29 2 -1
BITMAP
000200000800
007FF001FF80
01FFFC07FFE0
07F07E0F83F0
0FC01F1E00F8
1F800FBC00F8
1F0007FC007C
3E0007F8007C
3E0003F8007C
7E0003F800FC
7C0003FFFFFE
7C0003FFFFFC
FC0001F00000
FC0001F00000
FC0001F00000
FC0001F00000
7C0001F00000
7C0003F80000
7C0003F80000
7E0003F80000
3E0003F80000
3E0007FC0000
1F0007FC0008
0F800FFE001C
0FC01F3F0038
03E07E1FC0F0
01FFFC0FFFE0
007FF003FF80
000200001000
ENDCHAR
STARTCHAR 0154
ENCODING 340
SWIDTH 780 0
DWIDTH 39 0
BBX 39 48 2 0
BITMAP
00000F0000
00001F8000
00007F0000
0001FE0000
0007E00000
000E000000
0000000000
0000000000
0000000000
0000000000
7FFFFC0000
7FFFFF8000
0FE03FE000
07E003F000
03E001F800
03E000FC00
03E000FC00
03E000FE00
03E000FE00
03E000FE00
03E000FE00
03E000FE00
03E000FC00
03E000FC00
03E001F800
03E003F800
03E01FF000
03FFFFC000
03FFFE0000
03EFF80000
03E1FC0000
03E0FE0000
03E07F0000
03E03F8000
03E01F8000
03E01FC000
03E00FE000
03E007F000
03E003F800
03E001FC00
03E001FE00
03E000FE00
03E0007F00
07E0003F80
07F0003FE0
7FFF801FFE
FFFFC00FFE
FFFFC007FE
ENDCHAR
STARTCHAR 0155
ENCODING 341
SWIDTH 480 0
DWIDTH 24 0
BBX 22 40 2 0
BITMAP
0001C0
0003E0
0007E0
001FC0
003F00
007C00
00E000
018000
000000
000000
000000
000000
000020
0383F8
7F87FC
FF8FFC
7F9DF8
0FB820
0FB000
0FE000
0FE000
0FC000
0FC000
0FC000
0FC000
0F8000
0F8000
0F8000
0F8000
0F8000
0F8000
0F8000
0F8000
0F8000
0F8000
0F8000
0F8000
1FC000
FFF800
FFF800
ENDCHAR
STARTCHAR 0156
ENCODING 342
SWIDTH 780 0
DWIDTH 39 0
BBX 39 51 2 -13
BITMAP
7FFFFC0000
7FFFFF8000
0FE03FE000
07E003F000
03E001F800
03E000FC00
03E000FC00
03E000FE00
03E000FE00
03E000FE00
03E000FE00
03E000FE00
03E000FC00
03E000FC00
03E001F800
03E003F800
03E01FF000
03FFFFC000
03FFFE0000
03EFF80000
03E1FC0000
03E0FE0000
03E07F0000
03E03F8000
03E01F8000
03E01FC000
03E00FE000
03E007F000
03E003F800
03E001FC00
03E001FE00
03E000FE00
03E0007F00
07E0003F80
07F0003FE0
7FFF801FFE
FFFFC00FFE
FFFFC007FE
0000000000
0000000000
0000000000
0000700000
0000F80000
0000F80000
0000FC0000
0000FC0000
0000180000
0000380000
0000700000
0000E00000
0000400000
ENDCHAR
STARTCHAR 0157
ENCODING 343
SWIDTH 480 0
DWIDTH 24 0
BBX 22 41 2 -13
BITMAP
000020
0383F8
7F87FC
FF8FFC
7F9DF8
0FB820
0FB000
0FE000
0FE000
0FC000
0FC000
0FC000
0FC000
0F8000
0F8000
0F8000
0F8000
0F8000
0F8000
0F8000
0F8000
0F8000
0F8000
0F8000
0F8000
1FC000
FFF800
FFF800
000000
000000
000000
070000
0F8000
0FC000
0FC000
07C000
01C000
038000
070000
0E0000
040000
ENDCHAR
STARTCHAR 0158
ENCODING 344
SWIDTH 780 0
DWIDTH 39 0
BBX 39 48 2 0
BITMAP
0070038000
003C1E0000
001F7C0000
000FF80000
0007F80000
0003F00000
0000000000
0000000000
0000000000
0000000000
7FFFFC0000
7FFFFF8000
0FE03FE000
07E003F000
03E001F800
03E000FC00
03E000FC00
03E000FE00
03E000FE00
03E000FE00
03E000FE00
03E000FE00
03E000FC00
03E000FC00
03E001F800
03E003F800
03E01FF000
03FFFFC000
03FFFE0000
03EFF80000
03E1FC0000
03E0FE0000
03E07F0000
03E03F0000
03E01F8000
03E01FC000
03E00FE000
03E007F000
03E003F800
03E001F800
03E001FC00
03E000FE00
03E0007F00
07E0003F80
07F0003FC0
0FF8001FF0
FFFFC00FFE
FFFFC007FE
ENDCHAR
STARTCHAR 0159
ENCODING 345
SWIDTH 480 0
DWIDTH 24 0
BBX 22 39 2 0
BITMAP
1C0070
0701C0
03C780
01FF80
01FF00
00FE00
007C00
000000
000000
000000
000000
000020
0383F8
7F87FC
FF8FFC
7F9DF8
0FB820
0FB000
0FE000
0FE000
0FC000
0FC000
0FC000
0FC000
0F8000
0F8000
0F8000
0F8000
0F8000
0F8000
0F8000
0F8000
0F8000
0F8000
0F8000
0F8000
1FC000
FFF800
FFF800
ENDCHAR
STARTCHAR 015A
ENCODING 346
SWIDTH 640 0
DWIDTH 32 0
BBX 27 49 3 -1
BITMAP
0000F000
0001F800
0007F000
001FE000
007E0000
00E00000
00000000
00000000
00000000
00080000
00FFC200
03FFE600
07C0FE00
0F003E00
1E001E00
3E000E00
3C000E00
3C000700
3C000700
7E000300
3E000000
3F000000
3F800000
3FE00000
3FF80000
1FFE0000
0FFF8000
07FFE000
01FFF800
00FFFC00
003FFF00
0007FF80
0001FF80
00007FC0
00003FC0
00001FC0
C0000FE0
C00007E0
C00007C0
E00007C0
E00007C0
F00007C0
F8000F80
FC000F80
FE001F00
6F807E00
47FFF800
01FFE000
000C0000
ENDCHAR
STARTCHAR 015B
ENCODING 347
SWIDTH 460 0
DWIDTH 23 0
BBX 17 41 3 -1
BITMAP
000F00
001F00
003F00
007E00
00F800
01E000
078000
0E0000
000000
000000
000000
000000
010000
0FF200
1FFE00
3C3E00
780E00
780600
F00600
F80200
F80000
FC0000
7E0000
7F8000
3FE000
1FF000
0FFC00
03FE00
01FF00
007F00
003F80
C00F80
C00F80
C00780
E00780
F00780
F00F80
FC1F00
DFFE00
C7F800
008000
ENDCHAR
STARTCHAR 015C
ENCODING 348
SWIDTH 640 0
DWIDTH 32 0
BBX 27 49 3 -1
BITMAP
003F0000
007F8000
00FFC000
01E3E000
03807000
06001800
00000000
00000000
00000000
00080000
00FFC200
03FFE600
07C0FE00
0F003E00
1E001E00
3E000E00
3C000E00
3C000700
3C000700
7E000300
3E000000
3F000000
3F800000
3FE00000
3FF80000
1FFE0000
0FFF8000
07FFE000
01FFF800
00FFFC00
003FFF00
0007FF80
0001FF80
00007FC0
00003FC0
00001FC0
C0000FE0
C00007E0
C00007C0
E00007C0
E00007C0
F00007C0
F8000F80
FC000F80
FE001F00
6F807E00
47FFF800
01FFE000
000C0000
ENDCHAR
STARTCHAR 015D
ENCODING 349
SWIDTH 460 0
DWIDTH 23 0
BBX 17 40 3 -1
BITMAP
07E000
07F000
0FF800
1E7C00
3C1E00
700E00
C00300
000000
000000
000000
000000
010000
0FF200
1FFE00
3C3E00
780E00
780600
F00600
F80200
F80000
FC0000
7E0000
7F8000
3FE000
1FF000
0FFC00
03FE00
01FF00
007F00
003F80
C00F80
C00F80
C00780
E00780
F00780
F00F80
FC1F00
DFFE00
C7F800
008000
ENDCHAR
STARTCHAR 015E
ENCODING 350
SWIDTH 640 0
DWIDTH 32 0
BBX 27 52 3 -13
BITMAP
00080000
00FFC200
03FFE600
07C0FE00
0F003E00
1E001E00
3E000E00
3C000E00
3C000700
3C000700
7E000300
3E000000
3F000000
3F800000
3FE00000
3FF80000
1FFE0000
0FFF8000
07FFE000
01FFF800
00FFFC00
003FFE00
0007FF00
0001FF80
00007FC0
00003FC0
00001FC0
C0000FE0
C00007E0
C00007E0
E00007C0
E00007C0
F00007C0
F8000F80
FC000F80
FE001F00
6F807E00
47FFF800
01FFE000
001E0000
00180000
00380000
003F0000
007FC000
005FE000
0003E000
01C1E000
01C1E000
01E3E000
01FFC000
007F8000
00080000
ENDCHAR
STARTCHAR 015F
ENCODING 351
SWIDTH 460 0
DWIDTH 23 0
BBX 17 41 3 -13
BITMAP
010000
0FF200
1FFE00
3C3E00
780E00
780600
F00600
F80200
F80000
FC0000
7F0000
7F8000
3FE000
1FF000
0FFC00
07FE00
01FF00
00FF80
003F80
C01F80
C00F80
C00780
E00780
E00780
F00F00
F80F00
DFFC00
CFF000
01C000
018000
038000
03F000
07FC00
007E00
001E00
1C1E00
1C1E00
1E3C00
1FFC00
07F800
008000
ENDCHAR
STARTCHAR 0160
ENCODING 352
SWIDTH 640 0
DWIDTH 32 0
BBX 27 49 3 -1
BITMAP
07003800
03C1F000
01F7E000
00FFC000
007F8000
003F0000
00000000
00000000
00000000
00080000
00FFC200
03FFE600
07C0FE00
0F003E00
1E001E00
3E000E00
3C000E00
3C000700
3C000700
7E000300
3E000000
3F000000
3F800000
3FE00000
3FF80000
1FFE0000
0FFF8000
07FFE000
01FFF800
00FFFC00
003FFF00
0007FF80
0001FF80
00007FC0
00003FC0
00001FC0
C0000FE0
C00007E0
C00007C0
E00007C0
E00007C0
F00007C0
F8000F80
FC000F80
FE001F00
6F807E00
47FFF800
01FFE000
000C0000
ENDCHAR
STARTCHAR 0161
ENCODING 353
SWIDTH 460 0
DWIDTH 23 0
BBX 17 40 3 -1
BITMAP
E00700
780E00
3E3C00
1FF800
0FF000
07E000
03C000
000000
000000
000000
000000
010000
0FF200
1FFE00
3C3E00
780E00
780600
F00600
F80200
F80000
FC0000
7E0000
7F8000
3FE000
1FF000
0FFC00
03FE00
01FF00
007F00
003F80
C00F80
C00F80
C00780
E00780
F00780
F00F80
FC1F00
DFFE00
C7F800
008000
ENDCHAR
STARTCHAR 0162
ENCODING 354
SWIDTH 800 0
DWIDTH 40 0
BBX 38 51 1 -13
BITMAP
FFFFFFFFFC
FFFFFFFFFC
FFC7FF0FFC
F800FC007C
E000FC001C
E000FC001C
C000FC000C
C000FC000C
C000FC000C
0000FC0000
0000FC0000
0000FC0000
0000FC0000
0000FC0000
0000FC0000
0000FC0000
0000FC0000
0000FC0000
0000FC0000
0000FC0000
0000FC0000
0000FC0000
0000FC0000
0000FC0000
0000FC0000
0000FC0000
0000FC0000
0000FC0000
0000FC0000
0000FC0000
0000FC0000
0000FC0000
0000FC0000
0001FE0000
0001FF0000
003FFFF000
003FFFF800
003FFFF800
0000700000
0000700000
0000E00000
0000FC0000
0001FF0000
00013F8000
00000F8000
0007078000
0007078000
00078F8000
0003FF0000
0001FE0000
0000200000
ENDCHAR
STARTCHAR 0163
ENCODING 355
SWIDTH 380 0
DWIDTH 19 0
BBX 16 46 2 -13
BITMAP
0300
0300
0700
0700
0F00
3F00
7F00
FFFE
FFFE
1F00
1F00
1F00
1F00
1F00
1F00
1F00
1F00
1F00
1F00
1F00
1F00
1F00
1F00
1F00
1F00
1F00
1F00
1F00
1F00
1F81
0F87
0FFE
07FC
01C0
0380
0300
07F0
0FF8
007C
003C
383C
3C3C
3C7C
1FF8
0FF0
0180
ENDCHAR
STARTCHAR 0164
ENCODING 356
SWIDTH 800 0
DWIDTH 40 0
BBX 38 48 1 0
BITMAP
001C00E000
000F03C000
0007EF8000
0003FF0000
0001FE0000
0000FC0000
0000000000
0000000000
0000000000
0000000000
FFFFFFFFFC
FFFFFFFFFC
FFC7FF0FFC
F800FC007C
E000FC001C
E000FC001C
C000FC000C
C000FC000C
C000FC000C
0000FC0000
0000FC0000
0000FC0000
0000FC0000
0000FC0000
0000FC0000
0000FC0000
0000FC0000
0000FC0000
0000FC0000
0000FC0000
0000FC0000
0000FC0000
0000FC0000
0000FC0000
0000FC0000
0000FC0000
0000FC0000
0000FC0000
0000FC0000
0000FC0000
0000FC0000
0000FC0000
0000FC0000
0001FE0000
0001FF0000
003FFFF000
003FFFF800
003FFFF800
ENDCHAR
STARTCHAR 0165
ENCODING 357
SWIDTH 380 0
DWIDTH 19 0
BBX 19 40 2 -1
BITMAP
000080
0003C0
0007E0
0007E0
0007E0
000160
0000E0
0301C0
030780
070200
0F0000
1F0000
3F0000
FFFE00
FFFE00
1F0000
1F0000
1F0000
1F0000
1F0000
1F0000
1F0000
1F0000
1F0000
1F0000
1F0000
1F0000
1F0000
1F0000
1F0000
1F0000
1F0000
1F0000
1F0000
1F0000
1F8100
0F8700
0FFE00
07FC00
004000
ENDCHAR
STARTCHAR 0166
ENCODING 358
SWIDTH 800 0
DWIDTH 40 0
BBX 38 38 1 0
BITMAP
FFFFFFFFFC
FFFFFFFFFC
FFC7FF0FFC
F800FC007C
E000FC001C
E000FC001C
C000FC000C
C000FC000C
C000FC000C
0000FC0000
0000FC0000
0000FC0000
0000FC0000
0000FC0000
0000FC0000
03FFFFFF00
03FFFFFF00
0000FC0000
0000FC0000
0000FC0000
0000FC0000
0000FC0000
0000FC0000
0000FC0000
0000FC0000
0000FC0000
0000FC0000
0000FC0000
0000FC0000
0000FC0000
0000FC0000
0000FC0000
0000FC0000
0001FE0000
0001FF0000
003FFFF000
003FFFF800
003FFFF800
ENDCHAR
STARTCHAR 0167
ENCODING 359
SWIDTH 380 0
DWIDTH 19 0
BBX 17 33 2 -1
BITMAP
030000
030000
070000
0F0000
1F0000
3F0000
FFFE00
FFFE00
1F0000
1F0000
1F0000
1F0000
1F0000
FFFC00
FFFC00
1F0000
1F0000
1F0000
1F0000
1F0000
1F0000
1F0000
1F0000
1F0000
1F0000
1F0000
1F0000
1F0000
1F8180
0F8300
0FFE00
03FC00
006000
ENDCHAR
STARTCHAR 0168
ENCODING 360
SWIDTH 860 0
DWIDTH 43 0
BBX 41 49 1 -1
BITMAP
000078040000
0001FF0C0000
0001FFFC0000
0003FFF80000
00030FF80000
000601E00000
000000000000
000000000000
000000000000
000000000000
FFFFC03FFF80
FFFFC03FFF80
7FFF801FFF00
07F80001F800
07F80001F000
03F00000F000
03F00000E000
03F00000E000
03F00000E000
03F00000E000
03F00000E000
03F00000E000
03F00000E000
03F00000E000
03F00000E000
03F00000E000
03F00000E000
03F00000E000
03F00000E000
03F00000E000
03F00000E000
03F00000E000
03F00000E000
03F00000E000
03F00000E000
03F00000E000
03F00000E000
03F00000E000
03F00000E000
03F80001C000
01F80001C000
01F80001C000
01FC00038000
00FE00078000
007F801F0000
003FFFFE0000
001FFFFC0000
0007FFE00000
00001C000000
ENDCHAR
STARTCHAR 0169
ENCODING 361
SWIDTH 680 0
DWIDTH 34 0
BBX 31 39 1 -1
BITMAP
007C0600
00FF0E00
01FFFC00
03FFFC00
030FF800
0301F000
00000000
00000000
00000000
00000000
00000000
FF803FE0
FF803FE0
1F800FE0
0F8003E0
0F8003E0
0F8003E0
0F8003E0
0F8003E0
0F8003E0
0F8003E0
0F8003E0
0F8003E0
0F8003E0
0F8003E0
0F8003E0
0F8003E0
0F8003E0
0F8003E0
0F8003E0
0F8007E0
0FC007E0
07C00DE0
07C019E0
07E039E0
03F071F0
01FFE1F8
00FF81FE
00080100
ENDCHAR
STARTCHAR 016A
ENCODING 362
SWIDTH 860 0
DWIDTH 43 0
BBX 41 47 1 -1
BITMAP
0001FFF80000
0001FFF80000
000000000000
000000000000
000000000000
000000000000
000000000000
000000000000
FFFFC03FFF80
FFFFC03FFF80
7FFF801FFF00
07F80001F800
07F80001F000
03F00000F000
03F00000E000
03F00000E000
03F00000E000
03F00000E000
03F00000E000
03F00000E000
03F00000E000
03F00000E000
03F00000E000
03F00000E000
03F00000E000
03F00000E000
03F00000E000
03F00000E000
03F00000E000
03F00000E000
03F00000E000
03F00000E000
03F00000E000
03F00000E000
03F00000E000
03F00000E000
03F00000E000
03F80001C000
01F80001C000
01F80001C000
01FC00038000
00FE00078000
007F801F0000
003FFFFE0000
001FFFFC0000
0007FFE00000
00001C000000
ENDCHAR
STARTCHAR 016B
ENCODING 363
SWIDTH 680 0
DWIDTH 34 0
BBX 31 38 1 -1
BITMAP
00FFF800
00FFF800
00000000
00000000
00000000
00000000
00000000
00000000
00000000
00000000
FF803FE0
FF803FE0
1F800FE0
0F8003E0
0F8003E0
0F8003E0
0F8003E0
0F8003E0
0F8003E0
0F8003E0
0F8003E0
0F8003E0
0F8003E0
0F8003E0
0F8003E0
0F8003E0
0F8003E0
0F8003E0
0F8003E0
0F8007E0
0FC007E0
07C00DE0
07C019E0
07E039E0
03F071F0
01FFE1F8
00FF81FE
00080100
ENDCHAR
STARTCHAR 016C
ENCODING 364
SWIDTH 860 0
DWIDTH 43 0
BBX 41 49 1 -1
BITMAP
000180180000
0001C0380000
0000E0700000
0000FFF00000
00007FE00000
00001F800000
000000000000
000000000000
000000000000
000000000000
FFFFC03FFF80
FFFFC03FFF80
7FFF801FFF00
07F80001F800
07F80001F000
03F00000F000
03F00000E000
03F00000E000
03F00000E000
03F00000E000
03F00000E000
03F00000E000
03F00000E000
03F00000E000
03F00000E000
03F00000E000
03F00000E000
03F00000E000
03F00000E000
03F00000E000
03F00000E000
03F00000E000
03F00000E000
03F00000E000
03F00000E000
03F00000E000
03F00000E000
03F00000E000
03F00000E000
03F80001C000
01F80001C000
01F80001C000
01FC00038000
00FE00078000
007F801F0000
003FFFFE0000
001FFFFC0000
0007FFE00000
00001C000000
ENDCHAR
STARTCHAR 016D
ENCODING 365
SWIDTH 680 0
DWIDTH 34 0
BBX 31 39 1 -1
BITMAP
00C01C00
00E03800
007FF800
003FF000
000FC000
00000000
00000000
00000000
00000000
00000000
00000000
FF803FE0
FF803FE0
1F800FE0
0F8003E0
0F8003E0
0F8003E0
0F8003E0
0F8003E0
0F8003E0
0F8003E0
0F8003E0
0F8003E0
0F8003E0
0F8003E0
0F8003E0
0F8003E0
0F8003E0
0F8003E0
0F8003E0
0F8007E0
0FC007E0
07C00DE0
07C019E0
07E039E0
03F071F0
01FFE1F8
00FF81FE
00080100
ENDCHAR
STARTCHAR 016E
ENCODING 366
SWIDTH 860 0
DWIDTH 43 0
BBX 41 49 1 -1
BITMAP
00000F000000
00001F800000
000019800000
000010800000
000019800000
00001F800000
00000E000000
000000000000
000000000000
000000000000
FFFFC03FFF80
FFFFC03FFF80
7FFF801FFF00
07F80001F800
07F80001F000
03F00000F000
03F00000E000
03F00000E000
03F00000E000
03F00000E000
03F00000E000
03F00000E000
03F00000E000
03F00000E000
03F00000E000
03F00000E000
03F00000E000
03F00000E000
03F00000E000
03F00000E000
03F00000E000
03F00000E000
03F00000E000
03F00000E000
03F00000E000
03F00000E000
03F00000E000
03F00000E000
03F00000E000
03F80001C000
01F80001C000
01F80001C000
01FC00038000
00FE00078000
007F801F0000
003FFFFE0000
001FFFFC0000
0007FFE00000
00001C000000
ENDCHAR
STARTCHAR 016F
ENCODING 367
SWIDTH 680 0
DWIDTH 34 0
BBX 31 42 1 -1
BITMAP
000FC000
001FE000
001C6000
00186000
00187000
001C6000
001FE000
000FC000
00000000
00000000
00000000
00000000
00000000
00000000
FF803FE0
FF803FE0
1F800FE0
0F8003E0
0F8003E0
0F8003E0
0F8003E0
0F8003E0
0F8003E0
0F8003E0
0F8003E0
0F8003E0
0F8003E0
0F8003E0
0F8003E0
0F8003E0
0F8003E0
0F8003E0
0F8003E0
0F8007E0
0FC007E0
07C00DE0
07C019E0
07E039E0
03F071F0
01FFE1F8
00FF81FE
00080100
ENDCHAR
STARTCHAR 0170
ENCODING 368
SWIDTH 860 0
DWIDTH 43 0
BBX 41 49 1 -1
BITMAP
00000703C000
00001F8FC000
00003F9FC000
0000FF3F8000
0001F8FC0000
0007C3E00000
000000000000
000000000000
000000000000
000000000000
FFFFC03FFF80
FFFFC03FFF80
7FFF801FFF00
07F80001F800
07F80001F000
03F00000F000
03F00000E000
03F00000E000
03F00000E000
03F00000E000
03F00000E000
03F00000E000
03F00000E000
03F00000E000
03F00000E000
03F00000E000
03F00000E000
03F00000E000
03F00000E000
03F00000E000
03F00000E000
03F00000E000
03F00000E000
03F00000E000
03F00000E000
03F00000E000
03F00000E000
03F00000E000
03F00000E000
03F80001C000
01F80001C000
01F80001C000
01FC00038000
00FE00078000
007F801F0000
003FFFFE0000
001FFFFC0000
0007FFE00000
00001C000000
ENDCHAR
STARTCHAR 0171
ENCODING 369
SWIDTH 680 0
DWIDTH 34 0
BBX 31 41 1 -1
BITMAP
000380E0
0007C1F0
000FC3F0
001F87E0
003E0F80
00783E00
00E07800
0380E000
00000000
00000000
00000000
00000000
00000000
FF803FE0
FF803FE0
1F800FE0
0F8003E0
0F8003E0
0F8003E0
0F8003E0
0F8003E0
0F8003E0
0F8003E0
0F8003E0
0F8003E0
0F8003E0
0F8003E0
0F8003E0
0F8003E0
0F8003E0
0F8003E0
0F8003E0
0F8007E0
0FC007E0
07C00DE0
07C019E0
07E039E0
03F071F0
01FFE1F8
00FF81FE
00080100
ENDCHAR
STARTCHAR 0172
ENCODING 370
SWIDTH 860 0
DWIDTH 43 0
BBX 41 49 1 -11
BITMAP
FFFFC03FFF80
FFFFC03FFF80
7FFF801FFF00
07F80003F800
07F80001F000
03F00001F000
03F00000E000
03F00000E000
03F00000E000
03F00000E000
03F00000E000
03F00000E000
03F00000E000
03F00000E000
03F00000E000
03F00000E000
03F00000E000
03F00000E000
03F00000E000
03F00000E000
03F00000E000
03F00000E000
03F00000E000
03F00000E000
03F00000E000
03F00000E000
03F00000E000
03F00000E000
03F00000E000
03F00000C000
01F80001C000
01F80001C000
01FC00038000
00FC00078000
007F000F0000
007FC03E0000
001FFFFC0000
0007FFF00000
00003E000000
000078000000
0000F0000000
0001E0000000
0001C0000000
0003C0000000
0003C0400000
0003C0E00000
0003E3C00000
0003FF800000
0001FE000000
ENDCHAR
STARTCHAR 0173
ENCODING 371
SWIDTH 680 0
DWIDTH 34 0
BBX 31 38 1 -11
BITMAP
FF803FE0
FF803FE0
3F800FE0
0F8003E0
0F8003E0
0F8003E0
0F8003E0
0F8003E0
0F8003E0
0F8003E0
0F8003E0
0F8003E0
0F8003E0
0F8003E0
0F8003E0
0F8003E0
0F8003E0
0F8003E0
0F8003E0
0F8007E0
0FC007E0
07C00FE0
07C01DE0
07E039F0
03F071FC
01FFE1FE
00FF81FE
000801C0
00000380
00000F00
00001E00
00001C00
00003C00
00003C04
00003C0E
00003E3C
00001FF8
00001FE0
ENDCHAR
STARTCHAR 0174
ENCODING 372
SWIDTH 1180 0
DWIDTH 59 0
BBX 60 48 -1 -1
BITMAP
0000000FE0000000
0000001FF0000000
0000003FF8000000
0000007C7C000000
000000F00E000000
0000000001000000
0000000000000000
0000000000000000
0000000000000000
FFFF80FFFF00FFF0
FFFF80FFFF00FFF0
7FFF00FFFE00FFF0
0FF0001FE0001F80
07F0001FE0000F00
03F0000FE0000E00
03F00007E0000E00
01F80007F0001C00
01F80007F0001C00
00F80007F0001C00
00FC000FF0003800
00FC000FF8003800
007C001DF8003000
007E001CF8007000
007E001CFC007000
003E0038FC00E000
003F00387C00E000
003F00387E00E000
001F00707E01C000
001F80703E01C000
000F80E03E018000
000F80E03F038000
000FC0E01F038000
0007C1C01F030000
0007C1C01F870000
0007E1C00F870000
0003E3800F8E0000
0003E3800F8E0000
0003F30007CC0000
0001F70007DC0000
0001F70007DC0000
0000FE0003F80000
0000FE0003F80000
0000FC0003F00000
00007C0001F00000
00007C0001F00000
0000780001E00000
0000380000E00000
0000380000E00000
ENDCHAR
STARTCHAR 0175
ENCODING 373
SWIDTH 860 0
DWIDTH 43 0
BBX 41 39 1 0
BITMAP
00001F000000
00003F800000
00007FC00000
0000F9E00000
0001E0F00000
000380380000
000400040000
000000000000
000000000000
000000000000
000000000000
000000000000
FFF80601FF80
FFF80E01FF80
3FC00E003E00
1F801F003C00
0F801F003C00
0FC01F003800
07C03F803800
07C03F807000
07C07F807000
03E077C07000
03E077C0E000
03E0E7C0E000
01F0E3E1C000
01F1C3E1C000
01F1C3F18000
01F1C1F38000
00FB81F38000
00FB81FB0000
00FB00FF0000
007F00FE0000
007F00FE0000
007E007E0000
003E007C0000
003C007C0000
003C00380000
001800380000
001800380000
ENDCHAR
STARTCHAR 0176
ENCODING 374
SWIDTH 740 0
DWIDTH 37 0
BBX 37 48 0 0
BITMAP
00007F0000
0000FF8000
0001FFC000
0003E3E000
000780F000
000C003800
0000000000
0000000000
0000000000
0000000000
FFFF007FF8
FFFF007FF8
FFFE003FF8
1FE00007C0
0FE0000780
07E0000F00
03F0000E00
03F0001C00
01F8001C00
01FC003800
00FC003800
007E007000
007E006000
003F00E000
003F81C000
001F81C000
000FC38000
000FC70000
0007E70000
0007FE0000
0003FE0000
0001FC0000
0001F80000
0000F80000
0000F80000
0000F80000
0000F80000
0000F80000
0000F80000
0000F80000
0000F80000
0000F80000
0000F80000
0001F80000
0001FC0000
0003FE0000
003FFFC000
003FFFC000
ENDCHAR
STARTCHAR 0177
ENCODING 375
SWIDTH 640 0
DWIDTH 32 0
BBX 31 53 0 -13
BITMAP
0001F000
0003F800
0007FC00
000FFC00
000F1E00
001C0700
007001C0
00000000
00000000
00000000
00000000
00000000
00000000
FFF80FFE
FFF80FFE
1FE001F8
0FC000F0
0FC000F0
07C000E0
07E001E0
03E001C0
03F001C0
01F00380
01F00380
00F80700
00F80700
00FC0600
007C0E00
007C0E00
003E1C00
003E1C00
001F3800
001F3800
000FB000
000FF000
0007E000
0007E000
0007E000
0003C000
0003C000
00018000
00038000
00030000
00070000
00060000
000E0000
001C0000
01FC0000
0FF80000
0FF80000
0FF00000
0FE00000
02000000
ENDCHAR
STARTCHAR 0178
ENCODING 376
SWIDTH 740 0
DWIDTH 37 0
BBX 37 48 0 0
BITMAP
000381E000
0003C1E000
0007C3F000
0003C1E000
000381E000
0000000000
0000000000
0000000000
0000000000
0000000000
FFFF007FF8
FFFF007FF8
FFFE003FF8
1FE00007C0
0FE0000780
07E0000F00
03F0000E00
03F0001C00
01F8001C00
01FC003800
00FC003800
007E007000
007E006000
003F00E000
003F81C000
001F81C000
000FC38000
000FC70000
0007E70000
0007FE0000
0003FE0000
0001FC0000
0001F80000
0000F80000
0000F80000
0000F80000
0000F80000
0000F80000
0000F80000
0000F80000
0000F80000
0000F80000
0000F80000
0001F80000
0001FC0000
0003FE0000
003FFFC000
003FFFC000
ENDCHAR
STARTCHAR 0179
ENCODING 377
SWIDTH 780 0
DWIDTH 39 0
BBX 35 48 1 0
BITMAP
000E000000
001F800000
001FE00000
0007F00000
00007C0000
0000070000
0000000000
0000000000
0000000000
0000000000
1FFFFFFFC0
1FFFFFFF80
1FF0003F00
1F00007F00
1E00007E00
1C0000FC00
180001F800
180003F800
180003F000
000007E000
00000FC000
00001FC000
00001F8000
00003F0000
00007F0000
0000FE0000
0000FC0000
0001F80000
0003F80000
0007F00000
0007E00000
000FC00000
001FC00000
003F800000
003F000000
007E000000
00FE000060
01FC000060
01F8000060
03F80000E0
07F00000E0
0FE00000E0
0FC00001E0
1FC00001E0
3F800003E0
7F00003FE0
7FFFFFFFE0
FFFFFFFFE0
ENDCHAR
STARTCHAR 017A
ENCODING 378
SWIDTH 560 0
DWIDTH 28 0
BBX 25 40 1 0
BITMAP
00007000
0001F800
0003F000
0007E000
000FC000
001E0000
00380000
00600000
00000000
00000000
00000000
00000000
00000000
1FFFFF80
1FFFFF00
1FE07E00
1C00FC00
1800FC00
3001F800
3003F000
0003F000
0007E000
000FC000
001F8000
001F8000
003F0000
007E0000
007E0000
00FC0000
01F80000
01F80000
03F00000
07E00180
0FC00180
0FC00380
1F800300
3F000700
3F003F00
7FFFFF00
FFFFFF00
ENDCHAR
STARTCHAR 017B
ENCODING 379
SWIDTH 780 0
DWIDTH 39 0
BBX 35 48 1 0
BITMAP
0000700000
0000F80000
0000F80000
0000F80000
0000700000
0000000000
0000000000
0000000000
0000000000
0000000000
1FFFFFFFC0
1FFFFFFF80
1FF0003F00
1F00007F00
1E00007E00
1C0000FC00
180001F800
180003F800
180003F000
000007E000
00000FC000
00001FC000
00001F8000
00003F0000
00007F0000
0000FE0000
0000FC0000
0001F80000
0003F80000
0007F00000
0007E00000
000FC00000
001FC00000
003F800000
003F000000
007E000000
00FE000060
01FC000060
01F8000060
03F80000E0
07F00000E0
0FE00000E0
0FC00001E0
1FC00001E0
3F800003E0
7F00003FE0
7FFFFFFFE0
FFFFFFFFE0
ENDCHAR
STARTCHAR 017C
ENCODING 380
SWIDTH 560 0
DWIDTH 28 0
BBX 25 40 1 0
BITMAP
000E0000
001F0000
003F0000
003F0000
001F0000
000E0000
00000000
00000000
00000000
00000000
00000000
00000000
00000000
1FFFFF80
1FFFFF00
1FE07E00
1C00FC00
1800FC00
3001F800
3003F000
0003F000
0007E000
000FC000
001F8000
001F8000
003F0000
007E0000
007E0000
00FC0000
01F80000
01F80000
03F00000
07E00180
0FC00180
0FC00380
1F800300
3F000700
3F003F00
7FFFFF00
FFFFFF00
ENDCHAR
STARTCHAR 017D
ENCODING 381
SWIDTH 780 0
DWIDTH 39 0
BBX 35 48 1 0
BITMAP
003C01E000
000F078000
0007DF0000
0003FE0000
0001FC0000
0000F80000
0000000000
0000000000
0000000000
0000000000
1FFFFFFFC0
1FFFFFFF80
1FF0003F00
1F00007F00
1E00007E00
1C0000FC00
180001F800
180003F800
180003F000
000007E000
00000FC000
00001FC000
00001F8000
00003F0000
00007F0000
0000FE0000
0000FC0000
0001F80000
0003F80000
0007F00000
0007E00000
000FC00000
001FC00000
003F800000
003F000000
007E000000
00FE000060
01FC000060
01F8000060
03F80000E0
07F00000E0
0FE00000E0
0FC00001E0
1FC00001E0
3F800003E0
7F00003FE0
7FFFFFFFE0
FFFFFFFFE0
ENDCHAR
STARTCHAR 017E
ENCODING 382
SWIDTH 560 0
DWIDTH 28 0
BBX 25 39 1 0
BITMAP
07003C00
01C07000
01F1E000
00FFC000
007F8000
003F8000
001F0000
00000000
00000000
00000000
00000000
00000000
1FFFFF80
1FFFFF00
1FE07E00
1C00FC00
1800FC00
3001F800
3003F000
0003F000
0007E000
000FC000
001F8000
001F8000
003F0000
007E0000
007E0000
00FC0000
01F80000
01F80000
03F00000
07E00180
0FC00180
0FC00380
1F800300
3F000700
3F003F00
7FFFFF00
FFFFFF00
ENDCHAR
STARTCHAR 018F
ENCODING 399
SWIDTH 800 0
DWIDTH 40 0
BBX 34 40 3 -1
BITMAP
0001000000
007FFC0000
03FFFF0000
0F807FC000
1E000FF000
380007F800
700001FC00
E00000FC00
400000FE00
0000007F00
0000003F00
0000003F80
0000003F80
0000001F80
0000001FC0
0000001FC0
0000001FC0
0000000FC0
0000000FC0
0000000FC0
0000000FC0
0000000FC0
0000000FC0
0000000FC0
FFFFFFFFC0
FFFFFFFF80
FFFFFFFF80
FF00001F80
FE00001F00
FE00003F00
7E00003E00
7E00007E00
7F00007C00
3F0000F800
3F8001F000
1FC003E000
0FF01F8000
03FFFF0000
00FFF80000
0006000000
ENDCHAR
STARTCHAR 0192
ENCODING 402
SWIDTH 660 0
DWIDTH 33 0
BBX 37 52 -5 -13
BITMAP
0000000200
0000007FE0
000000FFF8
000003E3F8
000007C0F8
0000078070
00000F0000
00001F0000
00001F0000
00001E0000
00003E0000
00003E0000
00003C0000
00003C0000
00007C0000
000FFFF000
000FFFF000
00107C0000
00007C0000
0000F80000
0000F80000
0000F80000
0000F80000
0000F80000
0000F80000
0000F00000
0001F00000
0001F00000
0001F00000
0001F00000
0001F00000
0001E00000
0001E00000
0003E00000
0003E00000
0003E00000
0003C00000
0003C00000
0003C00000
0007C00000
0007800000
0007800000
0007000000
000F000000
000F000000
780E000000
F81C000000
FC1C000000
7E38000000
7FF0000000
3FC0000000
0200000000
ENDCHAR
STARTCHAR 01C4
ENCODING 452
SWIDTH 1660 0
DWIDTH 83 0
BBX 78 48 2 0
BITMAP
00000000000003801C00
00000000000001E0F000
00000000000000FBE000
000000000000007FC000
000000000000003FC000
000000000000001F8000
00000000000000000000
00000000000000000000
00000000000000000000
00000000000000000000
7FFFFE000001FFFFFFF8
7FFFFFE00001FFFFFFF0
7FF01FF80001FE0007F0
07E000FE0003E00007E0
03E0003F0003C0000FC0
03E0001F800380001F80
03E0000FC00380003F80
03E00007E00300003F00
03E00003F00300007E00
03E00001F8000000FC00
03E00001F8000001FC00
03E00001FC000001F800
03E00000FC000003F000
03E00000FC000007E000
03E00000FE00000FE000
03E00000FE00000FC000
03E000007E00001F8000
03E000007E00003F0000
03E000007E00007F0000
03E000007E00007E0000
03E000007E0000FC0000
03E000007E0001FC0000
03E000007E0003F80000
03E00000FE0003F00000
03E00000FE0007E00000
03E00000FC000FE00000
03E00000FC001FC0000C
03E00001FC001F80000C
03E00001F8003F00000C
03E00001F8007F00000C
03E00003F000FE00001C
03E00007E000FC00001C
03F0000FC001F800003C
03F0001F8003F800003C
07FC007F0007F000007C
0FFFDFFC0007E0001FFC
FFFFFFF0000FFFFFFFFC
FFFFFF00001FFFFFFFFC
ENDCHAR
STARTCHAR 01C5
ENCODING 453
SWIDTH 1440 0
DWIDTH 72 0
BBX 68 39 2 0
BITMAP
000000000000E00380
7FFFFE000000380E00
7FFFFFE000001C1E00
0FF01FF800001F7C00
07E000FE00000FF800
03E0003F000007F000
03E0001F800003E000
03E0000FC000000000
03E00007E000000000
03E00003F000000000
03E00001F800000000
03E00001F800000000
03E00001FC03FFFFF0
03E00000FC03FFFFE0
03E00000FC03FC0FC0
03E00000FE03800F80
03E00000FE03001F80
03E000007E03003F00
03E000007E02003E00
03E000007E04007E00
03E000007E0000FC00
03E000007E0001F800
03E000007E0001F800
03E000007E0003F000
03E00000FE0007E000
03E00000FE0007C000
03E00000FC000FC000
03E00000FC001F8000
03E00001FC003F0000
03E00001F8003F0000
03E00001F8007E0000
03E00003F000FC0030
03E00007E000FC0030
03F0000FC001F80070
03F0001F8003F00070
07FC007F0007E000E0
0FFFDFFC0007E03FE0
FFFFFFF0000FFFFFE0
FFFFFF00001FFFFFE0
ENDCHAR
STARTCHAR 01C6
ENCODING 454
SWIDTH 1240 0
DWIDTH 62 0
BBX 58 43 2 -1
BITMAP
0000002000000000
000007C000000000
0000FFC000000000
0000FFC003801C00
00000FC001E07800
000007C000F0F000
000007C0007FE000
000007C0003FC000
000007C0001F8000
000007C0000F0000
000007C000000000
000007C000000000
000007C000000000
000007C000000000
000407C000000000
00FFC7C00FFFFF80
03FFF7C00FFFFF00
07E0FFC01E003F00
0F803FC01C007E00
1F001FC01800FC00
1F000FC01801FC00
3E0007C01801F800
7E0007C00003F000
7E0007C00007F000
7C0007C00007E000
7C0007C0000FC000
FC0007C0001F8000
FC0007C0001F8000
FC0007C0003F0000
FC0007C0007E0000
7C0007C000FE0000
7C0007C000FC0000
7C0007C001F80000
7E0007C003F80000
3E0007C003F000C0
3E000FC007E00180
1F000FC00FC00180
1F801FC00FC00380
0FC07BE01F800780
07FBFBFC3F003F80
03FFF3FE7FFFFF80
00FFC3FE7FFFFF80
0004000000000000
ENDCHAR
STARTCHAR 01C7
ENCODING 455
SWIDTH 1120 0
DWIDTH 56 0
BBX 51 51 2 -13
BITMAP
7FFF00000FFFE0
7FFF00000FFFE0
7FFE000007FFE0
07F0000000FE00
07E00000007E00
03E00000007E00
03E00000007C00
03E00000007C00
03E00000007C00
03E00000007C00
03E00000007C00
03E00000007C00
03E00000007C00
03E00000007C00
03E00000007C00
03E00000007C00
03E00000007C00
03E00000007C00
03E00000007C00
03E00000007C00
03E00000007C00
03E00000007C00
03E00000007C00
03E00000007C00
03E00000007C00
03E00000007C00
03E00000007C00
03E00000007C00
03E00001807C00
03E00001807C00
03E00001807C00
03E00003807C00
03E00003807C00
07F00007807C00
07F8000F807C00
0FFF00FF807C00
FFFFFFFF807C00
FFFFFFFF807C00
00000000007C00
00000000007C00
00000000007C00
00000000007C00
00000000007C00
00000003007C00
00000007807800
0000000FC0F800
0000000FC0F000
00000007E1F000
00000003FFE000
00000001FF8000
00000000180000
ENDCHAR
STARTCHAR 01C8
ENCODING 456
SWIDTH 1020 0
DWIDTH 51 0
BBX 45 54 2 -13
BITMAP
0000000000F0
0000000001F8
0000000001F8
7FFF000001F8
7FFF000001F8
7FFE000000F0
07F000000000
07E000000000
03E000000000
03E000000000
03E000000000
03E000000000
03E000000000
03E000000008
03E0000001F8
03E000001FF8
03E000001FF8
03E0000003F8
03E0000001F8
03E0000000F8
03E0000000F8
03E0000000F8
03E0000000F8
03E0000000F8
03E0000000F8
03E0000000F8
03E0000000F8
03E0000000F8
03E0000000F8
03E0000000F8
03E0000000F8
03E0000180F8
03E0000180F8
03E0000180F8
03E0000380F8
03E0000380F8
07F0000780F8
07F8001F80F8
0FFF00FF80F8
FFFFFFFF80F8
FFFFFFFF80F8
0000000000F8
0000000000F8
0000000000F8
0000000000F0
0000000000F0
0000000000F0
0000000F00F0
0000001F01E0
0000001F81E0
0000000FC3C0
0000000FFF80
00000003FE00
000000002000
ENDCHAR
STARTCHAR 01C9
ENCODING 457
SWIDTH 620 0
DWIDTH 31 0
BBX 26 55 1 -13
BITMAP
03800000
FF800380
FF8007C0
3F800FC0
0F800FC0
078007C0
07800380
07800000
07800000
07800000
07800000
07800000
07800000
07800000
07800040
07800FC0
0780FFC0
0780FFC0
07800FC0
07800FC0
078007C0
078007C0
078007C0
078007C0
078007C0
078007C0
078007C0
078007C0
078007C0
078007C0
078007C0
078007C0
078007C0
078007C0
078007C0
078007C0
07C007C0
07C007C0
0FC007C0
1FE007C0
FFFC07C0
FFFC07C0
000007C0
000007C0
000007C0
000007C0
00000780
00000780
00780780
00F80F00
00FC0F00
007E1E00
007FFC00
001FF000
00010000
ENDCHAR
STARTCHAR 01CA
ENCODING 458
SWIDTH 1300 0
DWIDTH 65 0
BBX 61 51 2 -13
BITMAP
7FE0000FFF87FFF8
7FF0000FFF87FFF8
7FF8000FFF83FFF0
07F80000F8007F80
07FC0000F0003F00
07FE0000F0003F00
03FF000070003F00
03FF000070003F00
03FF800070003F00
03BFC00070003F00
039FE00070003F00
038FF00070003F00
038FF00070003F00
0387F80070003F00
0383FC0070003F00
0381FE0070003F00
0380FE0070003F00
0380FF0070003F00
03807F8070003F00
03803FC070003F00
03801FC070003F00
03801FE070003F00
03800FF070003F00
038007F870003F00
038003F870003F00
038001FC70003F00
038001FE70003F00
038000FF70003F00
0380007FF0003F00
0380003FF0003F00
0380003FF0003F00
0380001FF0003F00
0780000FF0003F00
07800007F0003F00
07C00003F0003F00
7FF80003F0003F00
FFFC0001F0003F00
FFFC0000F0003F00
0000000000003F00
0000000000003F00
0000000000003E00
0000000000003E00
0000000000003E00
0000000001803E00
0000000003C03E00
0000000003E07C00
0000000003F07C00
0000000003F0F800
0000000001FFF000
0000000000FFC000
00000000000C0000
ENDCHAR
STARTCHAR 01CB
ENCODING 459
SWIDTH 1200 0
DWIDTH 60 0
BBX 54 54 2 -13
BITMAP
00000000000070
000000000000F8
000000000000FC
7FE0000FFF80FC
7FF0000FFF80F8
7FF8000FFF8070
07F80000F80000
07FC0000F00000
07FE0000F00000
03FF0000700000
03BF8000700000
039F8000700000
039FC000700000
038FE000700008
0387F0007001F8
0383F000701FF8
0383F800701FF8
0381FC007001F8
0380FE007000F8
0380FF007000F8
03807F007000F8
03803F807000F8
03801FC07000F8
03801FE07000F8
03800FE07000F8
038007F07000F8
038003F87000F8
038003FC7000F8
038001FE7000F8
038000FE7000F8
0380007F7000F8
0380007FF000F8
0380003FF000F8
0380001FF000F8
0380000FF000F8
0780000FF000F8
07800007F000F8
07C00003F000F8
7FF80001F000F8
FFFC0001F000F8
FFFC0000F000F8
000000000000F8
000000000000F8
000000000000F8
000000000000F8
000000000000F8
000000000000F0
000000000F00F0
000000000F80F0
000000000F81E0
000000000FC3C0
0000000007FF80
0000000003FF00
00000000003000
ENDCHAR
STARTCHAR 01CC
ENCODING 460
SWIDTH 1000 0
DWIDTH 50 0
BBX 44 54 2 -13
BITMAP
0000000001C0
0000000003E0
0000000007F0
0000000007F0
0000000003E0
0000000001C0
000000000000
000000000000
000000000000
000000000000
000000000000
000000000000
000000000000
010020000010
1F03FE0007E0
FF0FFF807FE0
FF3C1FC07FE0
1F7007C007E0
0FE007E003E0
0FC003E003E0
0FC003E003E0
0F8003E003E0
0F8003E003E0
0F8003E003E0
0F8003E003E0
0F8003E003E0
0F8003E003E0
0F8003E003E0
0F8003E003E0
0F8003E003E0
0F8003E003E0
0F8003E003E0
0F8003E003E0
0F8003E003E0
0F8003E003E0
0F8003E003E0
0F8003E003E0
0F8003F003E0
1FC007F003E0
FFF83FFE03E0
FFF83FFE03E0
0000000003E0
0000000003E0
0000000003E0
0000000003E0
0000000003E0
0000000003C0
0000003C03C0
0000003E03C0
0000003E0780
0000003F0F00
0000001FFE00
0000000FFC00
000000008000
ENDCHAR
STARTCHAR 01EA
ENCODING 490
SWIDTH 940 0
DWIDTH 47 0
BBX 41 50 3 -11
BITMAP
000008000000
0003FFE00000
001FFFFC0000
003F807F0000
00FC001F8000
01F80007E000
03E00003F000
07C00001F800
0FC00000F800
1F800000FC00
3F0000007E00
3F0000007E00
7F0000003F00
7E0000003F00
7E0000003F80
FE0000003F80
FE0000001F80
FE0000001F80
FC0000001F80
FC0000001F80
FC0000001F80
FC0000001F80
FC0000001F80
FE0000001F80
FE0000001F80
7E0000003F80
7E0000003F00
7E0000003F00
3F0000003F00
3F0000007E00
1F8000007C00
0F800000FC00
0FC00001F800
07E00003F000
03F00007E000
00FC001FC000
007F007F0000
001FFFFC0000
0007FFF00000
00003E000000
000070000000
0000E0000000
0001C0000000
0003C0000000
000380000000
000780800000
000781C00000
0007C3800000
0003FF000000
0001FE000000
ENDCHAR
STARTCHAR 01EB
ENCODING 491
SWIDTH 660 0
DWIDTH 33 0
BBX 28 39 2 -11
BITMAP
00020000
007FF000
01FFFC00
07E07E00
0FC01F00
1F800F80
1F0007C0
3E0007E0
3E0003E0
7E0003E0
7C0003F0
7C0003F0
FC0001F0
FC0001F0
FC0001F0
FC0001F0
7C0001F0
7C0003F0
7C0003F0
7E0003E0
3E0007E0
3F0007C0
1F000FC0
0F800F80
07C03F00
03F0FE00
01FFF800
007FE000
000F0000
001C0000
00380000
00700000
00F00000
00E00000
01E02000
01F07000
00FFE000
00FFC000
003F0000
ENDCHAR
STARTCHAR 01F1
ENCODING 497
SWIDTH 1640 0
DWIDTH 82 0
BBX 78 38 2 0
BITMAP
7FFFFE000003FFFFFFF8
7FFFFFE00003FFFFFFF0
7FF01FF80003FE0007E0
07E000FE0003C0000FC0
03E0003F000380001F80
03E0001F800300003F80
03E0000FC00300003F00
03E00007E00300007E00
03E00003F0060000FE00
03E00001F8000001FC00
03E00001F8000001F800
03E00001FC000003F000
03E00000FC000007F000
03E00000FC00000FE000
03E00000FE00000FC000
03E00000FE00001F8000
03E000007E00003F8000
03E000007E00007F0000
03E000007E00007E0000
03E000007E0000FC0000
03E000007E0001FC0000
03E000007E0001F80000
03E000007E0003F00000
03E00000FE0007E00000
03E00000FE000FE00000
03E00000FC000FC00000
03E00000FC001F80000C
03E00001FC003F80001C
03E00001F8007F00001C
03E00001F8007E00001C
03E00003F000FC00001C
03E00007E001FC000038
03F0000FC003F8000038
03F0001F8003F0000078
07FC007F0007E00000F8
0FFFDFFC000FE0001FF8
FFFFFFF0001FFFFFFFF8
FFFFFF00003FFFFFFFF8
ENDCHAR
STARTCHAR 01F2
ENCODING 498
SWIDTH 1440 0
DWIDTH 72 0
BBX 68 38 2 0
BITMAP
7FFFFE000000000000
7FFFFFE00000000000
0FF01FF80000000000
07E000FE0000000000
03E0003F0000000000
03E0001F8000000000
03E0000FC000000000
03E00007E000000000
03E00003F000000000
03E00001F800000000
03E00001F800000000
03E00001FC03FFFFE0
03E00000FC03FFFFC0
03E00000FC03FC0FC0
03E00000FE07001F80
03E00000FE07001F00
03E000007E06003F00
03E000007E06007E00
03E000007E0000FC00
03E000007E0000FC00
03E000007E0001F800
03E000007E0003F000
03E000007E0003E000
03E00000FE0007E000
03E00000FE000FC000
03E00000FC001F8000
03E00000FC001F8000
03E00001FC003F0000
03E00001F8007E0000
03E00001F8007E0000
03E00003F000FC0030
03E00007E001F80060
03F0000FC003F00060
03F0001F8003F000E0
07FC007F0007E001E0
0FFFDFFC000FC07FE0
FFFFFFF0000FFFFFE0
FFFFFF00001FFFFFE0
ENDCHAR
STARTCHAR 01F3
ENCODING 499
SWIDTH 1240 0
DWIDTH 62 0
BBX 58 42 2 -1
BITMAP
000007C000000000
0000FFC000000000
0000FFC000000000
00000FC000000000
000007C000000000
000007C000000000
000007C000000000
000007C000000000
000007C000000000
000007C000000000
000007C000000000
000007C000000000
000007C000000000
000407C000000000
00FFC7C00FFFFF80
03FFF7C00FFFFF00
07E0FFC01E003F00
0F803FC01C007E00
1F001FC01800FC00
1F000FC01801FC00
3E0007C01801F800
7E0007C00003F000
7E0007C00007F000
7C0007C00007E000
7C0007C0000FC000
FC0007C0001F8000
FC0007C0001F8000
FC0007C0003F0000
FC0007C0007E0000
7C0007C000FE0000
7C0007C000FC0000
7C0007C001F80000
7E0007C003F80000
3E0007C003F000C0
3E000FC007E00180
1F000FC00FC00180
1F801FC00FC00380
0FC07BE01F800780
07FBFBFC3F003F80
03FFF3FE7FFFFF80
00FFC3FE7FFFFF80
0004000000000000
ENDCHAR
STARTCHAR 01FA
ENCODING 506
SWIDTH 780 0
DWIDTH 39 0
BBX 39 49 0 0
BITMAP
0000010000
0000FF8000
0000FF8000
0001CF0000
0001860000
0001860000
00018E0000
0003FC0000
00077C0000
0008000000
0000000000
0000000000
0000000000
0000300000
0000380000
0000780000
00007C0000
0000FC0000
0000FE0000
0001FE0000
0001FF0000
00019F0000
00039F0000
00030F8000
00070F8000
00060FC000
000E07C000
000E07E000
001C03E000
001C03F000
001803F000
003801F800
003FFFF800
007FFFF800
007FFFFC00
00E000FC00
00E0007E00
01C0007E00
01C0003F00
0180003F00
0380001F80
0380001F80
0700001FC0
0700000FC0
0F00000FE0
1F00001FF0
FFE000FFFE
FFF001FFFE
FFF001FFFE
ENDCHAR
STARTCHAR 01FB
ENCODING 507
SWIDTH 560 0
DWIDTH 28 0
BBX 26 43 2 -1
BITMAP
00010000
007B8000
00FF8000
01FF0000
01860000
01860000
01C60000
03FE0000
077C0000
08000000
00000000
00000000
00000000
00000000
00100000
07FF8000
1FFFC000
3F07E000
3E03F000
7E01F000
7C01F000
3C01F000
1801F000
0001F000
0001F000
0001F000
0007F000
001FF000
00F9F000
03E1F000
0F81F000
1F01F000
3E01F000
7C01F000
7C01F000
F801F000
F803F000
F803F800
FC06F800
7E1CF880
7FF8FFC0
1FF07F00
02000800
ENDCHAR
STARTCHAR 01FC
ENCODING 508
SWIDTH 1060 0
DWIDTH 53 0
BBX 51 48 -1 0
BITMAP
00000000780000
00000001F80000
00000003F80000
0000000FF00000
0000003F000000
00000070000000
00000000000000
00000000000000
00000000000000
00000000000000
00007FFFFFFF80
00007FFFFFFF80
000007FC003F80
0000077C000780
0000077C000380
00000E7C000180
00000E7C000180
00001C7C000180
00001C7C000000
0000387C000000
0000387C000000
0000707C008000
0000707C018000
0000E07C018000
0000E07C038000
0001C07C078000
0001807DFF8000
0003807FFF8000
0003007FFF8000
0007007C1F8000
000E007C038000
000E007C018000
001FFFFC018000
001FFFFC018000
0038007C008000
0038007C000000
0070007C000000
0070007C000000
00E0007C000060
00E0007C000060
01C0007C000060
03C0007C0000E0
0380007E0000E0
0780007E0001E0
0F8000FF0003E0
1FC001FFC01FE0
FFF81FFFFFFFE0
FFF81FFFFFFFE0
ENDCHAR
STARTCHAR 01FD
ENCODING 509
SWIDTH 860 0
DWIDTH 43 0
BBX 38 41 2 -1
BITMAP
000001C000
000003E000
000007E000
00001FC000
00003F0000
00007C0000
0000F00000
0001800000
0000000000
0000000000
0000000000
0000000000
0010000800
07FF81FF80
1FFFC7FFE0
3F07EF83F0
7E03FF01F8
7E01FE00F8
7C01FE007C
3C01FC007C
0001FC007C
0001FC01FC
0001FFFFFC
0001FFFFFC
000FF80000
003FF80000
01FDF80000
07E1F80000
1FC1F80000
3F01F80000
7E01F80000
7C01FC0000
FC01FC0000
F801FC0000
F803FE0008
F8033F001C
FC073F8038
7E1E1FC0F0
3FFC07FFE0
1FF003FF80
0300001000
ENDCHAR
STARTCHAR 01FE
ENCODING 510
SWIDTH 940 0
DWIDTH 47 0
BBX 41 52 3 -4
BITMAP
000000F00000
000001F80000
000007F00000
00001FE00000
00007E000000
0000E0000000
000000000F00
000000001E00
000000001C00
000008003800
0003FFF07800
001FFFFCF000
003F807FE000
00FC001FC000
01F80007E000
03E00007F000
07C0000FF800
0FC0000EFC00
1F80001CFC00
3F00003C7E00
3F0000787E00
7F0000F03F00
7E0000E03F00
7E0001C03F80
FE0003C01F80
FE0007801F80
FE0007001F80
FC000E001F80
FC001C001F80
FC003C001F80
FC0078001F80
FC0070001F80
FE00E0001F80
FE01C0001F80
FE03C0003F80
7E0780003F00
7E0700003F00
3F0E00003E00
3F1E00007E00
1FBC00007C00
1FF80000FC00
0FF00001F800
07E00003F000
03F00007E000
03FC001F8000
07FF007F0000
071FFFFC0000
0E03FFE00000
1C0018000000
3C0000000000
780000000000
F00000000000
ENDCHAR
STARTCHAR 01FF
ENCODING 511
SWIDTH 660 0
DWIDTH 33 0
BBX 29 43 2 -3
BITMAP
00000E00
00003E00
00007E00
0000FC00
0001F000
0003C000
00070000
000C0000
00000000
00000000
00000038
00000070
000200F0
007FE1E0
01FFFBC0
07E07F80
0FC01F00
1F800F80
1F001FC0
3E003FC0
3E003FE0
7E0073E0
7C00F3F0
7C01E3F0
FC01C3F0
FC0381F0
FC0701F0
FC0F01F0
FC1E03F0
7C1C03F0
7C3803F0
7E7803E0
3EF003E0
3EE007C0
1FC007C0
1F800F80
0FC01F00
0FE07E00
0FFFFC00
1C7FE000
38060000
78000000
F0000000
ENDCHAR
STARTCHAR 0218
ENCODING 536
SWIDTH 640 0
DWIDTH 32 0
BBX 27 52 3 -13
BITMAP
00080000
00FFC200
03FFE600
07C0FE00
0F003E00
1E001E00
3E000E00
3C000E00
3C000700
3C000700
7E000300
3E000000
3F000000
3F800000
3FE00000
3FF80000
1FFE0000
0FFF8000
07FFE000
01FFF800
00FFFC00
003FFF00
0007FF80
0001FF80
00007FC0
00003FC0
00001FC0
C0000FE0
C00007E0
C00007C0
E00007C0
E00007C0
F00007C0
F8000F80
FC000F80
FE001F00
6F807E00
47FFF800
01FFE000
000C0000
00000000
00000000
001E0000
003E0000
003F0000
003F0000
001F0000
00070000
00060000
000C0000
00380000
00100000
ENDCHAR
STARTCHAR 0219
ENCODING 537
SWIDTH 460 0
DWIDTH 23 0
BBX 17 41 3 -13
BITMAP
010000
0FF200
1FFE00
3C3E00
780E00
780600
F00600
F80200
F80000
FC0000
7E0000
7F8000
3FE000
1FF000
0FFC00
03FE00
01FF00
007F00
003F80
C00F80
C00F80
C00780
E00780
F00780
F00F80
FC1F00
DFFE00
C7F800
008000
000000
000000
01E000
03F000
03F000
03F000
01F000
007000
006000
00E000
038000
010000
ENDCHAR
STARTCHAR 021A
ENCODING 538
SWIDTH 800 0
DWIDTH 40 0
BBX 38 51 1 -13
BITMAP
FFFFFFFFFC
FFFFFFFFFC
FFC7FF0FFC
F800FC007C
E000FC001C
E000FC001C
C000FC000C
C000FC000C
C000FC000C
0000FC0000
0000FC0000
0000FC0000
0000FC0000
0000FC0000
0000FC0000
0000FC0000
0000FC0000
0000FC0000
0000FC0000
0000FC0000
0000FC0000
0000FC0000
0000FC0000
0000FC0000
0000FC0000
0000FC0000
0000FC0000
0000FC0000
0000FC0000
0000FC0000
0000FC0000
0000FC0000
0000FC0000
0001FE0000
0001FF0000
003FFFF000
003FFFF800
003FFFF800
0000000000
0000000000
0000000000
0000780000
0000FC0000
0000FC0000
0000FC0000
00007C0000
00001C0000
0000180000
0000380000
0000E00000
0000400000
ENDCHAR
STARTCHAR 021B
ENCODING 539
SWIDTH 380 0
DWIDTH 19 0
BBX 16 45 2 -13
BITMAP
0300
0300
0700
0F00
1F00
3F00
FFFE
FFFE
1F00
1F00
1F00
1F00
1F00
1F00
1F00
1F00
1F00
1F00
1F00
1F00
1F00
1F00
1F00
1F00
1F00
1F00
1F00
1F00
1F81
0F87
0FFE
07FC
0040
0000
0000
00E0
01F0
01F8
01F8
00F8
0038
0070
00E0
01C0
0080
ENDCHAR
STARTCHAR 0237
ENCODING 567
SWIDTH 300 0
DWIDTH 15 0
BBX 18 41 -7 -13
BITMAP
000040
000FC0
00FFC0
00FFC0
001FC0
000FC0
000FC0
0007C0
0007C0
0007C0
0007C0
0007C0
0007C0
0007C0
0007C0
0007C0
0007C0
0007C0
0007C0
0007C0
0007C0
0007C0
0007C0
0007C0
0007C0
0007C0
0007C0
0007C0
0007C0
0007C0
000780
000780
000780
200780
F80F80
F80F00
FC0F00
7E1E00
7FFC00
1FF000
010000
ENDCHAR
STARTCHAR 0259
ENCODING 601
SWIDTH 580 0
DWIDTH 29 0
BBX 24 29 2 -1
BITMAP
001000
03FF80
0FFFC0
1E07F0
3803F8
7000FC
2000FC
00007E
00007E
00003F
00003F
00003F
00003F
00001F
00001F
00001F
00003F
FFFFFF
FFFFFF
FF003E
7C003E
7C007E
7C007C
7C00F8
3E00F0
1F83E0
0FFFC0
07FF00
002000
ENDCHAR
STARTCHAR 02BC
ENCODING 700
SWIDTH 200 0
DWIDTH 10 0
BBX 5 11 2 31
BITMAP
70
78
F8
78
78
78
78
70
30
30
30
ENDCHAR
STARTCHAR 02C6
ENCODING 710
SWIDTH 360 0
DWIDTH 18 0
BBX 16 7 1 33
BITMAP
03C0
07E0
0FF0
1FF8
3E3C
780E
E007
ENDCHAR
STARTCHAR 02C7
ENCODING 711
SWIDTH 360 0
DWIDTH 18 0
BBX 16 7 1 33
BITMAP
C003
700F
3C1E
1E7C
0FF8
07F0
07E0
ENDCHAR
STARTCHAR 02D8
ENCODING 728
SWIDTH 320 0
DWIDTH 16 0
BBX 14 6 1 32
BITMAP
C00C
E01C
7078
7FF0
3FE0
0FC0
ENDCHAR
STARTCHAR 02D9
ENCODING 729
SWIDTH 160 0
DWIDTH 8 0
BBX 6 6 1 34
BITMAP
78
FC
FC
FC
FC
78
ENDCHAR
STARTCHAR 02DA
ENCODING 730
SWIDTH 220 0
DWIDTH 11 0
BBX 9 9 1 33
BITMAP
3C00
7F00
F700
C380
C180
C380
F700
7F00
3C00
ENDCHAR
STARTCHAR 02DB
ENCODING 731
SWIDTH 260 0
DWIDTH 13 0
BBX 13 13 0 -12
BITMAP
01C0
0780
0F00
1C00
3800
7800
F000
F000
F030
F078
FDF0
7FC0
3F00
ENDCHAR
STARTCHAR 02DC
ENCODING 732
SWIDTH 380 0
DWIDTH 19 0
BBX 17 7 1 31
BITMAP
1E0180
3F8180
7FE380
7FFF00
E3FF00
C0FE00
C03C00
ENDCHAR
STARTCHAR 02DD
ENCODING 733
SWIDTH 480 0
DWIDTH 24 0
BBX 22 8 1 33
BITMAP
00E038
01F07C
03F0FC
07E1F8
0F83E0
1E0F80
381E00
E03800
ENDCHAR
STARTCHAR 03BC
ENCODING 956
SWIDTH 720 0
DWIDTH 36 0
BBX 32 40 2 -13
BITMAP
FF803FE0
FF803FE0
1F8007E0
0F8003E0
0F8003E0
0F8003E0
0F8003E0
0F8003E0
0F8003E0
0F8003E0
0F8003E0
0F8003E0
0F8003E0
0F8003E0
0F8003E0
0F8003E0
0F8003E0
0FC003E0
0FC003E0
0FC007E0
0FC007E0
0FC00FE0
0FE00DF0
0F601DF0
0F7879F0
0FBFF1FF
0F9FC1FF
0F820180
0F800000
0F800000
0FC00000
0FC00000
0FC00000
0FC00000
0FC00000
0FC00000
0FC00000
07C00000
07C00000
01000000
ENDCHAR
STARTCHAR 1E0C
ENCODING 7692
SWIDTH 880 0
DWIDTH 44 0
BBX 39 49 2 -11
BITMAP
7FFFFE0000
7FFFFFE000
0FF01FF800
07E000FE00
03E0003F00
03E0001F80
03E0000FC0
03E00007E0
03E00003F0
03E00001F8
03E00001F8
03E00001FC
03E00000FC
03E00000FC
03E00000FE
03E00000FE
03E000007E
03E000007E
03E000007E
03E000007E
03E000007E
03E000007E
03E000007E
03E00000FE
03E00000FE
03E00000FC
03E00000FC
03E00001FC
03E00001F8
03E00001F8
03E00003F0
03E00007E0
03F0000FC0
03F0001F80
07FC007F00
0FFFDFFC00
FFFFFFF000
FFFFFF0000
0000000000
0000000000
0000000000
0000000000
0000000000
00003C0000
00007E0000
00007E0000
00007E0000
00007E0000
00003C0000
ENDCHAR
STARTCHAR 1E0D
ENCODING 7693
SWIDTH 680 0
DWIDTH 34 0
BBX 31 52 2 -11
BITMAP
000007C0
0000FFC0
0000FFC0
00000FC0
000007C0
000007C0
000007C0
000007C0
000007C0
000007C0
000007C0
000007C0
000007C0
000407C0
00FFC7C0
03FFF7C0
07E0FFC0
0F803FC0
1F001FC0
1F000FC0
3E0007C0
7E0007C0
7E0007C0
7C0007C0
7C0007C0
FC0007C0
FC0007C0
FC0007C0
FC0007C0
7C0007C0
7C0007C0
7C0007C0
7E0007C0
3E0007C0
3E000FC0
1F000FC0
1F801FC0
0FC07BE0
07FBF3FC
03FFE3FE
00FFC3FE
00040000
00000000
00000000
00000000
00000000
000E0000
001F0000
003F0000
003F8000
001F0000
000E0000
ENDCHAR
STARTCHAR 1E24
ENCODING 7716
SWIDTH 920 0
DWIDTH 46 0
BBX 42 49 2 -11
BITMAP
7FFF003FFF80
7FFF003FFF80
7FFE001FFF80
07F00003F800
07E00001F800
03E00001F800
03E00001F800
03E00001F800
03E00001F800
03E00001F800
03E00001F800
03E00001F800
03E00001F800
03E00001F800
03E00001F800
03E00001F800
03E00001F800
03FFFFFFF800
03FFFFFFF800
03E00001F800
03E00001F800
03E00001F800
03E00001F800
03E00001F800
03E00001F800
03E00001F800
03E00001F800
03E00001F800
03E00001F800
03E00001F800
03E00001F800
03E00001F800
03E00001F800
07E00001F800
07F00003FC00
7FFF003FFF80
FFFF003FFFC0
FFFF003FFFC0
000000000000
000000000000
000000000000
000000000000
000000000000
00001E000000
00003F000000
00003F000000
00003F000000
00003F000000
00001E000000
ENDCHAR
STARTCHAR 1E25
ENCODING 7717
SWIDTH 680 0
DWIDTH 34 0
BBX 32 53 1 -11
BITMAP
00400000
0F800000
FF800000
FF800000
1F800000
0F800000
0F800000
0F800000
0F800000
0F800000
0F800000
0F800000
0F800000
0F800000
0F801000
0F83FF00
0F8FFFC0
0F9E0FC0
0FB807E0
0FF003E0
0FE003F0
0FC001F0
0FC001F0
0FC001F0
0F8001F0
0F8001F0
0F8001F0
0F8001F0
0F8001F0
0F8001F0
0F8001F0
0F8001F0
0F8001F0
0F8001F0
0F8001F0
0F8001F0
0F8001F0
0FC001F0
0FC001F0
1FC003F8
FFFC1FFF
FFFC1FFF
00000000
00000000
00000000
00000000
00000000
0001C000
0003E000
0007E000
0007E000
0003E000
0003C000
ENDCHAR
STARTCHAR 1E44
ENCODING 7748
SWIDTH 900 0
DWIDTH 45 0
BBX 41 49 2 -1
BITMAP
00000E000000
00001F000000
00001F000000
00001F000000
00000E000000
000000000000
000000000000
000000000000
000000000000
000000000000
7FE0000FFF80
7FF0000FFF80
7FF8000FFF80
07F80000F800
07FC0000F000
07FE0000F000
03FF00007000
03FF00007000
03FF80007000
03BFC0007000
039FE0007000
038FF0007000
038FF0007000
0387F8007000
0383FC007000
0381FE007000
0380FE007000
0380FF007000
03807F807000
03803FC07000
03801FC07000
03801FE07000
03800FF07000
038007F87000
038003F87000
038001FC7000
038001FE7000
038000FF7000
0380007FF000
0380003FF000
0380003FF000
0380001FF000
0780000FF000
07800007F000
07C00003F000
7FF80003F000
FFFC0001F000
FFFC0000F000
000000007000
ENDCHAR
STARTCHAR 1E45
ENCODING 7749
SWIDTH 680 0
DWIDTH 34 0
BBX 31 40 2 0
BITMAP
00038000
0007C000
0007E000
0007E000
0007C000
00038000
00000000
00000000
00000000
00000000
00000000
00000000
01002000
1F03FE00
FF0FFF80
FF3C1FC0
1F7007C0
0FE007E0
0FC003E0
0FC003E0
0F8003E0
0F8003E0
0F8003E0
0F8003E0
0F8003E0
0F8003E0
0F8003E0
0F8003E0
0F8003E0
0F8003E0
0F8003E0
0F8003E0
0F8003E0
0F8003E0
0F8003E0
0F8003E0
0F8003F0
1FC007F0
FFF83FFE
FFF83FFE
ENDCHAR
STARTCHAR 1E5A
ENCODING 7770
SWIDTH 780 0
DWIDTH 39 0
BBX 39 49 2 -11
BITMAP
7FFFFC0000
7FFFFF8000
0FE03FE000
07E003F000
03E001F800
03E000FC00
03E000FC00
03E000FE00
03E000FE00
03E000FE00
03E000FE00
03E000FE00
03E000FC00
03E000FC00
03E001F800
03E003F800
03E01FF000
03FFFFC000
03FFFE0000
03EFF80000
03E1FC0000
03E0FE0000
03E07F0000
03E03F8000
03E01F8000
03E01FC000
03E00FE000
03E007F000
03E003F800
03E001FC00
03E001FE00
03E000FE00
03E0007F00
07E0003F80
07F0003FE0
7FFF801FFE
FFFFC00FFE
FFFFC007FE
0000000000
0000000000
0000000000
0000000000
0000000000
0000700000
0000F80000
0000FC0000
0001FC0000
0000F80000
0000700000
ENDCHAR
STARTCHAR 1E5B
ENCODING 7771
SWIDTH 480 0
DWIDTH 24 0
BBX 22 39 2 -11
BITMAP
000020
0383F8
7F87FC
FF8FFC
7F9DF8
0FB820
0FB000
0FE000
0FE000
0FC000
0FC000
0FC000
0FC000
0F8000
0F8000
0F8000
0F8000
0F8000
0F8000
0F8000
0F8000
0F8000
0F8000
0F8000
0F8000
1FC000
FFF800
FFF800
000000
000000
000000
000000
000000
070000
0F8000
0FC000
0FC000
0F8000
070000
ENDCHAR
STARTCHAR 1E62
ENCODING 7778
SWIDTH 640 0
DWIDTH 32 0
BBX 27 50 3 -11
BITMAP
00080000
00FFC200
03FFE600
07C0FE00
0F003E00
1E001E00
3E000E00
3C000E00
3C000700
3C000700
7E000300
3E000000
3F000000
3F800000
3FE00000
3FF80000
1FFE0000
0FFF8000
07FFE000
01FFF800
00FFFC00
003FFF00
0007FF80
0001FF80
00007FC0
00003FC0
00001FC0
C0000FE0
C00007E0
C00007C0
E00007C0
E00007C0
F00007C0
F8000F80
FC000F80
FE001F00
6F807E00
47FFF800
01FFE000
000C0000
00000000
00000000
00000000
00000000
001E0000
003F0000
003F0000
003F0000
003F0000
001E0000
ENDCHAR
STARTCHAR 1E63
ENCODING 7779
SWIDTH 460 0
DWIDTH 23 0
BBX 17 39 3 -11
BITMAP
010000
0FF200
1FFE00
3C3E00
780E00
780600
F00600
F80200
F80000
FC0000
7E0000
7F8000
3FE000
1FF000
0FFC00
03FE00
01FF00
007F00
003F80
C00F80
C00F80
C00780
E00780
F00780
F00F80
FC1F00
DFFE00
C7F800
008000
000000
000000
000000
000000
01E000
03F000
03F000
03F000
03F000
01E000
ENDCHAR
STARTCHAR 1E6C
ENCODING 7788
SWIDTH 800 0
DWIDTH 40 0
BBX 38 49 1 -11
BITMAP
FFFFFFFFFC
FFFFFFFFFC
FFC7FF0FFC
F800FC007C
E000FC001C
E000FC001C
C000FC000C
C000FC000C
C000FC000C
0000FC0000
0000FC0000
0000FC0000
0000FC0000
0000FC0000
0000FC0000
0000FC0000
0000FC0000
0000FC0000
0000FC0000
0000FC0000
0000FC0000
0000FC0000
0000FC0000
0000FC0000
0000FC0000
0000FC0000
0000FC0000
0000FC0000
0000FC0000
0000FC0000
0000FC0000
0000FC0000
0000FC0000
0001FE0000
0001FF0000
003FFFF000
003FFFF800
003FFFF800
0000000000
0000000000
0000000000
0000000000
0000000000
0000780000
0000FC0000
0000FC0000
0000FC0000
0000FC0000
0000780000
ENDCHAR
STARTCHAR 1E6D
ENCODING 7789
SWIDTH 380 0
DWIDTH 19 0
BBX 16 43 2 -11
BITMAP
0300
0300
0700
0F00
1F00
3F00
FFFE
FFFE
1F00
1F00
1F00
1F00
1F00
1F00
1F00
1F00
1F00
1F00
1F00
1F00
1F00
1F00
1F00
1F00
1F00
1F00
1F00
1F00
1F81
0F87
0FFE
07FC
0040
0000
0000
0000
0000
00E0
01F0
01F8
01F8
01F0
00E0
ENDCHAR
STARTCHAR 1E80
ENCODING 7808
SWIDTH 1180 0
DWIDTH 59 0
BBX 60 48 -1 -1
BITMAP
0000007000000000
000000FC00000000
0000007F00000000
0000003FC0000000
00000003F0000000
0000000008000000
0000000000000000
0000000000000000
0000000000000000
FFFF80FFFF00FFF0
FFFF80FFFF00FFF0
7FFF00FFFE00FFF0
0FF0001FE0001F80
07F0001FE0000F00
03F0000FE0000E00
03F00007E0000E00
01F80007F0001C00
01F80007F0001C00
00F80007F0001C00
00FC000FF0003800
00FC000FF8003800
007C001DF8003000
007E001CF8007000
007E001CFC007000
003E0038FC00E000
003F00387C00E000
003F00387E00E000
001F00707E01C000
001F80703E01C000
000F80E03E018000
000F80E03F038000
000FC0E01F038000
0007C1C01F030000
0007C1C01F870000
0007E1C00F870000
0003E3800F8E0000
0003E3800F8E0000
0003F30007CC0000
0001F70007DC0000
0001F70007DC0000
0000FE0003F80000
0000FE0003F80000
0000FC0003F00000
00007C0001F00000
00007C0001F00000
0000780001E00000
0000380000E00000
0000380000E00000
ENDCHAR
STARTCHAR 1E81
ENCODING 7809
SWIDTH 860 0
DWIDTH 43 0
BBX 41 41 1 0
BITMAP
000080000000
0001E0000000
0001F8000000
0001FC000000
00007E000000
00001F000000
000007800000
000001E00000
000000000000
000000000000
000000000000
000000000000
000000000000
000000000000
FFF80601FF80
FFF80E01FF80
3FC00E003E00
1F801F003C00
0F801F003C00
0FC01F003800
07C03F803800
07C03F807000
07C07F807000
03E077C07000
03E067C0E000
03E0E7C0E000
01F0E3E1C000
01F1C3E1C000
01F1C3F18000
01F181F38000
00FB81F38000
00FB81FB0000
00FF00FF0000
007F00FE0000
007E00FE0000
007E007E0000
003E007C0000
003C007C0000
003C00380000
001800380000
001800380000
ENDCHAR
STARTCHAR 1E82
ENCODING 7810
SWIDTH 1180 0
DWIDTH 59 0
BBX 60 48 -1 -1
BITMAP
000000003C000000
00000000FC000000
00000003FC000000
00000007F0000000
0000001F00000000
0000006000000000
0000000000000000
0000000000000000
0000000000000000
FFFF80FFFF00FFF0
FFFF80FFFF00FFF0
7FFF00FFFE00FFF0
0FF0001FE0001F80
07F0001FE0000F00
03F0000FE0000E00
03F00007E0000E00
01F80007F0001C00
01F80007F0001C00
00F80007F0001C00
00FC000FF0003800
00FC000FF8003800
007C001DF8003000
007E001CF8007000
007E001CFC007000
003E0038FC00E000
003F00387C00E000
003F00387E00E000
001F00707E01C000
001F80703E01C000
000F80E03E018000
000F80E03F038000
000FC0E01F038000
0007C1C01F030000
0007C1C01F870000
0007E1C00F870000
0003E3800F8E0000
0003E3800F8E0000
0003F30007CC0000
0001F70007DC0000
0001F70007DC0000
0000FE0003F80000
0000FE0003F80000
0000FC0003F00000
00007C0001F00000
00007C0001F00000
0000780001E00000
0000380000E00000
0000380000E00000
ENDCHAR
STARTCHAR 1E83
ENCODING 7811
SWIDTH 860 0
DWIDTH 43 0
BBX 41 41 1 0
BITMAP
000000700000
000000F80000
000001F80000
000003F00000
000007C00000
00001F000000
00003C000000
000070000000
000000000000
000000000000
000000000000
000000000000
000000000000
000000000000
FFF80601FF80
FFF80E01FF80
3FC00E003E00
1F801F003C00
0F801F003C00
0FC01F003800
07C03F803800
07C03F807000
07C07F807000
03E077C07000
03E077C0E000
03E0E7C0E000
03F0E3E1C000
01F1C3E1C000
01F1C3F1C000
01F1C1F38000
00FB81F38000
00FB81FB0000
00FF00FF0000
007F00FE0000
007F00FE0000
007E007E0000
003E007C0000
003C007C0000
003C00380000
001C00380000
001800380000
ENDCHAR
STARTCHAR 1E84
ENCODING 7812
SWIDTH 1180 0
DWIDTH 59 0
BBX 60 48 -1 -1
BITMAP
000000381C000000
0000007C3E000000
0000007C3E000000
0000007C3E000000
000000381C000000
0000000000000000
0000000000000000
0000000000000000
0000000000000000
FFFF80FFFF00FFF0
FFFF80FFFF00FFF0
7FFF00FFFE00FFF0
0FF0001FE0001F80
07F0001FE0000F00
03F0000FE0000E00
03F00007E0000E00
01F80007F0001C00
01F80007F0001C00
00F80007F0001C00
00FC000FF0003800
00FC000FF8003800
007C001DF8003000
007E001CF8007000
007E001CFC007000
003E0038FC00E000
003F00387C00E000
003F00387E00E000
001F00707E01C000
001F80703E01C000
000F80E03E018000
000F80E03F038000
000FC0E01F038000
0007C1C01F030000
0007C1C01F870000
0007E1C00F870000
0003E3800F8E0000
0003E3800F8E0000
0003F30007CC0000
0001F70007DC0000
0001F70007DC0000
0000FE0003F80000
0000FE0003F80000
0000FC0003F00000
00007C0001F00000
00007C0001F00000
0000780001E00000
0000380000E00000
0000380000E00000
ENDCHAR
STARTCHAR 1E85
ENCODING 7813
SWIDTH 860 0
DWIDTH 43 0
BBX 41 38 1 0
BITMAP
0000E0E00000
0001F1F00000
0001F1F80000
0003F1F80000
0001F1F00000
0000E0E00000
000000000000
000000000000
000000000000
000000000000
000000000000
FFF80601FF80
FFF80E01FF80
3FC00E003E00
1F801F003C00
0F801F003C00
0FC01F003800
07C03F803800
07C03F807000
07C07F807000
03E077C07000
03E067C0E000
03E0E7C0E000
01F0E3E1C000
01F1C3E1C000
01F1C3F18000
01F181F38000
00FB81F38000
00FB81FB0000
00FF00FF0000
007F00FE0000
007E00FE0000
007E007E0000
003E007C0000
003C007C0000
003C00380000
001800380000
001800380000
ENDCHAR
STARTCHAR 1E92
ENCODING 7826
SWIDTH 780 0
DWIDTH 39 0
BBX 35 49 1 -11
BITMAP
1FFFFFFFC0
1FFFFFFF80
1FF0003F00
1F00007F00
1E00007E00
1C0000FC00
180001F800
180003F800
180003F000
000007E000
00000FC000
00001FC000
00001F8000
00003F0000
00007F0000
0000FE0000
0000FC0000
0001F80000
0003F80000
0007F00000
0007E00000
000FC00000
001FC00000
003F800000
003F000000
007E000000
00FE000060
01FC000060
01F8000060
03F80000E0
07F00000E0
0FE00000E0
0FC00001E0
1FC00001E0
3F800003E0
7F00003FE0
7FFFFFFFE0
FFFFFFFFE0
0000000000
0000000000
0000000000
0000000000
0000000000
0000700000
0000F80000
0001F80000
0001F80000
0000F80000
0000700000
ENDCHAR
STARTCHAR 1E93
ENCODING 7827
SWIDTH 560 0
DWIDTH 28 0
BBX 25 38 1 -11
BITMAP
1FFFFF80
1FFFFF00
1FE07E00
1C00FC00
1800FC00
3001F800
3003F000
0003F000
0007E000
000FC000
001F8000
001F8000
003F0000
007E0000
007E0000
00FC0000
01F80000
01F80000
03F00000
07E00180
0FC00180
0FC00380
1F800300
3F000700
3F003F00
7FFFFF00
FFFFFF00
00000000
00000000
00000000
00000000
00000000
001C0000
003E0000
003F0000
003F0000
003E0000
001C0000
ENDCHAR
STARTCHAR 1EB8
ENCODING 7864
SWIDTH 720 0
DWIDTH 36 0
BBX 32 49 2 -11
BITMAP
7FFFFFFC
7FFFFFFC
7FF01FFC
07E0007C
07E0001C
03E0001C
03E0000C
03E0000C
03E0000C
03E00000
03E00000
03E00C00
03E00C00
03E00C00
03E01C00
03E03C00
03EFFC00
03FFFC00
03FFFC00
03E0FC00
03E03C00
03E00C00
03E00C00
03E00C00
03E00C00
03E00000
03E00000
03E00000
03E00003
03E00003
03E00003
03E00007
03E00007
07F0000F
07F8003F
0FFE00FF
FFFFFFFE
FFFFFFFE
00000000
00000000
00000000
00000000
00000000
0001E000
0003F000
0003F000
0003F000
0003F000
0001E000
ENDCHAR
STARTCHAR 1EB9
ENCODING 7865
SWIDTH 580 0
DWIDTH 29 0
BBX 24 39 2 -11
BITMAP
000200
007FE0
01FFF8
07E0FC
0F807E
1F003E
1F001F
3E001F
3E001F
7E007F
7FFFFF
7FFFFF
7C0000
FC0000
FC0000
FC0000
7C0000
7C0000
7E0000
7E0000
7E0000
3F0000
3F0002
1F8007
0FC00E
07F03C
03FFF8
00FFE0
000C00
000000
000000
000000
000000
000E00
001F00
001F80
003F80
001F00
000E00
ENDCHAR
STARTCHAR 1EBC
ENCODING 7868
SWIDTH 720 0
DWIDTH 36 0
BBX 32 48 2 0
BITMAP
000F0080
003FE180
003FFF80
007FFF00
0061FF00
00C03C00
00000000
00000000
00000000
00000000
7FFFFFFC
7FFFFFFC
7FF01FFC
07E0007C
07E0001C
03E0001C
03E0000C
03E0000C
03E0000C
03E00000
03E00000
03E00C00
03E00C00
03E00C00
03E01C00
03E03C00
03EFFC00
03FFFC00
03FFFC00
03E0FC00
03E03C00
03E00C00
03E00C00
03E00C00
03E00C00
03E00000
03E00000
03E00000
03E00003
03E00003
03E00003
03E00007
03E00007
07F0000F
07F8003F
0FFE00FF
FFFFFFFE
FFFFFFFE
ENDCHAR
STARTCHAR 1EBD
ENCODING 7869
SWIDTH 580 0
DWIDTH 29 0
BBX 24 39 2 -1
BITMAP
00F80C
01FE1C
03FFF8
07FFF8
061FF0
0603E0
000000
000000
000000
000000
000200
007FE0
01FFF8
07E0FC
0F807E
1F003E
1F001F
3E001F
3E001F
7E001F
7FFFFF
7FFFFF
7C0000
FC0000
FC0000
FC0000
7C0000
7C0000
7E0000
7E0000
7E0000
3F0000
3F0002
1F8007
0FC00E
07F03C
03FFF8
00FFE0
000C00
ENDCHAR
STARTCHAR 1ECA
ENCODING 7882
SWIDTH 420 0
DWIDTH 21 0
BBX 16 49 2 -11
BITMAP
7FFF
7FFF
7FFF
07F0
07F0
07E0
03E0
03E0
03E0
03E0
03E0
03E0
03E0
03E0
03E0
03E0
03E0
03E0
03E0
03E0
03E0
03E0
03E0
03E0
03E0
03E0
03E0
03E0
03E0
03E0
03E0
03E0
07E0
07F0
07F0
7FFF
FFFF
FFFF
0000
0000
0000
0000
0000
01C0
03E0
07E0
07E0
03E0
01C0
ENDCHAR
STARTCHAR 1ECB
ENCODING 7883
SWIDTH 340 0
DWIDTH 17 0
BBX 14 51 2 -11
BITMAP
0700
0F80
0FC0
0FC0
0F80
0700
0000
0000
0000
0000
0000
0000
0000
0180
3F80
FF80
FF80
0F80
0F80
0F80
0F80
0F80
0F80
0F80
0F80
0F80
0F80
0F80
0F80
0F80
0F80
0F80
0F80
0F80
0F80
0FC0
0FC0
1FE0
FFFC
FFFC
0000
0000
0000
0000
0000
0780
0FC0
0FC0
0FC0
0FC0
0780
ENDCHAR
STARTCHAR 1ECC
ENCODING 7884
SWIDTH 940 0
DWIDTH 47 0
BBX 41 50 3 -11
BITMAP
000008000000
0003FFE00000
001FFFFC0000
007F807F0000
00FC001F8000
01F80007E000
03E00003F000
07C00001F800
0FC00000F800
1F800000FC00
3F0000007E00
3F0000007E00
7F0000003F00
7E0000003F00
7E0000003F80
FE0000003F80
FE0000001F80
FE0000001F80
FC0000001F80
FC0000001F80
FC0000001F80
FC0000001F80
FC0000001F80
FE0000001F80
FE0000001F80
7E0000003F80
7E0000003F00
7E0000003F00
3F0000003E00
3F0000007E00
1F8000007C00
0F800000FC00
0FC00001F800
07E00003F000
01F00007E000
00FC001F8000
007F007F0000
001FFFFC0000
0003FFE00000
000008000000
000000000000
000000000000
000000000000
000000000000
00001C000000
00003E000000
00003F000000
00003F000000
00003E000000
00001C000000
ENDCHAR
STARTCHAR 1ECD
ENCODING 7885
SWIDTH 660 0
DWIDTH 33 0
BBX 28 39 2 -11
BITMAP
00020000
007FF000
01FFFC00
07F07E00
0FC01F00
1F800F80
1F0007C0
3E0007E0
3E0003E0
7E0003E0
7C0003F0
7C0003F0
FC0001F0
FC0001F0
FC0001F0
FC0001F0
7C0001F0
7C0003F0
7C0003F0
7E0003E0
3E0003E0
3E0007C0
1F0007C0
0F800F80
0FC01F00
03E07E00
01FFF800
007FF000
00020000
00000000
00000000
00000000
00000000
00070000
000F8000
001F8000
001F8000
000F8000
000F0000
ENDCHAR
STARTCHAR 1EE4
ENCODING 7908
SWIDTH 860 0
DWIDTH 43 0
BBX 41 49 1 -11
BITMAP
FFFFC03FFF80
FFFFC03FFF80
7FFF801FFF00
07F80001F800
07F80001F000
03F00000F000
03F00000E000
03F00000E000
03F00000E000
03F00000E000
03F00000E000
03F00000E000
03F00000E000
03F00000E000
03F00000E000
03F00000E000
03F00000E000
03F00000E000
03F00000E000
03F00000E000
03F00000E000
03F00000E000
03F00000E000
03F00000E000
03F00000E000
03F00000E000
03F00000E000
03F00000E000
03F00000E000
03F80001C000
01F80001C000
01F80001C000
01FC00038000
00FE00078000
007F801F0000
003FFFFE0000
001FFFFC0000
0007FFE00000
00001C000000
000000000000
000000000000
000000000000
000000000000
00000E000000
00001F000000
00001F800000
00003F800000
00001F000000
00000E000000
ENDCHAR
STARTCHAR 1EE5
ENCODING 7909
SWIDTH 680 0
DWIDTH 34 0
BBX 31 38 1 -11
BITMAP
FF803FE0
FF803FE0
1F800FE0
0F8003E0
0F8003E0
0F8003E0
0F8003E0
0F8003E0
0F8003E0
0F8003E0
0F8003E0
0F8003E0
0F8003E0
0F8003E0
0F8003E0
0F8003E0
0F8003E0
0F8003E0
0F8003E0
0F8007E0
0FC007E0
07C00DE0
07C019E0
07E039E0
03F071F0
01FFE1F8
00FF81FE
00080100
00000000
00000000
00000000
00000000
000E0000
001F0000
003F8000
003F8000
001F0000
000E0000
ENDCHAR
STARTCHAR 1EF2
ENCODING 7922
SWIDTH 740 0
DWIDTH 37 0
BBX 37 48 0 0
BITMAP
0007800000
0007E00000
0007F80000
0001FC0000
00003F0000
000001C000
0000000000
0000000000
0000000000
0000000000
FFFF007FF8
FFFF007FF8
FFFE003FF8
1FE00007C0
0FE0000780
07E0000F00
03F0000E00
03F0001C00
01F8001C00
01FC003800
00FC003800
007E007000
007E006000
003F00E000
003F81C000
001F81C000
000FC38000
000FC70000
0007E70000
0007FE0000
0003FE0000
0001FC0000
0001F80000
0000F80000
0000F80000
0000F80000
0000F80000
0000F80000
0000F80000
0000F80000
0000F80000
0000F80000
0000F80000
0001F80000
0001FC0000
0003FE0000
003FFFC000
003FFFC000
ENDCHAR
STARTCHAR 1EF3
ENCODING 7923
SWIDTH 640 0
DWIDTH 32 0
BBX 31 54 0 -13
BITMAP
00080000
001E0000
001F0000
001F8000
0007E000
0001F000
00007800
00001C00
00000000
00000000
00000000
00000000
00000000
00000000
FFF80FFE
FFF80FFE
1FE001F8
0FC000F0
0FC000F0
07C000E0
07E001E0
03E001C0
03F001C0
01F00380
01F00380
00F80700
00F80700
00FC0600
007C0E00
007C0E00
003E1C00
003E1C00
001F3800
001F3800
000FB000
000FF000
0007E000
0007E000
0007E000
0003C000
0003C000
00018000
00038000
00030000
00070000
00060000
000E0000
001C0000
01FC0000
0FF80000
0FF80000
0FF00000
0FE00000
02000000
ENDCHAR
STARTCHAR 1EF8
ENCODING 7928
SWIDTH 740 0
DWIDTH 37 0
BBX 37 48 0 0
BITMAP
0001F01800
0003FC3800
0007FFF000
000FFFF000
000C3FE000
000C07C000
0000000000
0000000000
0000000000
0000000000
FFFF007FF8
FFFF007FF8
FFFE003FF8
1FE00007C0
0FE0000780
07E0000F00
03F0000E00
03F0001C00
01F8001C00
01FC003800
00FC003800
007E007000
007E006000
003F00E000
003F81C000
001F81C000
000FC38000
000FC70000
0007E70000
0007FE0000
0003FE0000
0001FC0000
0001F80000
0000F80000
0000F80000
0000F80000
0000F80000
0000F80000
0000F80000
0000F80000
0000F80000
0000F80000
0000F80000
0001F80000
0001FC0000
0003FE0000
003FFFC000
003FFFC000
ENDCHAR
STARTCHAR 1EF9
ENCODING 7929
SWIDTH 640 0
DWIDTH 32 0
BBX 31 51 0 -13
BITMAP
000FC1C0
003FFF80
007FFF80
007FFF00
0060FE00
00000000
00000000
00000000
00000000
00000000
00000000
FFF80FFE
FFF80FFE
1FE001F8
0FC000F0
0FC000F0
07C000E0
07E001E0
03E001C0
03F001C0
01F00380
01F00380
00F80700
00F80700
00FC0600
007C0E00
007C0E00
003E1C00
003E1C00
001F3800
001F3800
000FB000
000FF000
0007E000
0007E000
0007E000
0003C000
0003C000
00018000
00038000
00030000
00070000
00060000
000E0000
001C0000
01FC0000
0FF80000
0FF80000
0FF00000
0FE00000
02000000
ENDCHAR
STARTCHAR 2013
ENCODING 8211
SWIDTH 720 0
DWIDTH 36 0
BBX 28 4 4 12
BITMAP
FFFFFFF0
FFFFFFF0
FFFFFFF0
FFFFFFF0
ENDCHAR
STARTCHAR 2014
ENCODING 8212
SWIDTH 1120 0
DWIDTH 56 0
BBX 48 4 4 12
BITMAP
FFFFFFFFFFFF
FFFFFFFFFFFF
FFFFFFFFFFFF
FFFFFFFFFFFF
ENDCHAR
STARTCHAR 2018
ENCODING 8216
SWIDTH 260 0
DWIDTH 13 0
BBX 7 14 3 28
BITMAP
04
0E
1C
38
70
60
E0
E0
FC
FC
FE
FE
FC
78
ENDCHAR
STARTCHAR 2019
ENCODING 8217
SWIDTH 260 0
DWIDTH 13 0
BBX 7 14 3 28
BITMAP
3C
7E
FE
FE
7E
7E
0E
0E
0C
1C
38
70
E0
40
ENDCHAR
STARTCHAR 201A
ENCODING 8218
SWIDTH 280 0
DWIDTH 14 0
BBX 7 14 3 -8
BITMAP
10
7C
7E
FE
7E
7E
16
0E
0E
0C
1C
38
F0
40
ENDCHAR
STARTCHAR 201C
ENCODING 8220
SWIDTH 440 0
DWIDTH 22 0
BBX 17 14 3 28
BITMAP
040100
0E0380
1C0600
380C00
701C00
603800
E03800
E03000
FC7E00
FC7F00
FE7F00
FE3F00
FC3F00
781E00
ENDCHAR
STARTCHAR 201D
ENCODING 8221
SWIDTH 440 0
DWIDTH 22 0
BBX 17 14 3 28
BITMAP
3C1E00
7E3F00
FE3F80
FE3F80
7E3F80
7E1F80
0E0380
0E0300
0C0700
1C0600
380E00
701C00
E03800
402000
ENDCHAR
STARTCHAR 201E
ENCODING 8222
SWIDTH 460 0
DWIDTH 23 0
BBX 17 14 3 -8
BITMAP
100400
7C1F00
7E3F80
FE3F80
7E3F80
7E1F80
160B80
0E0380
0E0300
0C0700
1C0E00
380C00
F03800
403000
ENDCHAR
STARTCHAR 2020
ENCODING 8224
SWIDTH 560 0
DWIDTH 28 0
BBX 25 53 1 -14
BITMAP
00080000
001E0000
003F0000
003F0000
003F0000
003F0000
003E0000
001E0000
001E0000
001C0000
001C0000
000C0000
3C0C0F00
7F8C7F80
7FFFFF80
FFFFFF80
7F8CFF80
3C0C0F00
000C0000
000C0000
001C0000
001C0000
001E0000
001E0000
003E0000
003F0000
007F8000
007F0000
003F0000
003F0000
003F0000
003F0000
003E0000
003E0000
001E0000
001E0000
001E0000
001E0000
001E0000
001E0000
001C0000
001C0000
001C0000
001C0000
000C0000
000C0000
000C0000
000C0000
000C0000
000C0000
000C0000
000C0000
000C0000
ENDCHAR
STARTCHAR 2021
ENCODING 8225
SWIDTH 600 0
DWIDTH 30 0
BBX 24 52 3 -13
BITMAP
001000
003C00
007E00
007E00
007E00
007E00
003C00
003C00
003C00
003800
001800
78181E
FF18FF
FFFFFF
FFFFFF
FF19FF
78181E
001800
001800
001800
003800
003C00
003C00
007C00
007E00
00FF00
007E00
007C00
003C00
003C00
003800
001800
001800
001800
78181E
FF18FF
FFFFFF
FFFFFF
FF18FF
78181E
001800
003800
003800
003C00
003C00
007C00
007E00
007E00
007E00
007E00
003C00
001000
ENDCHAR
STARTCHAR 2022
ENCODING 8226
SWIDTH 480 0
DWIDTH 24 0
BBX 16 15 4 12
BITMAP
07E0
1FF8
3FFC
7FFC
7FFE
FFFE
FFFF
FFFF
FFFF
FFFE
7FFE
7FFC
3FFC
1FF0
07E0
ENDCHAR
STARTCHAR 2026
ENCODING 8230
SWIDTH 700 0
DWIDTH 35 0
BBX 29 8 3 -1
BITMAP
10020040
7C0F81F0
7E1F83F0
FE1FC3F0
FE1FC3F8
7E1F83F0
7C0F81F0
10020040
ENDCHAR
STARTCHAR 2030
ENCODING 8240
SWIDTH 920 0
DWIDTH 46 0
BBX 42 40 2 -1
BITMAP
010000000000
07E0001C0000
0C3000380000
1C3800300000
181800600000
381800E00000
381C01C00000
381C01800000
381C03000000
381C07000000
381C0E000000
18180C000000
18181C000000
0C3038000000
0C7030000000
03C060000000
0000E0000000
0001C0000000
000180000000
000380000000
000700000000
000E00000000
000C00000000
001C00000000
00380F003C00
003031806700
007060C0C300
00E060C1C180
01C0E0E18180
0180E0E381C0
0380E06381C0
0700E06381C0
0E00E06381C0
0E00E06381C0
1C00E0E181C0
3800E0E18180
300060C1C180
700031C0C300
E0001F007E00
000004000800
ENDCHAR
STARTCHAR 2039
ENCODING 8249
SWIDTH 320 0
DWIDTH 16 0
BBX 10 16 2 5
BITMAP
0080
01C0
0380
0700
0E00
1E00
3C00
F800
7800
3C00
1E00
0F00
0700
0380
00C0
0080
ENDCHAR
STARTCHAR 203A
ENCODING 8250
SWIDTH 320 0
DWIDTH 16 0
BBX 9 16 4 5
BITMAP
C000
E000
7000
3800
3C00
1E00
0F00
0780
0F80
0F00
1E00
3C00
3800
6000
C000
8000
ENDCHAR
STARTCHAR 2044
ENCODING 8260
SWIDTH 40 0
DWIDTH 2 0
BBX 30 38 -14 0
BITMAP
0000001C
00000018
00000030
00000070
000000E0
000000C0
00000180
00000380
00000700
00000600
00000E00
00001C00
00001800
00003000
00007000
0000E000
0000C000
0001C000
00038000
00070000
00060000
000E0000
001C0000
00180000
00380000
00700000
00E00000
00C00000
01C00000
03800000
07000000
07000000
0E000000
1C000000
18000000
38000000
70000000
E0000000
ENDCHAR
STARTCHAR 2070
ENCODING 8304
SWIDTH 320 0
DWIDTH 16 0
BBX 12 16 2 23
BITMAP
0400
1F80
30C0
60C0
60E0
E060
E060
E070
E070
E070
E060
E060
60E0
60C0
3180
1F00
ENDCHAR
STARTCHAR 2074
ENCODING 8308
SWIDTH 280 0
DWIDTH 14 0
BBX 11 16 1 23
BITMAP
0100
0300
0300
0700
0B00
0B00
1300
3300
2300
4320
C320
FFE0
0320
0320
0780
0FC0
ENDCHAR
STARTCHAR 2075
ENCODING 8309
SWIDTH 260 0
DWIDTH 13 0
BBX 10 16 1 24
BITMAP
0840
0880
0F80
1F00
1000
1000
3F00
3180
21C0
00C0
00C0
01C0
81C0
C180
E300
7E00
ENDCHAR
STARTCHAR 2076
ENCODING 8310
SWIDTH 300 0
DWIDTH 15 0
BBX 11 16 2 23
BITMAP
0200
1F80
31C0
6080
6000
E000
CF00
D1C0
E0C0
E0E0
E0E0
E0E0
E0E0
60C0
3180
1F00
ENDCHAR
STARTCHAR 2077
ENCODING 8311
SWIDTH 240 0
DWIDTH 12 0
BBX 10 17 1 22
BITMAP
2000
7FC0
7FC0
6080
4080
8180
0100
0300
0200
0600
0E00
0C00
1C00
1800
3800
3800
3000
ENDCHAR
STARTCHAR 2078
ENCODING 8312
SWIDTH 280 0
DWIDTH 14 0
BBX 10 16 2 23
BITMAP
0800
3F00
6180
C180
E180
E180
7B00
3E00
1F80
6380
C1C0
C0C0
C0C0
C0C0
6180
3E00
ENDCHAR
STARTCHAR 2079
ENCODING 8313
SWIDTH 300 0
DWIDTH 15 0
BBX 11 15 2 24
BITMAP
0400
3F00
6180
E0C0
E0C0
E0E0
E0E0
E0E0
61E0
3EC0
00C0
00C0
6180
7300
3E00
ENDCHAR
STARTCHAR 2080
ENCODING 8320
SWIDTH 320 0
DWIDTH 16 0
BBX 12 16 2 -1
BITMAP
0F00
3180
70C0
60E0
E060
E060
E070
E070
E070
E070
E060
60E0
60C0
30C0
1F80
0400
ENDCHAR
STARTCHAR 2081
ENCODING 8321
SWIDTH 240 0
DWIDTH 12 0
BBX 6 16 3 0
BITMAP
10
F0
30
30
30
30
30
30
30
30
30
30
30
30
38
FC
ENDCHAR
STARTCHAR 2082
ENCODING 8322
SWIDTH 280 0
DWIDTH 14 0
BBX 11 16 2 0
BITMAP
3E00
6380
C180
C1C0
C1C0
E1C0
71C0
0380
0300
0700
0E00
0C20
1840
2040
7FC0
FFC0
ENDCHAR
STARTCHAR 2083
ENCODING 8323
SWIDTH 280 0
DWIDTH 14 0
BBX 10 16 2 -1
BITMAP
3E00
6380
E180
E1C0
7180
0180
1300
3E00
0380
41C0
F1C0
C1C0
C1C0
E180
7F00
0800
ENDCHAR
STARTCHAR 2084
ENCODING 8324
SWIDTH 280 0
DWIDTH 14 0
BBX 11 16 1 0
BITMAP
0100
0300
0300
0700
0F00
0B00
1300
3300
2300
4320
C320
FFE0
0320
0320
0700
0FC0
ENDCHAR
STARTCHAR 2085
ENCODING 8325
SWIDTH 260 0
DWIDTH 13 0
BBX 10 17 1 -1
BITMAP
0840
0F80
0F80
1000
1000
1000
3F00
3180
21C0
01C0
00C0
01C0
01C0
C1C0
C380
7F00
1800
ENDCHAR
STARTCHAR 2086
ENCODING 8326
SWIDTH 300 0
DWIDTH 15 0
BBX 11 16 2 -1
BITMAP
0F80
11C0
20C0
6000
6000
CF00
D180
E0C0
E0E0
E0E0
E0E0
E0E0
60C0
61C0
3F00
0400
ENDCHAR
STARTCHAR 2087
ENCODING 8327
SWIDTH 240 0
DWIDTH 12 0
BBX 10 18 1 -1
BITMAP
2000
6000
7FC0
7FC0
4080
C180
0100
0300
0200
0600
0600
0C00
0C00
1C00
1800
3800
3000
2000
ENDCHAR
STARTCHAR 2088
ENCODING 8328
SWIDTH 280 0
DWIDTH 14 0
BBX 10 16 2 -1
BITMAP
1E00
6180
4180
C080
E180
7180
7E00
1F00
3780
63C0
C0C0
C0C0
C0C0
E180
7F00
0800
ENDCHAR
STARTCHAR 2089
ENCODING 8329
SWIDTH 300 0
DWIDTH 15 0
BBX 11 16 2 -1
BITMAP
1F00
7180
61C0
E0C0
E0C0
E0E0
E0E0
E1E0
71E0
3EC0
00C0
00C0
4180
6100
7E00
0800
ENDCHAR
STARTCHAR 20AC
ENCODING 8364
SWIDTH 720 0
DWIDTH 36 0
BBX 30 40 2 -1
BITMAP
00001000
0003FF08
000FFFC8
001F83F8
003E00F8
007C0078
00F80078
01F80038
01F00038
03F00018
03F00018
07E00018
07E00000
07E00000
07E00000
FFFFFC00
FFFFFC00
0FE00000
0FE00000
0FE00000
0FE00000
0FE00000
FFFFFC00
FFFFFC00
07E00000
07E00000
07E0000C
07E0000C
03E0000C
03E0001C
03F0001C
01F0001C
01F8003C
00F8003C
007C007C
003E00FC
001F83EC
000FFFCC
0003FF0C
00003000
ENDCHAR
STARTCHAR 2120
ENCODING 8480
SWIDTH 800 0
DWIDTH 40 0
BBX 32 16 4 23
BITMAP
1E8F801F
738FC03F
6087C03C
6082C07C
E002E07C
7002E05C
7C0270DC
3F02709C
0F82319C
03C2391C
01C21B1C
80E21E1C
80C21E1C
C0C20E1C
FF870C1C
1E1F847F
ENDCHAR
STARTCHAR 2122
ENCODING 8482
SWIDTH 880 0
DWIDTH 44 0
BBX 36 16 4 23
BITMAP
FFFEFC01F0
FFFEFC01F0
83863C03C0
83823E02C0
03803E06C0
03803706C0
03803704C0
0380330CC0
03803388C0
03803198C0
038031D0C0
038031F0C0
038030E0C0
038030E0C0
07803061E0
1FE0FC43F0
ENDCHAR
STARTCHAR 2153
ENCODING 8531
SWIDTH 680 0
DWIDTH 34 0
BBX 30 40 2 -1
BITMAP
00800000
0780001C
01800038
01800070
01800060
018000C0
018001C0
01800380
01800300
01800700
01800E00
01800C00
01801800
03803800
07E07000
00006000
0000E000
0001C000
00038000
00030000
00070000
000E0000
000C0000
001C0000
00381F00
007031C0
006060C0
00E078C0
01C030C0
038001C0
03800980
07001E00
0E000180
0C0020C0
1C0078E0
380060E0
700060E0
600061C0
E0003F80
00000400
ENDCHAR
STARTCHAR 2154
ENCODING 8532
SWIDTH 680 0
DWIDTH 34 0
BBX 30 40 2 -1
BITMAP
01000000
0FE0001C
18700018
38300030
38300070
383000E0
1E7000C0
08700180
00E00380
00C00700
01800600
03000E00
06081C00
0C181800
1FF03000
3FF07000
0000E000
0000C000
0001C000
00038000
00070000
00060000
000E0000
001C0000
00181F80
003831C0
007030E0
00E038E0
00C018E0
01C000C0
03800980
07000F00
070000C0
0E0010E0
1C007860
18007060
380060E0
700070E0
E0003FC0
00000400
ENDCHAR
STARTCHAR 215B
ENCODING 8539
SWIDTH 680 0
DWIDTH 34 0
BBX 30 40 2 -1
BITMAP
00800000
0780001C
01800038
01800070
01800060
018000C0
018001C0
01800380
01800300
01800700
01800E00
01800C00
01801800
03803800
07E07000
00006000
0000E000
0001C000
00038000
00030000
00070000
000E0000
000C0000
001C0000
00381F00
007031C0
006060C0
00E060C0
01C070C0
03807880
03803F00
07000F80
0E001BC0
0C0071E0
1C0060E0
38006060
70006060
600060C0
E0003F80
00000400
ENDCHAR
STARTCHAR 215C
ENCODING 8540
SWIDTH 680 0
DWIDTH 34 0
BBX 30 40 2 -1
BITMAP
02000000
1FE0001C
18700038
18700030
1C700070
006000E0
00C000C0
07800180
04E00380
00700700
1C300600
38300C00
30301C00
38703800
18E03000
0FC07000
0000E000
0000C000
00018000
00038000
00070000
00060000
000E0000
001C0000
00380F80
003030C0
007030E0
00E03060
00C03060
01C038C0
03801F80
07000F80
06001BC0
0E0030E0
1C006060
38006060
38006060
70003060
E0001F80
00000200
ENDCHAR
STARTCHAR 215D
ENCODING 8541
SWIDTH 680 0
DWIDTH 34 0
BBX 30 40 2 -1
BITMAP
04200000
07E0001C
07C00038
04000030
04000060
0FC000E0
0CE001C0
08700180
00700300
00700700
00700600
20700C00
30701C00
30E03800
39C03000
1F006000
0000E000
0001C000
00018000
00038000
00070000
00060000
000C0000
001C0000
00380F00
003030C0
007020C0
00E06060
01C070C0
018038C0
03801F00
07000F80
06001BC0
0E0030E0
1C006060
38006060
30006060
700070C0
E0003F80
00000400
ENDCHAR
STARTCHAR 215E
ENCODING 8542
SWIDTH 680 0
DWIDTH 34 0
BBX 30 41 2 -1
BITMAP
04000000
04000000
07FC001C
0FF80038
0E080070
08100060
083000C0
002001C0
00600380
00400300
00C00700
00C00E00
01800C00
03801800
03003800
07007000
06006000
0000E000
0001C000
00038000
00030000
00070000
000E0000
000C0000
001C0000
00381F00
007031C0
006060C0
00E060C0
01C070C0
03803880
03803F00
07000F80
0E001BC0
0C0031E0
1C0060E0
38006060
70006060
700060C0
E0003F80
00000400
ENDCHAR
STARTCHAR 2212
ENCODING 8722
SWIDTH 640 0
DWIDTH 32 0
BBX 24 2 4 16
BITMAP
FFFFFF
FFFFFF
ENDCHAR
STARTCHAR 2215
ENCODING 8725
SWIDTH 560 0
DWIDTH 28 0
BBX 30 39 -1 0
BITMAP
0000000C
0000001C
00000038
00000070
00000060
000000E0
000001C0
00000180
00000380
00000700
00000E00
00000C00
00001C00
00003800
00007000
00007000
0000E000
0001C000
0001C000
00038000
00070000
000E0000
000E0000
001C0000
00380000
00380000
00700000
00E00000
01C00000
01C00000
03800000
07000000
07000000
0E000000
1C000000
3C000000
38000000
70000000
E0000000
ENDCHAR
STARTCHAR 2219
ENCODING 8729
SWIDTH 280 0
DWIDTH 14 0
BBX 6 7 4 10
BITMAP
78
FC
FC
FC
FC
7C
10
ENDCHAR
STARTCHAR F6C3
ENCODING 63171
SWIDTH 160 0
DWIDTH 8 0
BBX 6 10 1 -13
BITMAP
70
F8
FC
FC
7C
1C
18
38
F0
40
ENDCHAR
STARTCHAR FB00
ENCODING 64256
SWIDTH 720 0
DWIDTH 36 0
BBX 40 41 1 0
BITMAP
0000000FFC
0000003FFF
000FF8787F
003FFEF01F
00783FE00F
00F01FE000
01E00FE000
01E003E000
03E003C000
03C003C000
03C003C000
03C003C000
03C003C000
03C003C000
03C003C000
FFFFFFFFC0
FFFFFFFFC0
03C003C000
03C003C000
03C003C000
03C003C000
03C003C000
03C003C000
03C003C000
03C003C000
03C003C000
03C003C000
03C003C000
03C003C000
03C003C000
03C003C000
03C003C000
03C003C000
03C003C000
03C003C000
03C003E000
07E003E000
07E007E000
07F007F000
3FFE3FFE00
3FFE3FFE00
ENDCHAR
STARTCHAR FB01
ENCODING 64257
SWIDTH 660 0
DWIDTH 33 0
BBX 30 41 1 0
BITMAP
000FFF00
003FFFC0
00781FC0
00F007C0
01E00380
01E00000
03E00000
03E00000
03C00000
03C00000
03C00000
03C00000
03C00000
03C00000
03C003C0
FFFFFFC0
FFFFFFC0
03C07FC0
03C007C0
03C007C0
03C007C0
03C007C0
03C007C0
03C007C0
03C007C0
03C007C0
03C007C0
03C007C0
03C007C0
03C007C0
03C007C0
03C007C0
03C007C0
03C007C0
03C007C0
07C007C0
07E007E0
07E007E0
3FFC3FFC
3FFE7FFC
3FFE7FFC
ENDCHAR
STARTCHAR FB02
ENCODING 64258
SWIDTH 680 0
DWIDTH 34 0
BBX 32 41 1 0
BITMAP
000FFCE0
003FFFE0
00783FE0
00F00FE0
01E007E0
01E003E0
03E003E0
03E003E0
03E003E0
03C003E0
03C003E0
03C003E0
03C003E0
03C003E0
03C003E0
FFFFE3E0
FFFFE3E0
03C003E0
03C003E0
03C003E0
03C003E0
03C003E0
03C003E0
03C003E0
03C003E0
03C003E0
03C003E0
03C003E0
03C003E0
03C003E0
03C003E0
03C003E0
03C003E0
03C003E0
03C003E0
03E003E0
03E003E0
07E003F0
07F007F0
7FFE3FFF
7FFE3FFF
ENDCHAR
STARTCHAR FB03
ENCODING 64259
SWIDTH 980 0
DWIDTH 49 0
BBX 46 41 1 0
BITMAP
00000007FF00
0000001FFFC0
000FF87C1FC0
003FFEF007C0
00783FE003C0
00F01FE00000
01E00FE00000
01E003E00000
03E003E00000
03E003C00000
03E003C00000
03C003C00000
03C003C00000
03C003C00000
03C003C003C0
FFFFFFFFFFC0
FFFFFFFFFFC0
03C003C07FC0
03C003C007C0
03C003C007C0
03C003C007C0
03C003C007C0
03C003C007C0
03C003C007C0
03C003C003C0
03C003C003C0
03C003C003C0
03C003C003C0
03C003C003C0
03C003C003C0
03C003C003C0
03C003C003C0
03C003C003C0
03C003C003C0
03C003C007E0
07E003E007E0
07E007E007E0
07E007E007E0
3FFE3FFE3FFC
3FFE3FFE7FFC
3FFE3FFE7FFC
ENDCHAR
STARTCHAR FB04
ENCODING 64260
SWIDTH 1000 0
DWIDTH 50 0
BBX 48 41 1 0
BITMAP
0000000FFDE0
0000003FFFE0
000FF8783FE0
003FFEF00FE0
00783FE007E0
00F01FE003E0
01E00FE003E0
01E003E003E0
03E003C003E0
03C003C003E0
03C003C003E0
03C003C003E0
03C003C003E0
03C003C003E0
03C003C003E0
FFFFFFFFC3E0
FFFFFFFFC3E0
03C003C003E0
03C003C003E0
03C003C003E0
03C003C003E0
03C003C003E0
03C003C003E0
03C003C003E0
03C003C003E0
03C003C003E0
03C003C003E0
03C003C003E0
03C003C003E0
03C003C003E0
03C003C003E0
03C003C003E0
03C003C003E0
03C003C003E0
03C003C003E0
03C003E003E0
07E003E003E0
07E007E003F0
07F007F007F0
3FFE7FFE3FFF
3FFE7FFE3FFF
ENDCHAR
STARTCHAR FB06
ENCODING 64262
SWIDTH 840 0
DWIDTH 42 0
BBX 39 41 3 -1
BITMAP
00003FC000
0000FFF000
0003FFF800
0003C03C00
0007001C00
0007000E00
000E000E00
000E000E00
000E000600
000E000E00
000E000E00
000E000E00
004E001E00
07FF003E00
1FFF01FE00
3C3F81FFF8
780FC1FFF8
780FC03C00
7007C03C00
F801803C00
F800003C00
FC00003C00
7E00003C00
7F80003C00
3FE0003C00
1FF0003C00
0FFC003C00
07FE003C00
01FF003C00
007F003C00
003F803C00
C01F803C00
C00F803C00
C007803C00
E007803E00
F007803E00
F00F803E06
FC1F003F0E
DFFE001FFC
CFFC000FF8
0080000180
ENDCHAR
ENDFONT
